{
.appVersion = "1286";
DisplayStrings = (
ABCDEFGHIJKLMNOPQRSTUVWXYZabcdefghijklmnopqrstuvwxyz0123456789
);
customParameters = (
{
name = vendorID;
value = GOOG;
},
{
name = unicodeRanges;
value = (
);
}
);
date = "2020-01-14 18:17:01 +0000";
designer = "Lisa Huang";
designerURL = "http://www.lisahuang.work";
familyName = "Noto Sans Nushu";
fontMaster = (
{
ascender = 1069;
capHeight = 714;
descender = -293;
id = "CFFEBDE4-599A-46B2-9328-D96E42CD9C81";
weightValue = 400;
xHeight = 536;
}
);
glyphs = (
{
glyphname = A;
layers = (
{
layerId = "CFFEBDE4-599A-46B2-9328-D96E42CD9C81";
paths = (
{
closed = 1;
nodes = (
"638 0 LINE",
"360 717 LINE",
"279 717 LINE",
"0 0 LINE",
"91 0 LINE",
"176 221 LINE",
"459 221 LINE",
"545 0 LINE",
"545 0 LINE"
);
},
{
closed = 1;
nodes = (
"206 301 LINE",
"287 517 LINE SMOOTH",
"293 534 OFFCURVE",
"311 593 OFFCURVE",
"318 624 QCURVE",
"322 612 OFFCURVE",
"335 567 OFFCURVE",
"349 525 OFFCURVE",
"352 517 QCURVE SMOOTH",
"432 301 LINE",
"432 301 LINE"
);
}
);
width = 639;
}
);
leftKerningGroup = A;
note = A;
rightKerningGroup = A;
unicode = 0041;
},
{
glyphname = B;
layers = (
{
layerId = "CFFEBDE4-599A-46B2-9328-D96E42CD9C81";
paths = (
{
closed = 1;
nodes = (
"97 0 LINE",
"348 0 LINE SMOOTH",
"463 0 OFFCURVE",
"596 106 OFFCURVE",
"596 203 QCURVE SMOOTH",
"596 259 OFFCURVE",
"554 329 OFFCURVE",
"481 367 OFFCURVE",
"436 374 QCURVE",
"436 379 LINE",
"502 391 OFFCURVE",
"572 474 OFFCURVE",
"572 537 QCURVE SMOOTH",
"572 635 OFFCURVE",
"435 714 OFFCURVE",
"301 714 QCURVE SMOOTH",
"97 714 LINE",
"97 714 LINE"
);
},
{
closed = 1;
nodes = (
"187 637 LINE",
"305 637 LINE SMOOTH",
"396 637 OFFCURVE",
"479 586 OFFCURVE",
"479 527 QCURVE SMOOTH",
"479 469 OFFCURVE",
"411 410 OFFCURVE",
"319 410 QCURVE SMOOTH",
"187 410 LINE",
"187 410 LINE"
);
},
{
closed = 1;
nodes = (
"324 335 LINE SMOOTH",
"423 335 OFFCURVE",
"500 266 OFFCURVE",
"500 210 QCURVE SMOOTH",
"500 150 OFFCURVE",
"426 76 OFFCURVE",
"331 76 QCURVE SMOOTH",
"187 76 LINE",
"187 335 LINE",
"187 335 LINE"
);
}
);
width = 650;
}
);
note = B;
unicode = 0042;
},
{
glyphname = C;
layers = (
{
layerId = "CFFEBDE4-599A-46B2-9328-D96E42CD9C81";
paths = (
{
closed = 1;
nodes = (
"451 645 OFFCURVE",
"532 621 OFFCURVE",
"565 606 QCURVE",
"601 682 LINE",
"517 724 OFFCURVE",
"404 724 QCURVE SMOOTH",
"294 724 OFFCURVE",
"140 631 OFFCURVE",
"61 466 OFFCURVE",
"61 358 QCURVE SMOOTH",
"61 246 OFFCURVE",
"134 80 OFFCURVE",
"280 -10 OFFCURVE",
"389 -10 QCURVE SMOOTH",
"448 -10 OFFCURVE",
"533 4 OFFCURVE",
"573 19 QCURVE",
"573 97 LINE",
"533 85 OFFCURVE",
"449 69 OFFCURVE",
"402 69 QCURVE SMOOTH",
"279 69 OFFCURVE",
"156 224 OFFCURVE",
"156 357 QCURVE SMOOTH",
"156 491 OFFCURVE",
"288 645 OFFCURVE",
"403 645 QCURVE",
"403 645 LINE"
);
}
);
width = 632;
}
);
leftKerningGroup = C;
note = C;
rightKerningGroup = C;
unicode = 0043;
},
{
glyphname = D;
layers = (
{
layerId = "CFFEBDE4-599A-46B2-9328-D96E42CD9C81";
paths = (
{
closed = 1;
nodes = (
"669 479 OFFCURVE",
"583 634 OFFCURVE",
"425 714 OFFCURVE",
"317 714 QCURVE SMOOTH",
"97 714 LINE",
"97 0 LINE",
"296 0 LINE SMOOTH",
"472 0 OFFCURVE",
"669 183 OFFCURVE",
"669 364 QCURVE",
"669 364 LINE"
);
},
{
closed = 1;
nodes = (
"574 77 OFFCURVE",
"284 77 QCURVE SMOOTH",
"187 77 LINE",
"187 637 LINE",
"304 637 LINE SMOOTH",
"433 637 OFFCURVE",
"574 504 OFFCURVE",
"574 361 QCURVE",
"574 361 LINE"
);
}
);
width = 730;
}
);
note = D;
rightKerningGroup = D;
unicode = 0044;
},
{
glyphname = E;
layers = (
{
layerId = "CFFEBDE4-599A-46B2-9328-D96E42CD9C81";
paths = (
{
closed = 1;
nodes = (
"496 79 LINE",
"187 79 LINE",
"187 334 LINE",
"478 334 LINE",
"478 412 LINE",
"187 412 LINE",
"187 635 LINE",
"496 635 LINE",
"496 714 LINE",
"97 714 LINE",
"97 0 LINE",
"496 0 LINE",
"496 0 LINE"
);
}
);
width = 556;
}
);
note = E;
rightKerningGroup = E;
unicode = 0045;
},
{
glyphname = F;
layers = (
{
layerId = "CFFEBDE4-599A-46B2-9328-D96E42CD9C81";
paths = (
{
closed = 1;
nodes = (
"187 303 LINE",
"477 303 LINE",
"477 382 LINE",
"187 382 LINE",
"187 635 LINE",
"496 635 LINE",
"496 714 LINE",
"97 714 LINE",
"97 0 LINE",
"187 0 LINE",
"187 0 LINE"
);
}
);
width = 519;
}
);
note = F;
unicode = 0046;
},
{
glyphname = G;
layers = (
{
layerId = "CFFEBDE4-599A-46B2-9328-D96E42CD9C81";
paths = (
{
closed = 1;
nodes = (
"407 297 LINE",
"564 297 LINE",
"564 85 LINE",
"537 78 OFFCURVE",
"471 68 OFFCURVE",
"424 68 QCURVE SMOOTH",
"328 68 OFFCURVE",
"210 141 OFFCURVE",
"155 272 OFFCURVE",
"155 357 QCURVE SMOOTH",
"155 491 OFFCURVE",
"298 645 OFFCURVE",
"426 645 QCURVE SMOOTH",
"477 645 OFFCURVE",
"572 621 OFFCURVE",
"610 604 QCURVE",
"644 682 LINE",
"598 702 OFFCURVE",
"491 724 OFFCURVE",
"431 724 QCURVE SMOOTH",
"314 724 OFFCURVE",
"149 633 OFFCURVE",
"61 469 OFFCURVE",
"61 357 QCURVE SMOOTH",
"61 244 OFFCURVE",
"140 79 OFFCURVE",
"292 -10 OFFCURVE",
"403 -10 QCURVE SMOOTH",
"478 -10 OFFCURVE",
"596 8 OFFCURVE",
"654 27 QCURVE",
"654 377 LINE",
"407 377 LINE",
"407 377 LINE"
);
}
);
width = 728;
}
);
leftKerningGroup = C;
note = G;
unicode = 0047;
},
{
glyphname = H;
layers = (
{
layerId = "CFFEBDE4-599A-46B2-9328-D96E42CD9C81";
paths = (
{
closed = 1;
nodes = (
"643 714 LINE",
"553 714 LINE",
"553 412 LINE",
"187 412 LINE",
"187 714 LINE",
"97 714 LINE",
"97 0 LINE",
"187 0 LINE",
"187 333 LINE",
"553 333 LINE",
"553 0 LINE",
"643 0 LINE",
"643 0 LINE"
);
}
);
width = 741;
}
);
note = H;
unicode = 0048;
},
{
glyphname = I;
layers = (
{
layerId = "CFFEBDE4-599A-46B2-9328-D96E42CD9C81";
paths = (
{
closed = 1;
nodes = (
"298 52 LINE",
"214 71 LINE",
"214 642 LINE",
"298 662 LINE",
"298 714 LINE",
"40 714 LINE",
"40 662 LINE",
"124 642 LINE",
"124 71 LINE",
"40 52 LINE",
"40 0 LINE",
"298 0 LINE",
"298 0 LINE"
);
}
);
width = 339;
}
);
note = I;
unicode = 0049;
},
{
glyphname = J;
layers = (
{
layerId = "CFFEBDE4-599A-46B2-9328-D96E42CD9C81";
paths = (
{
closed = 1;
nodes = (
"80 -190 OFFCURVE",
"182 -92 OFFCURVE",
"182 11 QCURVE SMOOTH",
"182 714 LINE",
"92 714 LINE",
"92 4 LINE SMOOTH",
"92 -41 OFFCURVE",
"64 -91 OFFCURVE",
"19 -111 OFFCURVE",
"-6 -111 QCURVE SMOOTH",
"-26 -111 OFFCURVE",
"-62 -105 OFFCURVE",
"-78 -101 QCURVE",
"-78 -177 LINE",
"-64 -183 OFFCURVE",
"-28 -190 OFFCURVE",
"-4 -190 QCURVE",
"-4 -190 LINE"
);
}
);
width = 273;
}
);
note = J;
unicode = 004A;
},
{
glyphname = K;
layers = (
{
layerId = "CFFEBDE4-599A-46B2-9328-D96E42CD9C81";
paths = (
{
closed = 1;
nodes = (
"325 403 LINE",
"608 714 LINE",
"503 714 LINE",
"310 498 LINE SMOOTH",
"279 464 OFFCURVE",
"217 396 OFFCURVE",
"187 362 QCURVE",
"187 714 LINE",
"97 714 LINE",
"97 0 LINE",
"187 0 LINE",
"187 277 LINE",
"260 341 LINE",
"513 0 LINE",
"619 0 LINE",
"619 0 LINE"
);
}
);
width = 600;
}
);
note = K;
rightKerningGroup = K;
unicode = 004B;
},
{
glyphname = L;
layers = (
{
layerId = "CFFEBDE4-599A-46B2-9328-D96E42CD9C81";
paths = (
{
closed = 1;
nodes = (
"499 0 LINE",
"499 80 LINE",
"187 80 LINE",
"187 714 LINE",
"97 714 LINE",
"97 0 LINE",
"97 0 LINE"
);
}
);
width = 524;
}
);
note = L;
rightKerningGroup = L;
unicode = 004C;
},
{
glyphname = M;
layers = (
{
layerId = "CFFEBDE4-599A-46B2-9328-D96E42CD9C81";
paths = (
{
closed = 1;
nodes = (
"486 0 LINE",
"724 625 LINE",
"728 625 LINE",
"726 593 OFFCURVE",
"721 491 OFFCURVE",
"721 439 QCURVE SMOOTH",
"721 0 LINE",
"810 0 LINE",
"810 714 LINE",
"678 714 LINE",
"454 129 LINE",
"450 129 LINE",
"230 714 LINE",
"97 714 LINE",
"97 0 LINE",
"180 0 LINE",
"180 433 LINE SMOOTH",
"180 490 OFFCURVE",
"176 595 OFFCURVE",
"173 626 QCURVE",
"177 626 LINE",
"412 0 LINE",
"412 0 LINE"
);
}
);
width = 907;
}
);
note = M;
unicode = 004D;
},
{
glyphname = N;
layers = (
{
layerId = "CFFEBDE4-599A-46B2-9328-D96E42CD9C81";
paths = (
{
closed = 1;
nodes = (
"663 714 LINE",
"579 714 LINE",
"579 311 LINE SMOOTH",
"579 279 OFFCURVE",
"582 203 OFFCURVE",
"585 139 OFFCURVE",
"586 123 QCURVE",
"582 123 LINE",
"201 714 LINE",
"97 714 LINE",
"97 0 LINE",
"180 0 LINE",
"180 399 LINE SMOOTH",
"180 454 OFFCURVE",
"174 558 OFFCURVE",
"172 593 QCURVE",
"176 593 LINE",
"558 0 LINE",
"663 0 LINE",
"663 0 LINE"
);
}
);
width = 760;
}
);
note = N;
unicode = 004E;
},
{
glyphname = O;
layers = (
{
layerId = "CFFEBDE4-599A-46B2-9328-D96E42CD9C81";
paths = (
{
closed = 1;
nodes = (
"720 469 OFFCURVE",
"645 634 OFFCURVE",
"499 725 OFFCURVE",
"392 725 QCURVE SMOOTH",
"280 725 OFFCURVE",
"133 633 OFFCURVE",
"61 469 OFFCURVE",
"61 359 QCURVE SMOOTH",
"61 248 OFFCURVE",
"133 82 OFFCURVE",
"280 -10 OFFCURVE",
"391 -10 QCURVE SMOOTH",
"499 -10 OFFCURVE",
"645 82 OFFCURVE",
"720 247 OFFCURVE",
"720 358 QCURVE",
"720 358 LINE"
);
},
{
closed = 1;
nodes = (
"156 493 OFFCURVE",
"271 646 OFFCURVE",
"392 646 QCURVE SMOOTH",
"513 646 OFFCURVE",
"625 493 OFFCURVE",
"625 358 QCURVE SMOOTH",
"625 223 OFFCURVE",
"513 68 OFFCURVE",
"391 68 QCURVE SMOOTH",
"270 68 OFFCURVE",
"156 223 OFFCURVE",
"156 358 QCURVE",
"156 358 LINE"
);
}
);
userData = {
assembly = "NPUSHB[ ]	/* 28 values pushed */\0120 3 3 1 97 0 1 1 112 77 0 2 2 0 97 0 0 0 113 0 78 36 37 38 35 4 13 26 \012CALL[ ]	/* CallFunction */";
};
width = 781;
}
);
leftKerningGroup = C;
note = O;
rightKerningGroup = D;
unicode = 004F;
},
{
glyphname = P;
layers = (
{
layerId = "CFFEBDE4-599A-46B2-9328-D96E42CD9C81";
paths = (
{
closed = 1;
nodes = (
"97 714 LINE",
"97 0 LINE",
"187 0 LINE",
"187 278 LINE",
"269 278 LINE SMOOTH",
"376 278 OFFCURVE",
"501 342 OFFCURVE",
"554 445 OFFCURVE",
"554 504 QCURVE SMOOTH",
"554 604 OFFCURVE",
"426 714 OFFCURVE",
"286 714 QCURVE",
"286 714 LINE"
);
},
{
closed = 1;
nodes = (
"373 637 OFFCURVE",
"461 569 OFFCURVE",
"461 500 QCURVE SMOOTH",
"461 421 OFFCURVE",
"361 355 OFFCURVE",
"259 355 QCURVE SMOOTH",
"187 355 LINE",
"187 637 LINE",
"278 637 LINE",
"278 637 LINE"
);
}
);
width = 605;
}
);
note = P;
rightKerningGroup = P;
unicode = 0050;
},
{
glyphname = Q;
layers = (
{
layerId = "CFFEBDE4-599A-46B2-9328-D96E42CD9C81";
paths = (
{
closed = 1;
nodes = (
"720 469 OFFCURVE",
"645 634 OFFCURVE",
"499 725 OFFCURVE",
"392 725 QCURVE SMOOTH",
"280 725 OFFCURVE",
"133 633 OFFCURVE",
"61 469 OFFCURVE",
"61 359 QCURVE SMOOTH",
"61 248 OFFCURVE",
"133 82 OFFCURVE",
"280 -10 OFFCURVE",
"391 -10 QCURVE SMOOTH",
"397 -10 OFFCURVE",
"410 -9 OFFCURVE",
"416 -9 QCURVE",
"554 -170 LINE",
"683 -170 LINE",
"512 8 LINE",
"615 43 OFFCURVE",
"720 227 OFFCURVE",
"720 358 QCURVE",
"720 358 LINE"
);
},
{
closed = 1;
nodes = (
"156 493 OFFCURVE",
"271 646 OFFCURVE",
"392 646 QCURVE SMOOTH",
"513 646 OFFCURVE",
"625 493 OFFCURVE",
"625 358 QCURVE SMOOTH",
"625 223 OFFCURVE",
"513 68 OFFCURVE",
"391 68 QCURVE SMOOTH",
"270 68 OFFCURVE",
"156 223 OFFCURVE",
"156 358 QCURVE",
"156 358 LINE"
);
}
);
width = 781;
}
);
leftKerningGroup = C;
note = Q;
rightKerningGroup = D;
unicode = 0051;
},
{
glyphname = R;
layers = (
{
layerId = "CFFEBDE4-599A-46B2-9328-D96E42CD9C81";
paths = (
{
closed = 1;
nodes = (
"97 714 LINE",
"97 0 LINE",
"187 0 LINE",
"187 295 LINE",
"329 295 LINE",
"502 0 LINE",
"607 0 LINE",
"411 320 LINE",
"447 333 OFFCURVE",
"512 378 OFFCURVE",
"554 454 OFFCURVE",
"554 511 QCURVE SMOOTH",
"554 613 OFFCURVE",
"427 714 OFFCURVE",
"294 714 QCURVE",
"294 714 LINE"
);
},
{
closed = 1;
nodes = (
"377 636 OFFCURVE",
"461 577 OFFCURVE",
"461 507 QCURVE SMOOTH",
"461 440 OFFCURVE",
"381 371 OFFCURVE",
"294 371 QCURVE SMOOTH",
"187 371 LINE",
"187 636 LINE",
"289 636 LINE",
"289 636 LINE"
);
}
);
width = 622;
}
);
note = R;
unicode = 0052;
},
{
glyphname = S;
layers = (
{
layerId = "CFFEBDE4-599A-46B2-9328-D96E42CD9C81";
paths = (
{
closed = 1;
nodes = (
"502 247 OFFCURVE",
"457 321 OFFCURVE",
"370 374 OFFCURVE",
"307 397 QCURVE SMOOTH",
"249 419 OFFCURVE",
"181 457 OFFCURVE",
"151 505 OFFCURVE",
"151 541 QCURVE SMOOTH",
"151 588 OFFCURVE",
"219 645 OFFCURVE",
"286 645 QCURVE SMOOTH",
"333 645 OFFCURVE",
"420 623 OFFCURVE",
"457 607 QCURVE",
"485 684 LINE",
"445 702 OFFCURVE",
"347 724 OFFCURVE",
"288 724 QCURVE SMOOTH",
"221 724 OFFCURVE",
"118 680 OFFCURVE",
"60 599 OFFCURVE",
"60 542 QCURVE SMOOTH",
"60 459 OFFCURVE",
"153 363 OFFCURVE",
"244 330 QCURVE SMOOTH",
"309 307 OFFCURVE",
"382 266 OFFCURVE",
"412 218 OFFCURVE",
"412 183 QCURVE SMOOTH",
"412 130 OFFCURVE",
"331 68 OFFCURVE",
"251 68 QCURVE SMOOTH",
"194 68 OFFCURVE",
"87 94 OFFCURVE",
"51 110 QCURVE",
"51 24 LINE",
"85 8 OFFCURVE",
"187 -10 OFFCURVE",
"247 -10 QCURVE SMOOTH",
"364 -10 OFFCURVE",
"502 96 OFFCURVE",
"502 191 QCURVE",
"502 191 LINE"
);
}
);
width = 549;
}
);
note = S;
unicode = 0053;
},
{
glyphname = T;
layers = (
{
layerId = "CFFEBDE4-599A-46B2-9328-D96E42CD9C81";
paths = (
{
closed = 1;
nodes = (
"323 635 LINE",
"545 635 LINE",
"545 714 LINE",
"10 714 LINE",
"10 635 LINE",
"233 635 LINE",
"233 0 LINE",
"323 0 LINE",
"323 0 LINE"
);
}
);
width = 556;
}
);
leftKerningGroup = T;
note = T;
rightKerningGroup = T;
unicode = 0054;
},
{
glyphname = U;
layers = (
{
layerId = "CFFEBDE4-599A-46B2-9328-D96E42CD9C81";
paths = (
{
closed = 1;
nodes = (
"551 714 LINE",
"551 252 LINE SMOOTH",
"551 171 OFFCURVE",
"464 68 OFFCURVE",
"367 68 QCURVE SMOOTH",
"273 68 OFFCURVE",
"180 164 OFFCURVE",
"180 251 QCURVE SMOOTH",
"180 714 LINE",
"90 714 LINE",
"90 254 LINE SMOOTH",
"90 135 OFFCURVE",
"229 -10 OFFCURVE",
"362 -10 QCURVE SMOOTH",
"457 -10 OFFCURVE",
"580 59 OFFCURVE",
"640 178 OFFCURVE",
"640 252 QCURVE SMOOTH",
"640 714 LINE",
"640 714 LINE"
);
}
);
width = 731;
}
);
leftKerningGroup = U;
note = U;
rightKerningGroup = U;
unicode = 0055;
},
{
glyphname = V;
layers = (
{
layerId = "CFFEBDE4-599A-46B2-9328-D96E42CD9C81";
paths = (
{
closed = 1;
nodes = (
"505 714 LINE",
"345 258 LINE SMOOTH",
"329 213 OFFCURVE",
"307 135 OFFCURVE",
"300 100 QCURVE",
"293 135 OFFCURVE",
"271 212 OFFCURVE",
"255 256 QCURVE SMOOTH",
"94 714 LINE",
"0 714 LINE",
"255 0 LINE",
"345 0 LINE",
"600 714 LINE",
"600 714 LINE"
);
}
);
width = 600;
}
);
leftKerningGroup = V;
note = V;
rightKerningGroup = V;
unicode = 0056;
},
{
glyphname = W;
layers = (
{
layerId = "CFFEBDE4-599A-46B2-9328-D96E42CD9C81";
paths = (
{
closed = 1;
nodes = (
"823 714 LINE",
"713 279 LINE SMOOTH",
"701 232 OFFCURVE",
"683 145 OFFCURVE",
"678 108 QCURVE",
"673 143 OFFCURVE",
"653 234 OFFCURVE",
"639 280 QCURVE SMOOTH",
"508 714 LINE",
"415 714 LINE",
"289 283 LINE SMOOTH",
"276 239 OFFCURVE",
"256 147 OFFCURVE",
"251 108 QCURVE",
"246 146 OFFCURVE",
"229 232 OFFCURVE",
"217 278 QCURVE SMOOTH",
"106 714 LINE",
"12 714 LINE",
"201 0 LINE",
"292 0 LINE",
"427 465 LINE SMOOTH",
"441 511 OFFCURVE",
"460 596 OFFCURVE",
"461 609 QCURVE",
"463 600 OFFCURVE",
"473 555 OFFCURVE",
"489 497 OFFCURVE",
"497 468 QCURVE SMOOTH",
"636 0 LINE",
"727 0 LINE",
"917 714 LINE",
"917 714 LINE"
);
}
);
width = 930;
}
);
leftKerningGroup = V;
note = W;
rightKerningGroup = V;
unicode = 0057;
},
{
glyphname = X;
layers = (
{
layerId = "CFFEBDE4-599A-46B2-9328-D96E42CD9C81";
paths = (
{
closed = 1;
nodes = (
"344 374 LINE",
"565 714 LINE",
"470 714 LINE",
"294 434 LINE",
"119 714 LINE",
"19 714 LINE",
"241 372 LINE",
"4 0 LINE",
"99 0 LINE",
"291 310 LINE",
"480 0 LINE",
"582 0 LINE",
"582 0 LINE"
);
}
);
width = 586;
}
);
note = X;
rightKerningGroup = K;
unicode = 0058;
},
{
glyphname = Y;
layers = (
{
layerId = "CFFEBDE4-599A-46B2-9328-D96E42CD9C81";
paths = (
{
closed = 1;
nodes = (
"98 714 LINE",
"0 714 LINE",
"238 273 LINE",
"238 0 LINE",
"328 0 LINE",
"328 277 LINE",
"566 714 LINE",
"469 714 LINE",
"283 363 LINE",
"283 363 LINE"
);
}
);
width = 566;
}
);
leftKerningGroup = Y;
note = Y;
rightKerningGroup = Y;
unicode = 0059;
},
{
glyphname = Z;
layers = (
{
layerId = "CFFEBDE4-599A-46B2-9328-D96E42CD9C81";
paths = (
{
closed = 1;
nodes = (
"533 80 LINE",
"147 80 LINE",
"523 646 LINE",
"523 714 LINE",
"50 714 LINE",
"50 634 LINE",
"414 634 LINE",
"38 68 LINE",
"38 0 LINE",
"533 0 LINE",
"533 0 LINE"
);
}
);
width = 572;
}
);
leftKerningGroup = Z;
note = Z;
rightKerningGroup = Z;
unicode = 005A;
},
{
glyphname = a;
layers = (
{
layerId = "CFFEBDE4-599A-46B2-9328-D96E42CD9C81";
paths = (
{
closed = 1;
nodes = (
"236 545 OFFCURVE",
"140 518 OFFCURVE",
"105 499 QCURVE",
"132 433 LINE",
"165 449 OFFCURVE",
"241 474 OFFCURVE",
"283 474 QCURVE SMOOTH",
"336 474 OFFCURVE",
"394 422 OFFCURVE",
"394 355 QCURVE SMOOTH",
"394 323 LINE",
"303 320 LINE SMOOTH",
"172 316 OFFCURVE",
"46 229 OFFCURVE",
"46 149 QCURVE SMOOTH",
"46 67 OFFCURVE",
"142 -10 OFFCURVE",
"215 -10 QCURVE SMOOTH",
"283 -10 OFFCURVE",
"360 32 OFFCURVE",
"395 76 QCURVE",
"399 76 LINE",
"416 0 LINE",
"480 0 LINE",
"480 365 LINE SMOOTH",
"480 459 OFFCURVE",
"386 545 OFFCURVE",
"288 545 QCURVE",
"288 545 LINE"
);
},
{
closed = 1;
nodes = (
"393 214 LINE SMOOTH",
"393 136 OFFCURVE",
"303 61 OFFCURVE",
"235 61 QCURVE SMOOTH",
"192 61 OFFCURVE",
"137 103 OFFCURVE",
"137 148 QCURVE SMOOTH",
"137 199 OFFCURVE",
"214 255 OFFCURVE",
"314 259 QCURVE SMOOTH",
"393 262 LINE",
"393 262 LINE"
);
}
);
width = 561;
}
);
leftKerningGroup = a;
note = a;
rightKerningGroup = a;
unicode = 0061;
},
{
glyphname = b;
layers = (
{
layerId = "CFFEBDE4-599A-46B2-9328-D96E42CD9C81";
paths = (
{
closed = 1;
nodes = (
"85 760 LINE",
"85 0 LINE",
"148 0 LINE",
"166 68 LINE",
"173 68 LINE",
"196 36 OFFCURVE",
"276 -10 OFFCURVE",
"339 -10 QCURVE SMOOTH",
"438 -10 OFFCURVE",
"560 130 OFFCURVE",
"560 268 QCURVE SMOOTH",
"560 406 OFFCURVE",
"439 545 OFFCURVE",
"339 545 QCURVE SMOOTH",
"276 545 OFFCURVE",
"196 499 OFFCURVE",
"173 465 QCURVE",
"168 465 LINE",
"170 482 OFFCURVE",
"173 541 OFFCURVE",
"173 575 QCURVE SMOOTH",
"173 760 LINE",
"173 760 LINE"
);
},
{
closed = 1;
nodes = (
"469 472 OFFCURVE",
"469 269 QCURVE SMOOTH",
"469 169 OFFCURVE",
"398 63 OFFCURVE",
"326 63 QCURVE SMOOTH",
"238 63 OFFCURVE",
"173 168 OFFCURVE",
"173 267 QCURVE SMOOTH",
"173 271 LINE SMOOTH",
"173 374 OFFCURVE",
"239 472 OFFCURVE",
"324 472 QCURVE",
"324 472 LINE"
);
}
);
width = 615;
}
);
leftKerningGroup = b;
note = b;
rightKerningGroup = b;
unicode = 0062;
},
{
glyphname = c;
layers = (
{
layerId = "CFFEBDE4-599A-46B2-9328-D96E42CD9C81";
paths = (
{
closed = 1;
nodes = (
"346 -10 OFFCURVE",
"411 5 OFFCURVE",
"438 19 QCURVE",
"438 97 LINE",
"410 84 OFFCURVE",
"343 66 OFFCURVE",
"299 66 QCURVE SMOOTH",
"223 66 OFFCURVE",
"146 169 OFFCURVE",
"146 266 QCURVE SMOOTH",
"146 469 OFFCURVE",
"304 469 QCURVE SMOOTH",
"332 469 OFFCURVE",
"396 453 OFFCURVE",
"420 444 QCURVE",
"447 517 LINE",
"423 529 OFFCURVE",
"347 546 OFFCURVE",
"306 546 QCURVE SMOOTH",
"234 546 OFFCURVE",
"121 488 OFFCURVE",
"55 364 OFFCURVE",
"55 265 QCURVE SMOOTH",
"55 170 OFFCURVE",
"118 48 OFFCURVE",
"229 -10 OFFCURVE",
"300 -10 QCURVE",
"300 -10 LINE"
);
}
);
width = 480;
}
);
leftKerningGroup = c;
note = c;
unicode = 0063;
},
{
glyphname = d;
layers = (
{
layerId = "CFFEBDE4-599A-46B2-9328-D96E42CD9C81";
paths = (
{
closed = 1;
nodes = (
"338 -10 OFFCURVE",
"418 38 OFFCURVE",
"442 72 QCURVE",
"446 72 LINE",
"459 0 LINE",
"530 0 LINE",
"530 760 LINE",
"442 760 LINE",
"442 546 LINE SMOOTH",
"442 531 OFFCURVE",
"447 480 OFFCURVE",
"448 467 QCURVE",
"442 467 LINE",
"417 500 OFFCURVE",
"338 546 OFFCURVE",
"276 546 QCURVE SMOOTH",
"176 546 OFFCURVE",
"55 405 OFFCURVE",
"55 267 QCURVE SMOOTH",
"55 129 OFFCURVE",
"175 -10 OFFCURVE",
"275 -10 QCURVE",
"275 -10 LINE"
);
},
{
closed = 1;
nodes = (
"217 63 OFFCURVE",
"146 169 OFFCURVE",
"146 265 QCURVE SMOOTH",
"146 360 OFFCURVE",
"217 473 OFFCURVE",
"288 473 QCURVE SMOOTH",
"377 473 OFFCURVE",
"443 366 OFFCURVE",
"443 266 QCURVE SMOOTH",
"443 250 LINE SMOOTH",
"443 156 OFFCURVE",
"374 63 OFFCURVE",
"289 63 QCURVE",
"289 63 LINE"
);
}
);
width = 615;
}
);
leftKerningGroup = c;
note = d;
unicode = 0064;
},
{
glyphname = e;
layers = (
{
layerId = "CFFEBDE4-599A-46B2-9328-D96E42CD9C81";
paths = (
{
closed = 1;
nodes = (
"221 546 OFFCURVE",
"114 478 OFFCURVE",
"55 352 OFFCURVE",
"55 264 QCURVE SMOOTH",
"55 175 OFFCURVE",
"120 52 OFFCURVE",
"237 -10 OFFCURVE",
"313 -10 QCURVE SMOOTH",
"368 -10 OFFCURVE",
"448 7 OFFCURVE",
"489 25 QCURVE",
"489 102 LINE",
"447 84 OFFCURVE",
"368 65 OFFCURVE",
"317 65 QCURVE SMOOTH",
"237 65 OFFCURVE",
"148 160 OFFCURVE",
"146 251 QCURVE",
"513 251 LINE",
"513 304 LINE SMOOTH",
"513 377 OFFCURVE",
"460 486 OFFCURVE",
"361 546 OFFCURVE",
"292 546 QCURVE",
"292 546 LINE"
);
},
{
closed = 1;
nodes = (
"358 474 OFFCURVE",
"420 389 OFFCURVE",
"421 321 QCURVE",
"148 321 LINE",
"155 393 OFFCURVE",
"228 474 OFFCURVE",
"291 474 QCURVE",
"291 474 LINE"
);
}
);
width = 564;
}
);
leftKerningGroup = c;
note = e;
rightKerningGroup = b;
unicode = 0065;
},
{
glyphname = f;
layers = (
{
layerId = "CFFEBDE4-599A-46B2-9328-D96E42CD9C81";
paths = (
{
closed = 1;
nodes = (
"332 536 LINE",
"197 536 LINE",
"197 571 LINE SMOOTH",
"197 634 OFFCURVE",
"240 693 OFFCURVE",
"284 693 QCURVE SMOOTH",
"306 693 OFFCURVE",
"348 683 OFFCURVE",
"364 678 QCURVE",
"387 747 LINE",
"368 754 OFFCURVE",
"315 765 OFFCURVE",
"283 765 QCURVE SMOOTH",
"201 765 OFFCURVE",
"109 674 OFFCURVE",
"109 570 QCURVE SMOOTH",
"109 539 LINE",
"15 509 LINE",
"15 468 LINE",
"109 468 LINE",
"109 0 LINE",
"197 0 LINE",
"197 468 LINE",
"332 468 LINE",
"332 468 LINE"
);
}
);
width = 344;
}
);
leftKerningGroup = f;
note = f;
rightKerningGroup = f;
unicode = 0066;
},
{
glyphname = g;
layers = (
{
layerId = "CFFEBDE4-599A-46B2-9328-D96E42CD9C81";
paths = (
{
closed = 1;
nodes = (
"172 546 OFFCURVE",
"55 395 OFFCURVE",
"55 267 QCURVE SMOOTH",
"55 136 OFFCURVE",
"172 -10 OFFCURVE",
"276 -10 QCURVE SMOOTH",
"388 -10 OFFCURVE",
"442 71 QCURVE",
"446 71 LINE",
"445 62 OFFCURVE",
"443 17 OFFCURVE",
"443 5 QCURVE SMOOTH",
"443 -16 LINE SMOOTH",
"443 -86 OFFCURVE",
"364 -167 OFFCURVE",
"295 -167 QCURVE SMOOTH",
"176 -167 OFFCURVE",
"97 -125 QCURVE",
"97 -206 LINE",
"172 -240 OFFCURVE",
"290 -240 QCURVE SMOOTH",
"413 -240 OFFCURVE",
"530 -124 OFFCURVE",
"530 -9 QCURVE SMOOTH",
"530 536 LINE",
"460 536 LINE",
"448 465 LINE",
"443 465 LINE",
"413 506 OFFCURVE",
"328 546 OFFCURVE",
"275 546 QCURVE",
"275 546 LINE"
);
},
{
closed = 1;
nodes = (
"368 472 OFFCURVE",
"444 377 OFFCURVE",
"444 267 QCURVE SMOOTH",
"444 246 LINE SMOOTH",
"444 149 OFFCURVE",
"370 62 OFFCURVE",
"289 62 QCURVE SMOOTH",
"219 62 OFFCURVE",
"146 167 OFFCURVE",
"146 266 QCURVE SMOOTH",
"146 365 OFFCURVE",
"220 472 OFFCURVE",
"287 472 QCURVE",
"287 472 LINE"
);
}
);
width = 615;
}
);
leftKerningGroup = g;
note = g;
unicode = 0067;
},
{
glyphname = h;
layers = (
{
layerId = "CFFEBDE4-599A-46B2-9328-D96E42CD9C81";
paths = (
{
closed = 1;
nodes = (
"85 760 LINE",
"85 0 LINE",
"173 0 LINE",
"173 277 LINE SMOOTH",
"173 371 OFFCURVE",
"240 472 OFFCURVE",
"330 472 QCURVE SMOOTH",
"450 472 OFFCURVE",
"450 343 QCURVE SMOOTH",
"450 0 LINE",
"537 0 LINE",
"537 349 LINE SMOOTH",
"537 452 OFFCURVE",
"439 545 OFFCURVE",
"341 545 QCURVE SMOOTH",
"289 545 OFFCURVE",
"200 503 OFFCURVE",
"174 462 QCURVE",
"168 462 LINE",
"173 497 OFFCURVE",
"173 537 QCURVE SMOOTH",
"173 760 LINE",
"173 760 LINE"
);
}
);
width = 618;
}
);
leftKerningGroup = b;
note = h;
rightKerningGroup = a;
unicode = 0068;
},
{
glyphname = i;
layers = (
{
layerId = "CFFEBDE4-599A-46B2-9328-D96E42CD9C81";
paths = (
{
closed = 1;
nodes = (
"108 737 OFFCURVE",
"78 710 OFFCURVE",
"78 681 QCURVE SMOOTH",
"78 653 OFFCURVE",
"108 625 OFFCURVE",
"130 625 QCURVE SMOOTH",
"150 625 OFFCURVE",
"181 653 OFFCURVE",
"181 681 QCURVE SMOOTH",
"181 710 OFFCURVE",
"150 737 OFFCURVE",
"130 737 QCURVE",
"130 737 LINE"
);
},
{
closed = 1;
nodes = (
"85 536 LINE",
"85 0 LINE",
"173 0 LINE",
"173 536 LINE",
"173 536 LINE"
);
}
);
width = 258;
}
);
note = i;
unicode = 0069;
},
{
glyphname = j;
layers = (
{
layerId = "CFFEBDE4-599A-46B2-9328-D96E42CD9C81";
paths = (
{
closed = 1;
nodes = (
"78 653 OFFCURVE",
"108 625 OFFCURVE",
"130 625 QCURVE SMOOTH",
"150 625 OFFCURVE",
"181 653 OFFCURVE",
"181 681 QCURVE SMOOTH",
"181 710 OFFCURVE",
"150 737 OFFCURVE",
"130 737 QCURVE SMOOTH",
"108 737 OFFCURVE",
"78 710 OFFCURVE",
"78 681 QCURVE",
"78 681 LINE"
);
},
{
closed = 1;
nodes = (
"101 -240 OFFCURVE",
"173 -155 OFFCURVE",
"173 -80 QCURVE SMOOTH",
"173 536 LINE",
"85 536 LINE",
"85 -83 LINE SMOOTH",
"85 -132 OFFCURVE",
"43 -167 OFFCURVE",
"11 -167 QCURVE SMOOTH",
"-8 -167 OFFCURVE",
"-40 -161 OFFCURVE",
"-55 -157 QCURVE",
"-55 -228 LINE",
"-41 -233 OFFCURVE",
"-3 -240 OFFCURVE",
"22 -240 QCURVE",
"22 -240 LINE"
);
}
);
width = 258;
}
);
note = j;
unicode = 006A;
},
{
glyphname = k;
layers = (
{
layerId = "CFFEBDE4-599A-46B2-9328-D96E42CD9C81";
paths = (
{
closed = 1;
nodes = (
"85 760 LINE",
"85 0 LINE",
"172 0 LINE",
"172 197 LINE",
"233 250 LINE",
"419 0 LINE",
"525 0 LINE",
"293 307 LINE",
"510 536 LINE",
"407 536 LINE",
"236 355 LINE SMOOTH",
"227 345 OFFCURVE",
"202 314 OFFCURVE",
"178 284 OFFCURVE",
"172 276 QCURVE",
"168 276 LINE",
"169 295 OFFCURVE",
"172 347 OFFCURVE",
"172 363 QCURVE SMOOTH",
"172 760 LINE",
"172 760 LINE"
);
}
);
width = 534;
}
);
leftKerningGroup = b;
note = k;
unicode = 006B;
},
{
glyphname = l;
layers = (
{
layerId = "CFFEBDE4-599A-46B2-9328-D96E42CD9C81";
paths = (
{
closed = 1;
nodes = (
"173 760 LINE",
"85 760 LINE",
"85 0 LINE",
"173 0 LINE",
"173 0 LINE"
);
}
);
width = 258;
}
);
leftKerningGroup = b;
note = l;
unicode = 006C;
},
{
glyphname = m;
layers = (
{
layerId = "CFFEBDE4-599A-46B2-9328-D96E42CD9C81";
paths = (
{
closed = 1;
nodes = (
"621 546 OFFCURVE",
"528 502 OFFCURVE",
"501 456 QCURVE",
"496 456 LINE",
"458 546 OFFCURVE",
"332 546 QCURVE SMOOTH",
"284 546 OFFCURVE",
"199 505 OFFCURVE",
"174 463 QCURVE",
"169 463 LINE",
"156 536 LINE",
"85 536 LINE",
"85 0 LINE",
"173 0 LINE",
"173 278 LINE SMOOTH",
"173 372 OFFCURVE",
"235 472 OFFCURVE",
"316 472 QCURVE SMOOTH",
"426 472 OFFCURVE",
"426 345 QCURVE SMOOTH",
"426 0 LINE",
"513 0 LINE",
"513 296 LINE SMOOTH",
"513 382 OFFCURVE",
"580 472 OFFCURVE",
"658 472 QCURVE SMOOTH",
"767 472 OFFCURVE",
"767 345 QCURVE SMOOTH",
"767 0 LINE",
"854 0 LINE",
"854 349 LINE SMOOTH",
"854 453 OFFCURVE",
"764 546 OFFCURVE",
"673 546 QCURVE",
"673 546 LINE"
);
}
);
width = 935;
}
);
leftKerningGroup = m;
note = m;
rightKerningGroup = a;
unicode = 006D;
},
{
glyphname = n;
layers = (
{
layerId = "CFFEBDE4-599A-46B2-9328-D96E42CD9C81";
paths = (
{
closed = 1;
nodes = (
"292 546 OFFCURVE",
"200 505 OFFCURVE",
"174 463 QCURVE",
"169 463 LINE",
"156 536 LINE",
"85 536 LINE",
"85 0 LINE",
"173 0 LINE",
"173 278 LINE SMOOTH",
"173 372 OFFCURVE",
"241 472 OFFCURVE",
"330 472 QCURVE SMOOTH",
"450 472 OFFCURVE",
"450 343 QCURVE SMOOTH",
"450 0 LINE",
"537 0 LINE",
"537 349 LINE SMOOTH",
"537 453 OFFCURVE",
"439 546 OFFCURVE",
"343 546 QCURVE",
"343 546 LINE"
);
}
);
width = 618;
}
);
leftKerningGroup = m;
note = n;
rightKerningGroup = a;
unicode = 006E;
},
{
glyphname = o;
layers = (
{
layerId = "CFFEBDE4-599A-46B2-9328-D96E42CD9C81";
paths = (
{
closed = 1;
nodes = (
"551 358 OFFCURVE",
"488 481 OFFCURVE",
"377 546 OFFCURVE",
"304 546 QCURVE SMOOTH",
"189 546 OFFCURVE",
"55 402 OFFCURVE",
"55 269 QCURVE SMOOTH",
"55 180 OFFCURVE",
"119 55 OFFCURVE",
"230 -10 OFFCURVE",
"301 -10 QCURVE SMOOTH",
"416 -10 OFFCURVE",
"551 136 OFFCURVE",
"551 269 QCURVE",
"551 269 LINE"
);
},
{
closed = 1;
nodes = (
"146 364 OFFCURVE",
"220 472 OFFCURVE",
"302 472 QCURVE SMOOTH",
"384 472 OFFCURVE",
"460 364 OFFCURVE",
"460 269 QCURVE SMOOTH",
"460 174 OFFCURVE",
"384 63 OFFCURVE",
"303 63 QCURVE SMOOTH",
"221 63 OFFCURVE",
"146 174 OFFCURVE",
"146 269 QCURVE",
"146 269 LINE"
);
}
);
width = 605;
}
);
leftKerningGroup = c;
note = o;
rightKerningGroup = b;
unicode = 006F;
},
{
glyphname = p;
layers = (
{
layerId = "CFFEBDE4-599A-46B2-9328-D96E42CD9C81";
paths = (
{
closed = 1;
nodes = (
"275 546 OFFCURVE",
"197 498 OFFCURVE",
"173 463 QCURVE",
"169 463 LINE",
"157 536 LINE",
"85 536 LINE",
"85 -240 LINE",
"173 -240 LINE",
"173 -20 LINE SMOOTH",
"173 -1 OFFCURVE",
"169 51 OFFCURVE",
"167 68 QCURVE",
"173 68 LINE",
"196 37 OFFCURVE",
"277 -10 OFFCURVE",
"339 -10 QCURVE SMOOTH",
"439 -10 OFFCURVE",
"560 132 OFFCURVE",
"560 269 QCURVE SMOOTH",
"560 408 OFFCURVE",
"439 546 OFFCURVE",
"340 546 QCURVE",
"340 546 LINE"
);
},
{
closed = 1;
nodes = (
"398 472 OFFCURVE",
"469 362 OFFCURVE",
"469 270 QCURVE SMOOTH",
"469 210 OFFCURVE",
"438 117 OFFCURVE",
"375 63 OFFCURVE",
"326 63 QCURVE SMOOTH",
"238 63 OFFCURVE",
"173 170 OFFCURVE",
"173 269 QCURVE SMOOTH",
"173 286 LINE SMOOTH",
"175 380 OFFCURVE",
"242 472 OFFCURVE",
"324 472 QCURVE",
"324 472 LINE"
);
}
);
width = 615;
}
);
leftKerningGroup = m;
note = p;
rightKerningGroup = b;
unicode = 0070;
},
{
glyphname = q;
layers = (
{
layerId = "CFFEBDE4-599A-46B2-9328-D96E42CD9C81";
paths = (
{
closed = 1;
nodes = (
"530 -240 LINE",
"530 536 LINE",
"460 536 LINE",
"447 463 LINE",
"443 463 LINE",
"419 498 OFFCURVE",
"339 546 OFFCURVE",
"276 546 QCURVE SMOOTH",
"178 546 OFFCURVE",
"55 405 OFFCURVE",
"55 267 QCURVE SMOOTH",
"55 129 OFFCURVE",
"176 -10 OFFCURVE",
"273 -10 QCURVE SMOOTH",
"337 -10 OFFCURVE",
"418 38 OFFCURVE",
"441 72 QCURVE",
"447 72 LINE",
"444 55 OFFCURVE",
"442 7 OFFCURVE",
"442 -11 QCURVE SMOOTH",
"442 -240 LINE",
"442 -240 LINE"
);
},
{
closed = 1;
nodes = (
"217 63 OFFCURVE",
"146 170 OFFCURVE",
"146 265 QCURVE SMOOTH",
"146 360 OFFCURVE",
"216 473 OFFCURVE",
"288 473 QCURVE SMOOTH",
"375 473 OFFCURVE",
"443 368 OFFCURVE",
"443 266 QCURVE SMOOTH",
"443 248 LINE SMOOTH",
"442 154 OFFCURVE",
"373 63 OFFCURVE",
"290 63 QCURVE",
"290 63 LINE"
);
}
);
width = 615;
}
);
leftKerningGroup = c;
note = q;
unicode = 0071;
},
{
glyphname = r;
layers = (
{
layerId = "CFFEBDE4-599A-46B2-9328-D96E42CD9C81";
paths = (
{
closed = 1;
nodes = (
"279 546 OFFCURVE",
"197 482 OFFCURVE",
"171 438 QCURVE",
"167 438 LINE",
"157 536 LINE",
"85 536 LINE",
"85 0 LINE",
"173 0 LINE",
"173 286 LINE SMOOTH",
"173 340 OFFCURVE",
"216 421 OFFCURVE",
"288 466 OFFCURVE",
"329 466 QCURVE SMOOTH",
"343 466 OFFCURVE",
"374 462 OFFCURVE",
"387 459 QCURVE",
"398 540 LINE",
"385 543 OFFCURVE",
"350 546 OFFCURVE",
"335 546 QCURVE",
"335 546 LINE"
);
}
);
width = 413;
}
);
leftKerningGroup = m;
note = r;
rightKerningGroup = r;
unicode = 0072;
},
{
glyphname = s;
layers = (
{
layerId = "CFFEBDE4-599A-46B2-9328-D96E42CD9C81";
paths = (
{
closed = 1;
nodes = (
"434 191 OFFCURVE",
"396 248 OFFCURVE",
"324 288 OFFCURVE",
"273 307 QCURVE SMOOTH",
"222 327 OFFCURVE",
"161 356 OFFCURVE",
"135 387 OFFCURVE",
"135 409 QCURVE SMOOTH",
"135 439 OFFCURVE",
"192 474 OFFCURVE",
"246 474 QCURVE SMOOTH",
"285 474 OFFCURVE",
"359 454 OFFCURVE",
"393 440 QCURVE",
"423 510 LINE",
"386 527 OFFCURVE",
"301 546 OFFCURVE",
"252 546 QCURVE SMOOTH",
"162 546 OFFCURVE",
"51 472 OFFCURVE",
"51 404 QCURVE SMOOTH",
"51 360 OFFCURVE",
"91 304 OFFCURVE",
"165 264 OFFCURVE",
"217 244 QCURVE SMOOTH",
"270 224 OFFCURVE",
"327 192 OFFCURVE",
"349 160 OFFCURVE",
"349 140 QCURVE SMOOTH",
"349 104 OFFCURVE",
"289 61 OFFCURVE",
"222 61 QCURVE SMOOTH",
"175 61 OFFCURVE",
"84 88 OFFCURVE",
"52 104 QCURVE",
"52 24 LINE",
"83 8 OFFCURVE",
"164 -10 OFFCURVE",
"220 -10 QCURVE SMOOTH",
"318 -10 OFFCURVE",
"434 70 OFFCURVE",
"434 148 QCURVE",
"434 148 LINE"
);
}
);
width = 479;
}
);
leftKerningGroup = s;
note = s;
unicode = 0073;
},
{
glyphname = t;
layers = (
{
layerId = "CFFEBDE4-599A-46B2-9328-D96E42CD9C81";
paths = (
{
closed = 1;
nodes = (
"227 62 OFFCURVE",
"180 109 OFFCURVE",
"180 158 QCURVE SMOOTH",
"180 468 LINE",
"335 468 LINE",
"335 536 LINE",
"180 536 LINE",
"180 659 LINE",
"128 659 LINE",
"93 545 LINE",
"16 510 LINE",
"16 468 LINE",
"92 468 LINE",
"92 156 LINE SMOOTH",
"92 91 OFFCURVE",
"136 19 OFFCURVE",
"207 -10 OFFCURVE",
"249 -10 QCURVE SMOOTH",
"273 -10 OFFCURVE",
"325 -1 OFFCURVE",
"339 6 QCURVE",
"339 73 LINE",
"326 69 OFFCURVE",
"284 62 OFFCURVE",
"264 62 QCURVE",
"264 62 LINE"
);
}
);
width = 361;
}
);
leftKerningGroup = t;
note = t;
rightKerningGroup = t;
unicode = 0074;
},
{
glyphname = u;
layers = (
{
layerId = "CFFEBDE4-599A-46B2-9328-D96E42CD9C81";
paths = (
{
closed = 1;
nodes = (
"445 536 LINE",
"445 257 LINE SMOOTH",
"445 163 OFFCURVE",
"376 63 OFFCURVE",
"287 63 QCURVE SMOOTH",
"168 63 OFFCURVE",
"168 191 QCURVE SMOOTH",
"168 536 LINE",
"79 536 LINE",
"79 185 LINE SMOOTH",
"79 83 OFFCURVE",
"177 -10 OFFCURVE",
"274 -10 QCURVE SMOOTH",
"326 -10 OFFCURVE",
"418 29 OFFCURVE",
"444 71 QCURVE",
"448 71 LINE",
"461 0 LINE",
"533 0 LINE",
"533 536 LINE",
"533 536 LINE"
);
}
);
width = 618;
}
);
leftKerningGroup = m;
note = u;
unicode = 0075;
},
{
glyphname = v;
layers = (
{
layerId = "CFFEBDE4-599A-46B2-9328-D96E42CD9C81";
paths = (
{
closed = 1;
nodes = (
"304 0 LINE",
"508 536 LINE",
"414 536 LINE",
"300 220 LINE SMOOTH",
"293 199 OFFCURVE",
"274 145 OFFCURVE",
"259 95 OFFCURVE",
"255 78 QCURVE",
"251 78 LINE",
"248 95 OFFCURVE",
"234 144 OFFCURVE",
"216 198 OFFCURVE",
"208 220 QCURVE SMOOTH",
"94 536 LINE",
"0 536 LINE",
"203 0 LINE",
"203 0 LINE"
);
}
);
width = 508;
}
);
leftKerningGroup = v;
note = v;
rightKerningGroup = v;
unicode = 0076;
},
{
glyphname = w;
layers = (
{
layerId = "CFFEBDE4-599A-46B2-9328-D96E42CD9C81";
paths = (
{
closed = 1;
nodes = (
"626 1 LINE",
"775 537 LINE",
"685 537 LINE",
"610 251 LINE SMOOTH",
"598 205 OFFCURVE",
"577 117 OFFCURVE",
"574 92 QCURVE",
"570 92 LINE",
"566 121 OFFCURVE",
"545 201 OFFCURVE",
"534 235 QCURVE SMOOTH",
"442 537 LINE",
"346 537 LINE",
"251 235 LINE SMOOTH",
"244 213 OFFCURVE",
"230 158 OFFCURVE",
"219 108 OFFCURVE",
"215 91 QCURVE",
"211 91 LINE",
"207 120 OFFCURVE",
"187 208 OFFCURVE",
"176 251 QCURVE SMOOTH",
"102 537 LINE",
"11 537 LINE",
"158 1 LINE",
"258 1 LINE",
"354 302 LINE SMOOTH",
"368 344 OFFCURVE",
"386 423 OFFCURVE",
"390 445 QCURVE",
"394 445 LINE",
"399 423 OFFCURVE",
"418 344 OFFCURVE",
"431 303 QCURVE SMOOTH",
"523 1 LINE",
"523 1 LINE"
);
}
);
width = 786;
}
);
leftKerningGroup = v;
note = w;
rightKerningGroup = v;
unicode = 0077;
},
{
glyphname = x;
layers = (
{
layerId = "CFFEBDE4-599A-46B2-9328-D96E42CD9C81";
paths = (
{
closed = 1;
nodes = (
"18 0 LINE",
"117 0 LINE",
"265 214 LINE",
"411 0 LINE",
"511 0 LINE",
"316 274 LINE",
"501 536 LINE",
"402 536 LINE",
"265 334 LINE",
"127 536 LINE",
"27 536 LINE",
"212 274 LINE",
"212 274 LINE"
);
}
);
width = 529;
}
);
leftKerningGroup = v;
note = x;
rightKerningGroup = x;
unicode = 0078;
},
{
glyphname = y;
layers = (
{
layerId = "CFFEBDE4-599A-46B2-9328-D96E42CD9C81";
paths = (
{
closed = 1;
nodes = (
"217 -2 LINE",
"189 -73 LINE SMOOTH",
"173 -116 OFFCURVE",
"116 -168 OFFCURVE",
"70 -168 QCURVE SMOOTH",
"53 -168 OFFCURVE",
"22 -164 OFFCURVE",
"11 -162 QCURVE",
"11 -232 LINE",
"24 -235 OFFCURVE",
"60 -240 OFFCURVE",
"84 -240 QCURVE SMOOTH",
"162 -240 OFFCURVE",
"251 -150 OFFCURVE",
"279 -74 QCURVE SMOOTH",
"510 536 LINE",
"415 536 LINE",
"306 232 LINE SMOOTH",
"292 191 OFFCURVE",
"266 110 OFFCURVE",
"260 85 QCURVE",
"256 85 LINE",
"250 118 OFFCURVE",
"226 191 OFFCURVE",
"211 231 QCURVE SMOOTH",
"95 536 LINE",
"1 536 LINE",
"1 536 LINE"
);
}
);
width = 600;
}
);
leftKerningGroup = v;
note = y;
rightKerningGroup = v;
unicode = 0079;
},
{
glyphname = z;
layers = (
{
layerId = "CFFEBDE4-599A-46B2-9328-D96E42CD9C81";
paths = (
{
closed = 1;
nodes = (
"431 68 LINE",
"140 68 LINE",
"424 470 LINE",
"424 536 LINE",
"56 536 LINE",
"56 468 LINE",
"327 468 LINE",
"39 58 LINE",
"39 0 LINE",
"431 0 LINE",
"431 0 LINE"
);
}
);
width = 470;
}
);
leftKerningGroup = z;
note = z;
unicode = 007A;
},
{
glyphname = zero;
layers = (
{
layerId = "CFFEBDE4-599A-46B2-9328-D96E42CD9C81";
paths = (
{
closed = 1;
nodes = (
"523 532 OFFCURVE",
"405 725 OFFCURVE",
"285 725 QCURVE SMOOTH",
"200 725 OFFCURVE",
"96 638 OFFCURVE",
"49 474 OFFCURVE",
"49 358 QCURVE SMOOTH",
"49 185 OFFCURVE",
"164 -10 OFFCURVE",
"285 -10 QCURVE SMOOTH",
"371 -10 OFFCURVE",
"475 78 OFFCURVE",
"523 243 OFFCURVE",
"523 358 QCURVE",
"523 358 LINE"
);
},
{
closed = 1;
nodes = (
"137 504 OFFCURVE",
"204 650 OFFCURVE",
"285 650 QCURVE SMOOTH",
"365 650 OFFCURVE",
"434 504 OFFCURVE",
"434 358 QCURVE SMOOTH",
"434 210 OFFCURVE",
"365 65 OFFCURVE",
"285 65 QCURVE SMOOTH",
"204 65 OFFCURVE",
"137 211 OFFCURVE",
"137 358 QCURVE",
"137 358 LINE"
);
}
);
width = 572;
}
);
note = zero;
unicode = 0030;
},
{
glyphname = one;
layers = (
{
layerId = "CFFEBDE4-599A-46B2-9328-D96E42CD9C81";
paths = (
{
closed = 1;
nodes = (
"355 714 LINE",
"282 714 LINE",
"89 564 LINE",
"135 505 LINE",
"211 567 LINE SMOOTH",
"231 584 OFFCURVE",
"257 606 OFFCURVE",
"273 622 QCURVE",
"271 594 OFFCURVE",
"269 542 OFFCURVE",
"269 499 QCURVE SMOOTH",
"269 0 LINE",
"355 0 LINE",
"355 0 LINE"
);
}
);
width = 572;
}
);
note = one;
unicode = 0031;
},
{
glyphname = two;
layers = (
{
layerId = "CFFEBDE4-599A-46B2-9328-D96E42CD9C81";
paths = (
{
closed = 1;
nodes = (
"520 80 LINE",
"159 80 LINE",
"159 84 LINE",
"308 231 LINE SMOOTH",
"363 285 OFFCURVE",
"445 380 OFFCURVE",
"491 478 OFFCURVE",
"491 534 QCURVE SMOOTH",
"491 623 OFFCURVE",
"375 724 OFFCURVE",
"275 724 QCURVE SMOOTH",
"207 724 OFFCURVE",
"98 675 OFFCURVE",
"56 640 QCURVE",
"103 581 LINE",
"144 613 OFFCURVE",
"223 649 OFFCURVE",
"275 649 QCURVE SMOOTH",
"331 649 OFFCURVE",
"401 588 OFFCURVE",
"401 529 QCURVE SMOOTH",
"401 481 OFFCURVE",
"363 400 OFFCURVE",
"289 316 OFFCURVE",
"235 262 QCURVE SMOOTH",
"48 73 LINE",
"48 0 LINE",
"520 0 LINE",
"520 0 LINE"
);
}
);
width = 572;
}
);
note = two;
unicode = 0032;
},
{
glyphname = three;
layers = (
{
layerId = "CFFEBDE4-599A-46B2-9328-D96E42CD9C81";
paths = (
{
closed = 1;
nodes = (
"493 624 OFFCURVE",
"384 724 OFFCURVE",
"272 724 QCURVE SMOOTH",
"200 724 OFFCURVE",
"87 680 OFFCURVE",
"49 650 QCURVE",
"93 590 LINE",
"133 616 OFFCURVE",
"215 650 OFFCURVE",
"273 650 QCURVE SMOOTH",
"333 650 OFFCURVE",
"403 593 OFFCURVE",
"403 541 QCURVE SMOOTH",
"403 480 OFFCURVE",
"312 406 OFFCURVE",
"224 406 QCURVE SMOOTH",
"154 406 LINE",
"154 331 LINE",
"223 331 LINE SMOOTH",
"318 331 OFFCURVE",
"423 272 OFFCURVE",
"423 205 QCURVE SMOOTH",
"423 139 OFFCURVE",
"338 64 OFFCURVE",
"242 64 QCURVE SMOOTH",
"194 64 OFFCURVE",
"90 89 OFFCURVE",
"45 111 QCURVE",
"45 29 LINE",
"89 7 OFFCURVE",
"185 -10 OFFCURVE",
"241 -10 QCURVE SMOOTH",
"336 -10 OFFCURVE",
"457 44 OFFCURVE",
"515 141 OFFCURVE",
"515 203 QCURVE SMOOTH",
"515 274 OFFCURVE",
"431 362 OFFCURVE",
"345 372 QCURVE",
"345 376 LINE",
"413 390 OFFCURVE",
"493 475 OFFCURVE",
"493 547 QCURVE",
"493 547 LINE"
);
}
);
width = 572;
}
);
note = three;
unicode = 0033;
},
{
glyphname = four;
layers = (
{
layerId = "CFFEBDE4-599A-46B2-9328-D96E42CD9C81";
paths = (
{
closed = 1;
nodes = (
"552 241 LINE",
"448 241 LINE",
"448 718 LINE",
"357 718 LINE",
"21 237 LINE",
"21 162 LINE",
"363 162 LINE",
"363 0 LINE",
"448 0 LINE",
"448 162 LINE",
"552 162 LINE",
"552 162 LINE"
);
},
{
closed = 1;
nodes = (
"107 241 LINE",
"321 546 LINE SMOOTH",
"332 561 OFFCURVE",
"356 605 OFFCURVE",
"364 624 QCURVE",
"368 624 LINE",
"367 591 OFFCURVE",
"363 518 OFFCURVE",
"363 466 QCURVE SMOOTH",
"363 241 LINE",
"363 241 LINE"
);
}
);
width = 572;
}
);
note = four;
unicode = 0034;
},
{
glyphname = five;
layers = (
{
layerId = "CFFEBDE4-599A-46B2-9328-D96E42CD9C81";
paths = (
{
closed = 1;
nodes = (
"240 438 OFFCURVE",
"182 430 OFFCURVE",
"165 427 QCURVE",
"182 634 LINE",
"465 634 LINE",
"465 714 LINE",
"107 714 LINE",
"80 377 LINE",
"124 349 LINE",
"146 354 OFFCURVE",
"218 364 OFFCURVE",
"246 364 QCURVE SMOOTH",
"339 364 OFFCURVE",
"425 289 OFFCURVE",
"425 219 QCURVE SMOOTH",
"425 140 OFFCURVE",
"328 65 OFFCURVE",
"249 65 QCURVE SMOOTH",
"202 65 OFFCURVE",
"99 90 OFFCURVE",
"63 112 QCURVE",
"63 29 LINE",
"96 10 OFFCURVE",
"193 -10 OFFCURVE",
"248 -10 QCURVE SMOOTH",
"374 -10 OFFCURVE",
"515 117 OFFCURVE",
"515 228 QCURVE SMOOTH",
"515 328 OFFCURVE",
"385 438 OFFCURVE",
"275 438 QCURVE",
"275 438 LINE"
);
}
);
width = 572;
}
);
note = five;
unicode = 0035;
},
{
glyphname = six;
layers = (
{
layerId = "CFFEBDE4-599A-46B2-9328-D96E42CD9C81";
paths = (
{
closed = 1;
nodes = (
"55 198 OFFCURVE",
"120 58 OFFCURVE",
"230 -10 OFFCURVE",
"298 -10 QCURVE SMOOTH",
"402 -10 OFFCURVE",
"525 118 OFFCURVE",
"525 230 QCURVE SMOOTH",
"525 334 OFFCURVE",
"411 447 OFFCURVE",
"318 447 QCURVE SMOOTH",
"254 447 OFFCURVE",
"172 398 OFFCURVE",
"149 363 QCURVE",
"143 363 LINE",
"146 422 OFFCURVE",
"170 526 OFFCURVE",
"223 606 OFFCURVE",
"315 652 OFFCURVE",
"384 652 QCURVE SMOOTH",
"407 652 OFFCURVE",
"452 646 OFFCURVE",
"470 640 QCURVE",
"470 715 LINE",
"454 720 OFFCURVE",
"403 724 OFFCURVE",
"382 724 QCURVE SMOOTH",
"281 724 OFFCURVE",
"153 652 OFFCURVE",
"82 531 OFFCURVE",
"55 382 OFFCURVE",
"55 305 QCURVE",
"55 305 LINE"
);
},
{
closed = 1;
nodes = (
"246 64 OFFCURVE",
"178 119 OFFCURVE",
"144 204 OFFCURVE",
"144 247 QCURVE SMOOTH",
"144 279 OFFCURVE",
"183 339 OFFCURVE",
"253 378 OFFCURVE",
"300 378 QCURVE SMOOTH",
"369 378 OFFCURVE",
"438 298 OFFCURVE",
"438 230 QCURVE SMOOTH",
"438 145 OFFCURVE",
"360 64 OFFCURVE",
"297 64 QCURVE",
"297 64 LINE"
);
}
);
width = 572;
}
);
note = six;
unicode = 0036;
},
{
glyphname = seven;
layers = (
{
layerId = "CFFEBDE4-599A-46B2-9328-D96E42CD9C81";
paths = (
{
closed = 1;
nodes = (
"233 0 LINE",
"523 646 LINE",
"523 714 LINE",
"44 714 LINE",
"44 634 LINE",
"429 634 LINE",
"136 0 LINE",
"136 0 LINE"
);
}
);
width = 572;
}
);
note = seven;
unicode = 0037;
},
{
glyphname = eight;
layers = (
{
layerId = "CFFEBDE4-599A-46B2-9328-D96E42CD9C81";
paths = (
{
closed = 1;
nodes = (
"224 724 OFFCURVE",
"128 684 OFFCURVE",
"72 609 OFFCURVE",
"72 554 QCURVE SMOOTH",
"72 488 OFFCURVE",
"145 403 OFFCURVE",
"197 373 QCURVE",
"158 355 OFFCURVE",
"90 303 OFFCURVE",
"49 231 OFFCURVE",
"49 182 QCURVE SMOOTH",
"49 91 OFFCURVE",
"173 -10 OFFCURVE",
"288 -10 QCURVE SMOOTH",
"395 -10 OFFCURVE",
"522 95 OFFCURVE",
"522 185 QCURVE SMOOTH",
"522 234 OFFCURVE",
"479 304 OFFCURVE",
"407 357 OFFCURVE",
"363 378 QCURVE",
"400 397 OFFCURVE",
"462 446 OFFCURVE",
"499 510 OFFCURVE",
"499 553 QCURVE SMOOTH",
"499 636 OFFCURVE",
"379 724 OFFCURVE",
"285 724 QCURVE",
"285 724 LINE"
);
},
{
closed = 1;
nodes = (
"342 653 OFFCURVE",
"412 600 OFFCURVE",
"412 550 QCURVE SMOOTH",
"412 496 OFFCURVE",
"341 434 OFFCURVE",
"289 412 QCURVE",
"253 428 OFFCURVE",
"193 463 OFFCURVE",
"158 513 OFFCURVE",
"158 550 QCURVE SMOOTH",
"158 600 OFFCURVE",
"229 653 OFFCURVE",
"284 653 QCURVE",
"284 653 LINE"
);
},
{
closed = 1;
nodes = (
"135 236 OFFCURVE",
"204 309 OFFCURVE",
"270 337 QCURVE",
"286 331 LINE SMOOTH",
"354 305 OFFCURVE",
"436 236 OFFCURVE",
"436 184 QCURVE SMOOTH",
"436 129 OFFCURVE",
"359 60 OFFCURVE",
"286 60 QCURVE SMOOTH",
"209 60 OFFCURVE",
"135 129 OFFCURVE",
"135 181 QCURVE",
"135 181 LINE"
);
}
);
width = 572;
}
);
note = eight;
unicode = 0038;
},
{
glyphname = nine;
layers = (
{
layerId = "CFFEBDE4-599A-46B2-9328-D96E42CD9C81";
paths = (
{
closed = 1;
nodes = (
"520 516 OFFCURVE",
"456 655 OFFCURVE",
"346 724 OFFCURVE",
"278 724 QCURVE SMOOTH",
"209 724 OFFCURVE",
"107 666 OFFCURVE",
"50 558 OFFCURVE",
"50 483 QCURVE SMOOTH",
"50 380 OFFCURVE",
"163 267 OFFCURVE",
"255 267 QCURVE SMOOTH",
"320 267 OFFCURVE",
"403 316 OFFCURVE",
"425 350 QCURVE",
"431 350 LINE",
"429 292 OFFCURVE",
"405 187 OFFCURVE",
"351 108 OFFCURVE",
"260 62 OFFCURVE",
"190 62 QCURVE SMOOTH",
"141 62 OFFCURVE",
"102 75 QCURVE",
"102 0 LINE",
"119 -5 OFFCURVE",
"172 -10 OFFCURVE",
"192 -10 QCURVE SMOOTH",
"293 -10 OFFCURVE",
"422 62 OFFCURVE",
"493 183 OFFCURVE",
"520 332 OFFCURVE",
"520 409 QCURVE",
"520 409 LINE"
);
},
{
closed = 1;
nodes = (
"329 650 OFFCURVE",
"397 594 OFFCURVE",
"431 510 OFFCURVE",
"431 467 QCURVE SMOOTH",
"431 435 OFFCURVE",
"392 375 OFFCURVE",
"322 336 OFFCURVE",
"274 336 QCURVE SMOOTH",
"204 336 OFFCURVE",
"137 415 OFFCURVE",
"137 484 QCURVE SMOOTH",
"137 568 OFFCURVE",
"216 650 OFFCURVE",
"278 650 QCURVE",
"278 650 LINE"
);
}
);
width = 572;
}
);
note = nine;
unicode = 0039;
},
{
glyphname = period;
layers = (
{
layerId = "CFFEBDE4-599A-46B2-9328-D96E42CD9C81";
paths = (
{
closed = 1;
nodes = (
"72 18 OFFCURVE",
"108 -14 OFFCURVE",
"133 -14 QCURVE SMOOTH",
"159 -14 OFFCURVE",
"196 18 OFFCURVE",
"196 54 QCURVE SMOOTH",
"196 91 OFFCURVE",
"159 121 OFFCURVE",
"133 121 QCURVE SMOOTH",
"108 121 OFFCURVE",
"72 91 OFFCURVE",
"72 54 QCURVE",
"72 54 LINE"
);
}
);
width = 268;
}
);
leftKerningGroup = comma;
note = period;
rightKerningGroup = comma;
unicode = 002E;
},
{
glyphname = comma;
layers = (
{
layerId = "CFFEBDE4-599A-46B2-9328-D96E42CD9C81";
paths = (
{
closed = 1;
nodes = (
"91 116 LINE",
"84 64 OFFCURVE",
"55 -72 OFFCURVE",
"41 -129 QCURVE",
"106 -129 LINE",
"130 -75 OFFCURVE",
"179 52 OFFCURVE",
"192 105 QCURVE",
"185 116 LINE",
"185 116 LINE"
);
}
);
width = 268;
}
);
leftKerningGroup = comma;
note = comma;
rightKerningGroup = comma;
unicode = 002C;
},
{
glyphname = hyphen;
layers = (
{
layerId = "CFFEBDE4-599A-46B2-9328-D96E42CD9C81";
paths = (
{
closed = 1;
nodes = (
"282 229 LINE",
"282 307 LINE",
"40 307 LINE",
"40 229 LINE",
"40 229 LINE"
);
}
);
width = 322;
}
);
leftKerningGroup = hyphen;
note = hyphen;
rightKerningGroup = hyphen;
unicode = 002D;
},
{
glyphname = .notdef;
lastChange = "2020-01-07 18:40:50 +0000";
layers = (
{
associatedMasterId = "CFFEBDE4-599A-46B2-9328-D96E42CD9C81";
layerId = "0A718E2F-231D-484E-9433-16A5230D2CE8";
name = Bold;
paths = (
{
closed = 1;
nodes = (
"496 0 LINE",
"496 714 LINE",
"85 714 LINE",
"85 0 LINE"
);
},
{
closed = 1;
nodes = (
"136 663 LINE",
"445 663 LINE",
"445 51 LINE",
"136 51 LINE"
);
}
);
width = 582;
},
{
associatedMasterId = "CFFEBDE4-599A-46B2-9328-D96E42CD9C81";
layerId = "98E204A9-1C79-49C7-AB3E-40A925F56409";
name = "Bold Condensed";
paths = (
{
closed = 1;
nodes = (
"496 0 LINE",
"496 714 LINE",
"85 714 LINE",
"85 0 LINE"
);
},
{
closed = 1;
nodes = (
"136 663 LINE",
"445 663 LINE",
"445 51 LINE",
"136 51 LINE"
);
}
);
width = 582;
},
{
associatedMasterId = "CFFEBDE4-599A-46B2-9328-D96E42CD9C81";
layerId = "9FF96064-8718-4A86-A5C8-73C592101F67";
name = Regular;
paths = (
{
closed = 1;
nodes = (
"505 0 LINE",
"505 714 LINE",
"94 714 LINE",
"94 0 LINE"
);
},
{
closed = 1;
nodes = (
"145 663 LINE",
"454 663 LINE",
"454 51 LINE",
"145 51 LINE"
);
}
);
width = 600;
},
{
associatedMasterId = "CFFEBDE4-599A-46B2-9328-D96E42CD9C81";
layerId = "134B12F2-BF5D-48E3-8003-C7502B438C7E";
name = SemiBold;
paths = (
{
closed = 1;
nodes = (
"505 0 LINE",
"505 714 LINE",
"94 714 LINE",
"94 0 LINE"
);
},
{
closed = 1;
nodes = (
"145 663 LINE",
"454 663 LINE",
"454 51 LINE",
"145 51 LINE"
);
}
);
width = 600;
},
{
associatedMasterId = "CFFEBDE4-599A-46B2-9328-D96E42CD9C81";
layerId = "36F3C8CB-53EE-4548-BFDE-2C03212BACAA";
name = Condensed;
paths = (
{
closed = 1;
nodes = (
"496 0 LINE",
"496 714 LINE",
"85 714 LINE",
"85 0 LINE"
);
},
{
closed = 1;
nodes = (
"136 663 LINE",
"445 663 LINE",
"445 51 LINE",
"136 51 LINE"
);
}
);
width = 595;
},
{
associatedMasterId = "CFFEBDE4-599A-46B2-9328-D96E42CD9C81";
layerId = "43B45EC1-5522-4B1A-B0C7-88628E50A583";
name = "SemiBold Condensed";
paths = (
{
closed = 1;
nodes = (
"496 0 LINE",
"496 714 LINE",
"85 714 LINE",
"85 0 LINE"
);
},
{
closed = 1;
nodes = (
"136 663 LINE",
"445 663 LINE",
"445 51 LINE",
"136 51 LINE"
);
}
);
width = 587;
},
{
layerId = "CFFEBDE4-599A-46B2-9328-D96E42CD9C81";
paths = (
{
closed = 1;
nodes = (
"505 0 LINE",
"505 714 LINE",
"94 714 LINE",
"94 0 LINE",
"94 0 LINE"
);
},
{
closed = 1;
nodes = (
"145 663 LINE",
"454 663 LINE",
"454 51 LINE",
"145 51 LINE",
"145 51 LINE"
);
}
);
userData = {
assembly = "NPUSHB[ ]	/* 39 values pushed */\0120 0 0 3 2 0 3 103 0 2 1 1 2 87 0 2 2 1 95 4 1 1 2 1 79 0 0 7 6 5 4 0 3 0 3 17 5 6 23 \012CALL[ ]	/* CallFunction */";
};
width = 600;
},
{
associatedMasterId = "CFFEBDE4-599A-46B2-9328-D96E42CD9C81";
layerId = "029FEF0C-5FA4-4A3E-AC23-838A1147A554";
name = "Light Condensed";
paths = (
{
closed = 1;
nodes = (
"496 0 LINE",
"496 714 LINE",
"85 714 LINE",
"85 0 LINE"
);
},
{
closed = 1;
nodes = (
"136 663 LINE",
"445 663 LINE",
"445 51 LINE",
"136 51 LINE"
);
}
);
width = 600;
},
{
associatedMasterId = "CFFEBDE4-599A-46B2-9328-D96E42CD9C81";
layerId = "6CD3EE05-C8AD-47E9-A0AE-B645441B0163";
name = Regular;
paths = (
{
closed = 1;
nodes = (
"496 0 LINE",
"496 714 LINE",
"85 714 LINE",
"85 0 LINE"
);
},
{
closed = 1;
nodes = (
"136 663 LINE",
"445 663 LINE",
"445 51 LINE",
"136 51 LINE"
);
}
);
width = 582;
},
{
associatedMasterId = "CFFEBDE4-599A-46B2-9328-D96E42CD9C81";
layerId = "4BA813F0-6E24-42D1-9A84-D42DCF76A6FD";
name = Regular;
paths = (
{
closed = 1;
nodes = (
"496 0 LINE",
"496 714 LINE",
"85 714 LINE",
"85 0 LINE"
);
},
{
closed = 1;
nodes = (
"136 663 LINE",
"445 663 LINE",
"445 51 LINE",
"136 51 LINE"
);
}
);
width = 582;
},
{
associatedMasterId = "CFFEBDE4-599A-46B2-9328-D96E42CD9C81";
layerId = "11C7202F-BDE1-4540-9196-841830120CA8";
name = Regular;
paths = (
{
closed = 1;
nodes = (
"505 0 LINE",
"505 714 LINE",
"94 714 LINE",
"94 0 LINE"
);
},
{
closed = 1;
nodes = (
"145 663 LINE",
"454 663 LINE",
"454 51 LINE",
"145 51 LINE"
);
}
);
width = 600;
},
{
associatedMasterId = "CFFEBDE4-599A-46B2-9328-D96E42CD9C81";
layerId = "5D16F8A9-2BA9-47A0-99C6-C9F3EBB274A0";
name = Regular;
paths = (
{
closed = 1;
nodes = (
"505 0 LINE",
"505 714 LINE",
"94 714 LINE",
"94 0 LINE"
);
},
{
closed = 1;
nodes = (
"145 663 LINE",
"454 663 LINE",
"454 51 LINE",
"145 51 LINE"
);
}
);
width = 600;
},
{
associatedMasterId = "CFFEBDE4-599A-46B2-9328-D96E42CD9C81";
layerId = "444C4D7B-BB42-46E5-A210-3251DB2C5DF7";
name = Regular;
paths = (
{
closed = 1;
nodes = (
"496 0 LINE",
"496 714 LINE",
"85 714 LINE",
"85 0 LINE"
);
},
{
closed = 1;
nodes = (
"136 663 LINE",
"445 663 LINE",
"445 51 LINE",
"136 51 LINE"
);
}
);
width = 595;
},
{
associatedMasterId = "CFFEBDE4-599A-46B2-9328-D96E42CD9C81";
layerId = "D00C89AE-1924-40D7-BCB8-50F6B6FF00C9";
name = Regular;
paths = (
{
closed = 1;
nodes = (
"496 0 LINE",
"496 714 LINE",
"85 714 LINE",
"85 0 LINE"
);
},
{
closed = 1;
nodes = (
"136 663 LINE",
"445 663 LINE",
"445 51 LINE",
"136 51 LINE"
);
}
);
width = 587;
},
{
associatedMasterId = "CFFEBDE4-599A-46B2-9328-D96E42CD9C81";
layerId = "0C04772A-F31D-4E86-90EF-3402D1EA39CA";
name = Regular;
paths = (
{
closed = 1;
nodes = (
"505 0 LINE",
"505 714 LINE",
"94 714 LINE",
"94 0 LINE"
);
},
{
closed = 1;
nodes = (
"145 663 LINE",
"454 663 LINE",
"454 51 LINE",
"145 51 LINE"
);
}
);
width = 600;
},
{
associatedMasterId = "CFFEBDE4-599A-46B2-9328-D96E42CD9C81";
layerId = "E44A1C33-4DA7-464B-9CD1-E803182C2B8E";
name = Regular;
paths = (
{
closed = 1;
nodes = (
"496 0 LINE",
"496 714 LINE",
"85 714 LINE",
"85 0 LINE"
);
},
{
closed = 1;
nodes = (
"136 663 LINE",
"445 663 LINE",
"445 51 LINE",
"136 51 LINE"
);
}
);
width = 600;
},
{
associatedMasterId = "CFFEBDE4-599A-46B2-9328-D96E42CD9C81";
layerId = "6CD769E4-BA55-4180-AEEB-BBFB0FE71E60";
name = SemiBold;
paths = (
{
closed = 1;
nodes = (
"496 0 LINE",
"496 714 LINE",
"85 714 LINE",
"85 0 LINE"
);
},
{
closed = 1;
nodes = (
"136 663 LINE",
"445 663 LINE",
"445 51 LINE",
"136 51 LINE"
);
}
);
width = 582;
},
{
associatedMasterId = "CFFEBDE4-599A-46B2-9328-D96E42CD9C81";
layerId = "B72AC865-DCE2-4021-9F6A-E52C2F7C36C3";
name = SemiBold;
paths = (
{
closed = 1;
nodes = (
"496 0 LINE",
"496 714 LINE",
"85 714 LINE",
"85 0 LINE"
);
},
{
closed = 1;
nodes = (
"136 663 LINE",
"445 663 LINE",
"445 51 LINE",
"136 51 LINE"
);
}
);
width = 582;
},
{
associatedMasterId = "CFFEBDE4-599A-46B2-9328-D96E42CD9C81";
layerId = "73144C29-A3E1-435F-A101-12EB16795B90";
name = SemiBold;
paths = (
{
closed = 1;
nodes = (
"505 0 LINE",
"505 714 LINE",
"94 714 LINE",
"94 0 LINE"
);
},
{
closed = 1;
nodes = (
"145 663 LINE",
"454 663 LINE",
"454 51 LINE",
"145 51 LINE"
);
}
);
width = 600;
},
{
associatedMasterId = "CFFEBDE4-599A-46B2-9328-D96E42CD9C81";
layerId = "18CF4588-85AB-4745-818C-09CE36B775D2";
name = SemiBold;
paths = (
{
closed = 1;
nodes = (
"505 0 LINE",
"505 714 LINE",
"94 714 LINE",
"94 0 LINE"
);
},
{
closed = 1;
nodes = (
"145 663 LINE",
"454 663 LINE",
"454 51 LINE",
"145 51 LINE"
);
}
);
width = 600;
},
{
associatedMasterId = "CFFEBDE4-599A-46B2-9328-D96E42CD9C81";
layerId = "686EB0C4-EABE-4AD7-86BC-00ECD1BF7E9E";
name = SemiBold;
paths = (
{
closed = 1;
nodes = (
"496 0 LINE",
"496 714 LINE",
"85 714 LINE",
"85 0 LINE"
);
},
{
closed = 1;
nodes = (
"136 663 LINE",
"445 663 LINE",
"445 51 LINE",
"136 51 LINE"
);
}
);
width = 595;
},
{
associatedMasterId = "CFFEBDE4-599A-46B2-9328-D96E42CD9C81";
layerId = "E5BC6AAC-6572-4494-8CA4-C3D39E7EACEC";
name = SemiBold;
paths = (
{
closed = 1;
nodes = (
"496 0 LINE",
"496 714 LINE",
"85 714 LINE",
"85 0 LINE"
);
},
{
closed = 1;
nodes = (
"136 663 LINE",
"445 663 LINE",
"445 51 LINE",
"136 51 LINE"
);
}
);
width = 587;
},
{
associatedMasterId = "CFFEBDE4-599A-46B2-9328-D96E42CD9C81";
layerId = "206B8059-80C9-426C-870D-7DCC5D63B771";
name = SemiBold;
paths = (
{
closed = 1;
nodes = (
"505 0 LINE",
"505 714 LINE",
"94 714 LINE",
"94 0 LINE"
);
},
{
closed = 1;
nodes = (
"145 663 LINE",
"454 663 LINE",
"454 51 LINE",
"145 51 LINE"
);
}
);
width = 600;
},
{
associatedMasterId = "CFFEBDE4-599A-46B2-9328-D96E42CD9C81";
layerId = "8CA70734-D081-4BD8-AD2F-7C5E13D31257";
name = SemiBold;
paths = (
{
closed = 1;
nodes = (
"496 0 LINE",
"496 714 LINE",
"85 714 LINE",
"85 0 LINE"
);
},
{
closed = 1;
nodes = (
"136 663 LINE",
"445 663 LINE",
"445 51 LINE",
"136 51 LINE"
);
}
);
width = 600;
},
{
associatedMasterId = "CFFEBDE4-599A-46B2-9328-D96E42CD9C81";
layerId = "6D228CAF-D3D7-4333-A99C-26716E667E2A";
name = Bold;
paths = (
{
closed = 1;
nodes = (
"496 0 LINE",
"496 714 LINE",
"85 714 LINE",
"85 0 LINE"
);
},
{
closed = 1;
nodes = (
"136 663 LINE",
"445 663 LINE",
"445 51 LINE",
"136 51 LINE"
);
}
);
width = 582;
},
{
associatedMasterId = "CFFEBDE4-599A-46B2-9328-D96E42CD9C81";
layerId = "0F275DA8-301B-4F20-BD77-158CA365DF6E";
name = Bold;
paths = (
{
closed = 1;
nodes = (
"496 0 LINE",
"496 714 LINE",
"85 714 LINE",
"85 0 LINE"
);
},
{
closed = 1;
nodes = (
"136 663 LINE",
"445 663 LINE",
"445 51 LINE",
"136 51 LINE"
);
}
);
width = 582;
},
{
associatedMasterId = "CFFEBDE4-599A-46B2-9328-D96E42CD9C81";
layerId = "D46BE755-DD9E-4EEB-B458-600115B36096";
name = Bold;
paths = (
{
closed = 1;
nodes = (
"505 0 LINE",
"505 714 LINE",
"94 714 LINE",
"94 0 LINE"
);
},
{
closed = 1;
nodes = (
"145 663 LINE",
"454 663 LINE",
"454 51 LINE",
"145 51 LINE"
);
}
);
width = 600;
},
{
associatedMasterId = "CFFEBDE4-599A-46B2-9328-D96E42CD9C81";
layerId = "7FE48EA0-3A2C-4D49-ABA4-E32E78AB57C1";
name = Bold;
paths = (
{
closed = 1;
nodes = (
"505 0 LINE",
"505 714 LINE",
"94 714 LINE",
"94 0 LINE"
);
},
{
closed = 1;
nodes = (
"145 663 LINE",
"454 663 LINE",
"454 51 LINE",
"145 51 LINE"
);
}
);
width = 600;
},
{
associatedMasterId = "CFFEBDE4-599A-46B2-9328-D96E42CD9C81";
layerId = "0C5F2DE2-4894-433A-AF78-14A7760305F4";
name = Bold;
paths = (
{
closed = 1;
nodes = (
"496 0 LINE",
"496 714 LINE",
"85 714 LINE",
"85 0 LINE"
);
},
{
closed = 1;
nodes = (
"136 663 LINE",
"445 663 LINE",
"445 51 LINE",
"136 51 LINE"
);
}
);
width = 595;
},
{
associatedMasterId = "CFFEBDE4-599A-46B2-9328-D96E42CD9C81";
layerId = "218C21A7-D612-4AB3-84F9-0D3A7F75CFA6";
name = Bold;
paths = (
{
closed = 1;
nodes = (
"496 0 LINE",
"496 714 LINE",
"85 714 LINE",
"85 0 LINE"
);
},
{
closed = 1;
nodes = (
"136 663 LINE",
"445 663 LINE",
"445 51 LINE",
"136 51 LINE"
);
}
);
width = 587;
},
{
associatedMasterId = "CFFEBDE4-599A-46B2-9328-D96E42CD9C81";
layerId = "3FB868F8-5CDC-4A46-BA32-95627737ABE0";
name = Bold;
paths = (
{
closed = 1;
nodes = (
"505 0 LINE",
"505 714 LINE",
"94 714 LINE",
"94 0 LINE"
);
},
{
closed = 1;
nodes = (
"145 663 LINE",
"454 663 LINE",
"454 51 LINE",
"145 51 LINE"
);
}
);
width = 600;
},
{
associatedMasterId = "CFFEBDE4-599A-46B2-9328-D96E42CD9C81";
layerId = "5BFF9FCA-B510-42EF-B974-4F4703A3DF37";
name = Bold;
paths = (
{
closed = 1;
nodes = (
"496 0 LINE",
"496 714 LINE",
"85 714 LINE",
"85 0 LINE"
);
},
{
closed = 1;
nodes = (
"136 663 LINE",
"445 663 LINE",
"445 51 LINE",
"136 51 LINE"
);
}
);
width = 600;
},
{
associatedMasterId = "CFFEBDE4-599A-46B2-9328-D96E42CD9C81";
layerId = "10F16149-C491-4EC1-A76D-4B0D82B949A8";
name = "Light Condensed";
paths = (
{
closed = 1;
nodes = (
"496 0 LINE",
"496 714 LINE",
"85 714 LINE",
"85 0 LINE"
);
},
{
closed = 1;
nodes = (
"136 663 LINE",
"445 663 LINE",
"445 51 LINE",
"136 51 LINE"
);
}
);
width = 582;
},
{
associatedMasterId = "CFFEBDE4-599A-46B2-9328-D96E42CD9C81";
layerId = "72186310-A4A1-43C8-93EC-DE7F7E0C04DC";
name = "Light Condensed";
paths = (
{
closed = 1;
nodes = (
"496 0 LINE",
"496 714 LINE",
"85 714 LINE",
"85 0 LINE"
);
},
{
closed = 1;
nodes = (
"136 663 LINE",
"445 663 LINE",
"445 51 LINE",
"136 51 LINE"
);
}
);
width = 582;
},
{
associatedMasterId = "CFFEBDE4-599A-46B2-9328-D96E42CD9C81";
layerId = "3AA2D878-A039-41E2-8382-305C1EBDDC14";
name = "Light Condensed";
paths = (
{
closed = 1;
nodes = (
"505 0 LINE",
"505 714 LINE",
"94 714 LINE",
"94 0 LINE"
);
},
{
closed = 1;
nodes = (
"145 663 LINE",
"454 663 LINE",
"454 51 LINE",
"145 51 LINE"
);
}
);
width = 600;
},
{
associatedMasterId = "CFFEBDE4-599A-46B2-9328-D96E42CD9C81";
layerId = "910244F3-C233-4E50-A821-AC6322E08668";
name = "Light Condensed";
paths = (
{
closed = 1;
nodes = (
"505 0 LINE",
"505 714 LINE",
"94 714 LINE",
"94 0 LINE"
);
},
{
closed = 1;
nodes = (
"145 663 LINE",
"454 663 LINE",
"454 51 LINE",
"145 51 LINE"
);
}
);
width = 600;
},
{
associatedMasterId = "CFFEBDE4-599A-46B2-9328-D96E42CD9C81";
layerId = "3D21177B-E83B-427F-9FBC-21300ED8A213";
name = "Light Condensed";
paths = (
{
closed = 1;
nodes = (
"496 0 LINE",
"496 714 LINE",
"85 714 LINE",
"85 0 LINE"
);
},
{
closed = 1;
nodes = (
"136 663 LINE",
"445 663 LINE",
"445 51 LINE",
"136 51 LINE"
);
}
);
width = 595;
},
{
associatedMasterId = "CFFEBDE4-599A-46B2-9328-D96E42CD9C81";
layerId = "4355EC66-3F59-4296-9F4C-72EC0B481B5D";
name = "Light Condensed";
paths = (
{
closed = 1;
nodes = (
"496 0 LINE",
"496 714 LINE",
"85 714 LINE",
"85 0 LINE"
);
},
{
closed = 1;
nodes = (
"136 663 LINE",
"445 663 LINE",
"445 51 LINE",
"136 51 LINE"
);
}
);
width = 587;
},
{
associatedMasterId = "CFFEBDE4-599A-46B2-9328-D96E42CD9C81";
layerId = "BD31AAF9-E65B-4A30-ACC0-7018B0C27C60";
name = "Light Condensed";
paths = (
{
closed = 1;
nodes = (
"505 0 LINE",
"505 714 LINE",
"94 714 LINE",
"94 0 LINE"
);
},
{
closed = 1;
nodes = (
"145 663 LINE",
"454 663 LINE",
"454 51 LINE",
"145 51 LINE"
);
}
);
width = 600;
},
{
associatedMasterId = "CFFEBDE4-599A-46B2-9328-D96E42CD9C81";
layerId = "D77228BB-6669-4F59-82EB-EFDED494D297";
name = "Light Condensed";
paths = (
{
closed = 1;
nodes = (
"496 0 LINE",
"496 714 LINE",
"85 714 LINE",
"85 0 LINE"
);
},
{
closed = 1;
nodes = (
"136 663 LINE",
"445 663 LINE",
"445 51 LINE",
"136 51 LINE"
);
}
);
width = 600;
},
{
associatedMasterId = "CFFEBDE4-599A-46B2-9328-D96E42CD9C81";
layerId = "81F4823B-D69E-4E11-86B2-52E1D1CABD54";
name = Condensed;
paths = (
{
closed = 1;
nodes = (
"496 0 LINE",
"496 714 LINE",
"85 714 LINE",
"85 0 LINE"
);
},
{
closed = 1;
nodes = (
"136 663 LINE",
"445 663 LINE",
"445 51 LINE",
"136 51 LINE"
);
}
);
width = 582;
},
{
associatedMasterId = "CFFEBDE4-599A-46B2-9328-D96E42CD9C81";
layerId = "1ACF29D9-9C6C-45FA-8C10-238DD2AA8ADF";
name = Condensed;
paths = (
{
closed = 1;
nodes = (
"496 0 LINE",
"496 714 LINE",
"85 714 LINE",
"85 0 LINE"
);
},
{
closed = 1;
nodes = (
"136 663 LINE",
"445 663 LINE",
"445 51 LINE",
"136 51 LINE"
);
}
);
width = 582;
},
{
associatedMasterId = "CFFEBDE4-599A-46B2-9328-D96E42CD9C81";
layerId = "A823C984-E080-4BD5-A1B6-02506CC81AD1";
name = Condensed;
paths = (
{
closed = 1;
nodes = (
"505 0 LINE",
"505 714 LINE",
"94 714 LINE",
"94 0 LINE"
);
},
{
closed = 1;
nodes = (
"145 663 LINE",
"454 663 LINE",
"454 51 LINE",
"145 51 LINE"
);
}
);
width = 600;
},
{
associatedMasterId = "CFFEBDE4-599A-46B2-9328-D96E42CD9C81";
layerId = "7C505BEE-2611-4A04-ABA0-64C0BA48336F";
name = Condensed;
paths = (
{
closed = 1;
nodes = (
"505 0 LINE",
"505 714 LINE",
"94 714 LINE",
"94 0 LINE"
);
},
{
closed = 1;
nodes = (
"145 663 LINE",
"454 663 LINE",
"454 51 LINE",
"145 51 LINE"
);
}
);
width = 600;
},
{
associatedMasterId = "CFFEBDE4-599A-46B2-9328-D96E42CD9C81";
layerId = "CFFC113C-B55C-44E0-A174-84F7BF124894";
name = Condensed;
paths = (
{
closed = 1;
nodes = (
"496 0 LINE",
"496 714 LINE",
"85 714 LINE",
"85 0 LINE"
);
},
{
closed = 1;
nodes = (
"136 663 LINE",
"445 663 LINE",
"445 51 LINE",
"136 51 LINE"
);
}
);
width = 595;
},
{
associatedMasterId = "CFFEBDE4-599A-46B2-9328-D96E42CD9C81";
layerId = "43D1030E-7459-4003-8CF9-EC0A1464FBD9";
name = Condensed;
paths = (
{
closed = 1;
nodes = (
"496 0 LINE",
"496 714 LINE",
"85 714 LINE",
"85 0 LINE"
);
},
{
closed = 1;
nodes = (
"136 663 LINE",
"445 663 LINE",
"445 51 LINE",
"136 51 LINE"
);
}
);
width = 587;
},
{
associatedMasterId = "CFFEBDE4-599A-46B2-9328-D96E42CD9C81";
layerId = "E193C3F6-581C-4255-BA06-39B2C55FEA85";
name = Condensed;
paths = (
{
closed = 1;
nodes = (
"505 0 LINE",
"505 714 LINE",
"94 714 LINE",
"94 0 LINE"
);
},
{
closed = 1;
nodes = (
"145 663 LINE",
"454 663 LINE",
"454 51 LINE",
"145 51 LINE"
);
}
);
width = 600;
},
{
associatedMasterId = "CFFEBDE4-599A-46B2-9328-D96E42CD9C81";
layerId = "BC1F2A7D-5C4C-489A-B80D-F8A78AA87396";
name = Condensed;
paths = (
{
closed = 1;
nodes = (
"496 0 LINE",
"496 714 LINE",
"85 714 LINE",
"85 0 LINE"
);
},
{
closed = 1;
nodes = (
"136 663 LINE",
"445 663 LINE",
"445 51 LINE",
"136 51 LINE"
);
}
);
width = 600;
},
{
associatedMasterId = "CFFEBDE4-599A-46B2-9328-D96E42CD9C81";
layerId = "4A97D365-134C-40CE-A1F4-ACEEDAC52A69";
name = Bold;
paths = (
{
closed = 1;
nodes = (
"496 0 LINE",
"496 714 LINE",
"85 714 LINE",
"85 0 LINE"
);
},
{
closed = 1;
nodes = (
"136 663 LINE",
"445 663 LINE",
"445 51 LINE",
"136 51 LINE"
);
}
);
width = 582;
},
{
associatedMasterId = "CFFEBDE4-599A-46B2-9328-D96E42CD9C81";
layerId = "E30ED5CA-5FDA-483A-B078-9F166668F082";
name = "Bold Condensed";
paths = (
{
closed = 1;
nodes = (
"496 0 LINE",
"496 714 LINE",
"85 714 LINE",
"85 0 LINE"
);
},
{
closed = 1;
nodes = (
"136 663 LINE",
"445 663 LINE",
"445 51 LINE",
"136 51 LINE"
);
}
);
width = 582;
},
{
associatedMasterId = "CFFEBDE4-599A-46B2-9328-D96E42CD9C81";
layerId = "5E9EB60B-4C02-4C45-9028-66D331043723";
name = Regular;
paths = (
{
closed = 1;
nodes = (
"505 0 LINE",
"505 714 LINE",
"94 714 LINE",
"94 0 LINE"
);
},
{
closed = 1;
nodes = (
"145 663 LINE",
"454 663 LINE",
"454 51 LINE",
"145 51 LINE"
);
}
);
width = 600;
},
{
associatedMasterId = "CFFEBDE4-599A-46B2-9328-D96E42CD9C81";
layerId = "CF4745A3-289E-483C-9D08-2C2CDA3793CE";
name = SemiBold;
paths = (
{
closed = 1;
nodes = (
"505 0 LINE",
"505 714 LINE",
"94 714 LINE",
"94 0 LINE"
);
},
{
closed = 1;
nodes = (
"145 663 LINE",
"454 663 LINE",
"454 51 LINE",
"145 51 LINE"
);
}
);
width = 600;
},
{
associatedMasterId = "CFFEBDE4-599A-46B2-9328-D96E42CD9C81";
layerId = "0007F7B2-5B0D-4ECF-8993-9E445AE70882";
name = Condensed;
paths = (
{
closed = 1;
nodes = (
"496 0 LINE",
"496 714 LINE",
"85 714 LINE",
"85 0 LINE"
);
},
{
closed = 1;
nodes = (
"136 663 LINE",
"445 663 LINE",
"445 51 LINE",
"136 51 LINE"
);
}
);
width = 595;
},
{
associatedMasterId = "CFFEBDE4-599A-46B2-9328-D96E42CD9C81";
layerId = "A6240D38-CEDA-4780-B12F-EAC7EDB843D9";
name = "SemiBold Condensed";
paths = (
{
closed = 1;
nodes = (
"496 0 LINE",
"496 714 LINE",
"85 714 LINE",
"85 0 LINE"
);
},
{
closed = 1;
nodes = (
"136 663 LINE",
"445 663 LINE",
"445 51 LINE",
"136 51 LINE"
);
}
);
width = 587;
},
{
associatedMasterId = "CFFEBDE4-599A-46B2-9328-D96E42CD9C81";
layerId = "79A278C6-3EFA-4DDB-B984-DD1D15CE97C9";
name = "Light Condensed";
paths = (
{
closed = 1;
nodes = (
"496 0 LINE",
"496 714 LINE",
"85 714 LINE",
"85 0 LINE"
);
},
{
closed = 1;
nodes = (
"136 663 LINE",
"445 663 LINE",
"445 51 LINE",
"136 51 LINE"
);
}
);
width = 600;
},
{
associatedMasterId = "CFFEBDE4-599A-46B2-9328-D96E42CD9C81";
layerId = "0F2AC913-770D-4B71-A4B9-DFCE7D340767";
name = "SemiBold Condensed";
paths = (
{
closed = 1;
nodes = (
"496 0 LINE",
"496 714 LINE",
"85 714 LINE",
"85 0 LINE"
);
},
{
closed = 1;
nodes = (
"136 663 LINE",
"445 663 LINE",
"445 51 LINE",
"136 51 LINE"
);
}
);
width = 582;
},
{
associatedMasterId = "CFFEBDE4-599A-46B2-9328-D96E42CD9C81";
layerId = "5818F93F-12B0-43EF-AE07-DE875336F2D3";
name = "SemiBold Condensed";
paths = (
{
closed = 1;
nodes = (
"496 0 LINE",
"496 714 LINE",
"85 714 LINE",
"85 0 LINE"
);
},
{
closed = 1;
nodes = (
"136 663 LINE",
"445 663 LINE",
"445 51 LINE",
"136 51 LINE"
);
}
);
width = 582;
},
{
associatedMasterId = "CFFEBDE4-599A-46B2-9328-D96E42CD9C81";
layerId = "69A75AA9-C824-4690-AF06-368352D8C4A0";
name = "SemiBold Condensed";
paths = (
{
closed = 1;
nodes = (
"505 0 LINE",
"505 714 LINE",
"94 714 LINE",
"94 0 LINE"
);
},
{
closed = 1;
nodes = (
"145 663 LINE",
"454 663 LINE",
"454 51 LINE",
"145 51 LINE"
);
}
);
width = 600;
},
{
associatedMasterId = "CFFEBDE4-599A-46B2-9328-D96E42CD9C81";
layerId = "0659F8A8-1CA7-437A-8862-AFE6849E1BC8";
name = "SemiBold Condensed";
paths = (
{
closed = 1;
nodes = (
"505 0 LINE",
"505 714 LINE",
"94 714 LINE",
"94 0 LINE"
);
},
{
closed = 1;
nodes = (
"145 663 LINE",
"454 663 LINE",
"454 51 LINE",
"145 51 LINE"
);
}
);
width = 600;
},
{
associatedMasterId = "CFFEBDE4-599A-46B2-9328-D96E42CD9C81";
layerId = "9849390B-0D5D-419F-BBF7-4CB8DF1108F4";
name = "SemiBold Condensed";
paths = (
{
closed = 1;
nodes = (
"496 0 LINE",
"496 714 LINE",
"85 714 LINE",
"85 0 LINE"
);
},
{
closed = 1;
nodes = (
"136 663 LINE",
"445 663 LINE",
"445 51 LINE",
"136 51 LINE"
);
}
);
width = 595;
},
{
associatedMasterId = "CFFEBDE4-599A-46B2-9328-D96E42CD9C81";
layerId = "435372D3-A5C6-4F91-8D68-18D24F2DC602";
name = "SemiBold Condensed";
paths = (
{
closed = 1;
nodes = (
"496 0 LINE",
"496 714 LINE",
"85 714 LINE",
"85 0 LINE"
);
},
{
closed = 1;
nodes = (
"136 663 LINE",
"445 663 LINE",
"445 51 LINE",
"136 51 LINE"
);
}
);
width = 587;
},
{
associatedMasterId = "CFFEBDE4-599A-46B2-9328-D96E42CD9C81";
layerId = "4D9C3FAB-40EB-4CCF-A752-6D6FE9920038";
name = "SemiBold Condensed";
paths = (
{
closed = 1;
nodes = (
"505 0 LINE",
"505 714 LINE",
"94 714 LINE",
"94 0 LINE"
);
},
{
closed = 1;
nodes = (
"145 663 LINE",
"454 663 LINE",
"454 51 LINE",
"145 51 LINE"
);
}
);
width = 600;
},
{
associatedMasterId = "CFFEBDE4-599A-46B2-9328-D96E42CD9C81";
layerId = "AFC07936-CFE6-40C4-A927-1C79F0D571B9";
name = "SemiBold Condensed";
paths = (
{
closed = 1;
nodes = (
"496 0 LINE",
"496 714 LINE",
"85 714 LINE",
"85 0 LINE"
);
},
{
closed = 1;
nodes = (
"136 663 LINE",
"445 663 LINE",
"445 51 LINE",
"136 51 LINE"
);
}
);
width = 600;
},
{
associatedMasterId = "CFFEBDE4-599A-46B2-9328-D96E42CD9C81";
layerId = "3DB921F2-2B03-4BC4-8509-8FCD7A6F784E";
name = "Bold Condensed";
paths = (
{
closed = 1;
nodes = (
"496 0 LINE",
"496 714 LINE",
"85 714 LINE",
"85 0 LINE"
);
},
{
closed = 1;
nodes = (
"136 663 LINE",
"445 663 LINE",
"445 51 LINE",
"136 51 LINE"
);
}
);
width = 582;
},
{
associatedMasterId = "CFFEBDE4-599A-46B2-9328-D96E42CD9C81";
layerId = "2F2377A1-11C3-41B6-919D-D55F8AA75D07";
name = "Bold Condensed";
paths = (
{
closed = 1;
nodes = (
"496 0 LINE",
"496 714 LINE",
"85 714 LINE",
"85 0 LINE"
);
},
{
closed = 1;
nodes = (
"136 663 LINE",
"445 663 LINE",
"445 51 LINE",
"136 51 LINE"
);
}
);
width = 582;
},
{
associatedMasterId = "CFFEBDE4-599A-46B2-9328-D96E42CD9C81";
layerId = "18EFA2A5-94BA-44A1-8C61-68BF4E401414";
name = "Bold Condensed";
paths = (
{
closed = 1;
nodes = (
"505 0 LINE",
"505 714 LINE",
"94 714 LINE",
"94 0 LINE"
);
},
{
closed = 1;
nodes = (
"145 663 LINE",
"454 663 LINE",
"454 51 LINE",
"145 51 LINE"
);
}
);
width = 600;
},
{
associatedMasterId = "CFFEBDE4-599A-46B2-9328-D96E42CD9C81";
layerId = "9E2FF5C0-3F8B-4CDD-8C0B-518BB51B0C53";
name = "Bold Condensed";
paths = (
{
closed = 1;
nodes = (
"505 0 LINE",
"505 714 LINE",
"94 714 LINE",
"94 0 LINE"
);
},
{
closed = 1;
nodes = (
"145 663 LINE",
"454 663 LINE",
"454 51 LINE",
"145 51 LINE"
);
}
);
width = 600;
},
{
associatedMasterId = "CFFEBDE4-599A-46B2-9328-D96E42CD9C81";
layerId = "49C7FBBB-5D49-485A-90F5-A2972E78A97C";
name = "Bold Condensed";
paths = (
{
closed = 1;
nodes = (
"496 0 LINE",
"496 714 LINE",
"85 714 LINE",
"85 0 LINE"
);
},
{
closed = 1;
nodes = (
"136 663 LINE",
"445 663 LINE",
"445 51 LINE",
"136 51 LINE"
);
}
);
width = 595;
},
{
associatedMasterId = "CFFEBDE4-599A-46B2-9328-D96E42CD9C81";
layerId = "42E87011-FEDB-43C8-99A4-706BFF7CA79F";
name = "Bold Condensed";
paths = (
{
closed = 1;
nodes = (
"496 0 LINE",
"496 714 LINE",
"85 714 LINE",
"85 0 LINE"
);
},
{
closed = 1;
nodes = (
"136 663 LINE",
"445 663 LINE",
"445 51 LINE",
"136 51 LINE"
);
}
);
width = 587;
},
{
associatedMasterId = "CFFEBDE4-599A-46B2-9328-D96E42CD9C81";
layerId = "AD6F6DAA-2D58-4E1D-98AF-ACAAF76D7B9E";
name = "Bold Condensed";
paths = (
{
closed = 1;
nodes = (
"505 0 LINE",
"505 714 LINE",
"94 714 LINE",
"94 0 LINE"
);
},
{
closed = 1;
nodes = (
"145 663 LINE",
"454 663 LINE",
"454 51 LINE",
"145 51 LINE"
);
}
);
width = 600;
},
{
associatedMasterId = "CFFEBDE4-599A-46B2-9328-D96E42CD9C81";
layerId = "001EDBC9-3154-4441-98CE-7D8995D9200E";
name = "Bold Condensed";
paths = (
{
closed = 1;
nodes = (
"496 0 LINE",
"496 714 LINE",
"85 714 LINE",
"85 0 LINE"
);
},
{
closed = 1;
nodes = (
"136 663 LINE",
"445 663 LINE",
"445 51 LINE",
"136 51 LINE"
);
}
);
width = 600;
}
);
note = .notdef;
},
{
glyphname = u1B170;
lastChange = "2020-01-15 16:47:23 +0000";
layers = (
{
layerId = "CFFEBDE4-599A-46B2-9328-D96E42CD9C81";
paths = (
{
closed = 1;
nodes = (
"368 968 OFFCURVE",
"377 863 OFFCURVE",
"377 710 CURVE SMOOTH",
"377 266 OFFCURVE",
"273 -24 OFFCURVE",
"27 -268 CURVE",
"87 -325 LINE",
"352 -67 OFFCURVE",
"463 250 OFFCURVE",
"463 719 CURVE SMOOTH",
"463 863 OFFCURVE",
"454 968 OFFCURVE",
"443 1069 CURVE",
"357 1069 LINE"
);
}
);
width = 600;
}
);
unicode = 1B170;
},
{
glyphname = u1B171;
lastChange = "2020-01-15 16:55:15 +0000";
layers = (
{
layerId = "CFFEBDE4-599A-46B2-9328-D96E42CD9C81";
paths = (
{
closed = 1;
nodes = (
"378 958 OFFCURVE",
"377 907 OFFCURVE",
"377 791 CURVE SMOOTH",
"377 471 OFFCURVE",
"273 242 OFFCURVE",
"27 32 CURVE",
"87 -25 LINE",
"352 199 OFFCURVE",
"463 455 OFFCURVE",
"463 800 CURVE SMOOTH",
"463 907 OFFCURVE",
"464 958 OFFCURVE",
"453 1069 CURVE",
"367 1069 LINE"
);
},
{
closed = 1;
nodes = (
"479 245 LINE",
"418 69 OFFCURVE",
"280 -113 OFFCURVE",
"118 -236 CURVE",
"176 -293 LINE",
"348 -152 OFFCURVE",
"485 13 OFFCURVE",
"556 215 CURVE"
);
}
);
width = 600;
}
);
unicode = 1B171;
},
{
glyphname = u1B172;
lastChange = "2020-01-15 16:51:42 +0000";
layers = (
{
background = {
components = (
{
name = u1B170;
}
);
};
layerId = "CFFEBDE4-599A-46B2-9328-D96E42CD9C81";
paths = (
{
closed = 1;
nodes = (
"319 976 OFFCURVE",
"332 887 OFFCURVE",
"332 783 CURVE SMOOTH",
"332 593 OFFCURVE",
"271 393 OFFCURVE",
"74 214 CURVE",
"128 150 LINE",
"320 327 OFFCURVE",
"415 548 OFFCURVE",
"415 783 CURVE SMOOTH",
"415 886 OFFCURVE",
"403 976 OFFCURVE",
"372 1069 CURVE",
"286 1069 LINE"
);
},
{
closed = 1;
nodes = (
"252 525 OFFCURVE",
"365 407 OFFCURVE",
"365 203 CURVE SMOOTH",
"365 34 OFFCURVE",
"314 -131 OFFCURVE",
"129 -262 CURVE",
"180 -325 LINE",
"381 -163 OFFCURVE",
"451 8 OFFCURVE",
"451 214 CURVE SMOOTH",
"451 421 OFFCURVE",
"321 605 OFFCURVE",
"112 678 CURVE",
"74 600 LINE"
);
}
);
width = 600;
}
);
unicode = 1B172;
},
{
glyphname = u1B173;
lastChange = "2020-01-15 16:54:11 +0000";
layers = (
{
layerId = "CFFEBDE4-599A-46B2-9328-D96E42CD9C81";
paths = (
{
closed = 1;
nodes = (
"333 976 OFFCURVE",
"332 887 OFFCURVE",
"332 827 CURVE SMOOTH",
"332 703 OFFCURVE",
"271 503 OFFCURVE",
"74 324 CURVE",
"128 260 LINE",
"320 437 OFFCURVE",
"415 658 OFFCURVE",
"415 827 CURVE SMOOTH",
"415 886 OFFCURVE",
"417 976 OFFCURVE",
"399 1069 CURVE",
"313 1069 LINE"
);
},
{
closed = 1;
nodes = (
"312 552 LINE",
"359 489 OFFCURVE",
"365 411 OFFCURVE",
"365 313 CURVE SMOOTH",
"365 144 OFFCURVE",
"287 -60 OFFCURVE",
"110 -276 CURVE",
"180 -325 LINE",
"373 -78 OFFCURVE",
"451 118 OFFCURVE",
"451 324 CURVE SMOOTH",
"451 443 OFFCURVE",
"428 555 OFFCURVE",
"351 642 CURVE"
);
}
);
width = 600;
}
);
unicode = 1B173;
},
{
glyphname = u1B174;
lastChange = "2020-01-16 13:36:19 +0000";
layers = (
{
layerId = "CFFEBDE4-599A-46B2-9328-D96E42CD9C81";
paths = (
{
closed = 1;
nodes = (
"245 1069 LINE",
"227 976 OFFCURVE",
"229 886 OFFCURVE",
"229 827 CURVE SMOOTH",
"229 658 OFFCURVE",
"312 472 OFFCURVE",
"516 310 CURVE",
"570 374 LINE",
"361 538 OFFCURVE",
"312 703 OFFCURVE",
"312 827 CURVE SMOOTH",
"312 887 OFFCURVE",
"311 976 OFFCURVE",
"331 1069 CURVE"
);
},
{
closed = 1;
nodes = (
"249 -296 LINE",
"305 -163 OFFCURVE",
"343 -17 OFFCURVE",
"343 154 CURVE SMOOTH",
"343 310 OFFCURVE",
"277 430 OFFCURVE",
"128 538 CURVE",
"74 474 LINE",
"228 364 OFFCURVE",
"260 265 OFFCURVE",
"260 154 CURVE SMOOTH",
"260 -18 OFFCURVE",
"221 -145 OFFCURVE",
"163 -278 CURVE"
);
}
);
width = 600;
}
);
unicode = 1B174;
},
{
glyphname = u1B175;
lastChange = "2020-01-15 16:56:48 +0000";
layers = (
{
layerId = "CFFEBDE4-599A-46B2-9328-D96E42CD9C81";
paths = (
{
closed = 1;
nodes = (
"309 976 OFFCURVE",
"346 816 OFFCURVE",
"346 664 CURVE SMOOTH",
"346 381 OFFCURVE",
"271 226 OFFCURVE",
"74 47 CURVE",
"131 -17 LINE",
"323 160 OFFCURVE",
"429 336 OFFCURVE",
"429 664 CURVE SMOOTH",
"429 815 OFFCURVE",
"393 976 OFFCURVE",
"362 1069 CURVE",
"276 1069 LINE"
);
},
{
closed = 1;
nodes = (
"265 338 OFFCURVE",
"333 225 OFFCURVE",
"333 80 CURVE SMOOTH",
"333 -28 OFFCURVE",
"305 -171 OFFCURVE",
"203 -262 CURVE",
"265 -325 LINE",
"383 -203 OFFCURVE",
"419 -54 OFFCURVE",
"419 91 CURVE SMOOTH",
"419 239 OFFCURVE",
"340 401 OFFCURVE",
"148 520 CURVE",
"95 443 LINE"
);
}
);
width = 600;
}
);
unicode = 1B175;
},
{
glyphname = u1B176;
lastChange = "2020-01-16 13:40:37 +0000";
layers = (
{
layerId = "CFFEBDE4-599A-46B2-9328-D96E42CD9C81";
paths = (
{
closed = 1;
nodes = (
"320 896 OFFCURVE",
"338 714 OFFCURVE",
"338 459 CURVE SMOOTH",
"338 128 OFFCURVE",
"257 -64 OFFCURVE",
"7 -268 CURVE",
"67 -325 LINE",
"336 -107 OFFCURVE",
"424 112 OFFCURVE",
"424 468 CURVE SMOOTH",
"424 714 OFFCURVE",
"406 896 OFFCURVE",
"363 1069 CURVE",
"277 1069 LINE"
);
},
{
closed = 1;
nodes = (
"104 369 LINE",
"96 338 OFFCURVE",
"85 310 OFFCURVE",
"72 285 CURVE",
"140 253 LINE",
"157 278 OFFCURVE",
"169 307 OFFCURVE",
"171 345 CURVE"
);
}
);
width = 600;
}
);
unicode = 1B176;
},
{
glyphname = u1B177;
lastChange = "2020-01-16 13:39:59 +0000";
layers = (
{
layerId = "CFFEBDE4-599A-46B2-9328-D96E42CD9C81";
paths = (
{
closed = 1;
nodes = (
"330 1069 LINE",
"213 924 OFFCURVE",
"145 687 OFFCURVE",
"145 499 CURVE SMOOTH",
"145 259 OFFCURVE",
"215 27 OFFCURVE",
"420 -177 CURVE",
"484 -120 LINE",
"298 70 OFFCURVE",
"231 275 OFFCURVE",
"231 490 CURVE SMOOTH",
"231 695 OFFCURVE",
"310 934 OFFCURVE",
"427 1069 CURVE"
);
},
{
closed = 1;
nodes = (
"419 617 LINE",
"411 586 OFFCURVE",
"400 558 OFFCURVE",
"387 533 CURVE",
"455 501 LINE",
"472 526 OFFCURVE",
"484 555 OFFCURVE",
"486 593 CURVE"
);
}
);
width = 600;
}
);
unicode = 1B177;
},
{
glyphname = u1B178;
lastChange = "2020-01-16 13:43:29 +0000";
layers = (
{
layerId = "CFFEBDE4-599A-46B2-9328-D96E42CD9C81";
paths = (
{
closed = 1;
nodes = (
"398 968 OFFCURVE",
"407 863 OFFCURVE",
"407 710 CURVE SMOOTH",
"407 336 OFFCURVE",
"303 46 OFFCURVE",
"57 -198 CURVE",
"117 -255 LINE",
"382 3 OFFCURVE",
"493 320 OFFCURVE",
"493 719 CURVE SMOOTH",
"493 863 OFFCURVE",
"484 968 OFFCURVE",
"473 1069 CURVE",
"387 1069 LINE"
);
},
{
closed = 1;
nodes = (
"195 576 LINE",
"173 381 OFFCURVE",
"117 229 OFFCURVE",
"6 119 CURVE",
"64 62 LINE",
"180 184 OFFCURVE",
"254 364 OFFCURVE",
"277 566 CURVE"
);
},
{
closed = 1;
nodes = (
"519 153 OFFCURVE",
"491 51 OFFCURVE",
"491 -23 CURVE SMOOTH",
"491 -107 OFFCURVE",
"519 -195 OFFCURVE",
"601 -293 CURVE",
"661 -236 LINE",
"601 -156 OFFCURVE",
"575 -91 OFFCURVE",
"575 -15 CURVE SMOOTH",
"575 48 OFFCURVE",
"601 136 OFFCURVE",
"644 226 CURVE",
"562 236 LINE"
);
}
);
width = 700;
}
);
unicode = 1B178;
},
{
glyphname = u1B179;
lastChange = "2020-01-16 13:47:04 +0000";
layers = (
{
layerId = "CFFEBDE4-599A-46B2-9328-D96E42CD9C81";
paths = (
{
closed = 1;
nodes = (
"316 996 OFFCURVE",
"322 957 OFFCURVE",
"322 897 CURVE SMOOTH",
"322 755 OFFCURVE",
"217 602 OFFCURVE",
"20 423 CURVE",
"74 359 LINE",
"266 536 OFFCURVE",
"405 710 OFFCURVE",
"405 897 CURVE SMOOTH",
"405 956 OFFCURVE",
"400 996 OFFCURVE",
"389 1069 CURVE",
"303 1069 LINE"
);
},
{
closed = 1;
nodes = (
"372 687 OFFCURVE",
"381 627 OFFCURVE",
"381 566 CURVE SMOOTH",
"381 463 OFFCURVE",
"274 320 OFFCURVE",
"59 154 CURVE",
"113 90 LINE",
"323 254 OFFCURVE",
"464 418 OFFCURVE",
"464 566 CURVE SMOOTH",
"464 636 OFFCURVE",
"445 720 OFFCURVE",
"374 799 CURVE",
"312 763 LINE"
);
},
{
closed = 1;
nodes = (
"306 329 LINE",
"328 236 OFFCURVE",
"336 186 OFFCURVE",
"336 90 CURVE SMOOTH",
"336 0 OFFCURVE",
"326 -113 OFFCURVE",
"280 -270 CURVE",
"364 -293 LINE",
"409 -144 OFFCURVE",
"425 -28 OFFCURVE",
"425 90 CURVE SMOOTH",
"425 224 OFFCURVE",
"406 299 OFFCURVE",
"368 398 CURVE"
);
}
);
width = 600;
}
);
unicode = 1B179;
},
{
glyphname = u1B17A;
lastChange = "2020-01-16 13:50:37 +0000";
layers = (
{
layerId = "CFFEBDE4-599A-46B2-9328-D96E42CD9C81";
paths = (
{
closed = 1;
nodes = (
"296 498 LINE",
"316 371 OFFCURVE",
"319 272 OFFCURVE",
"319 176 CURVE SMOOTH",
"319 28 OFFCURVE",
"303 -124 OFFCURVE",
"260 -281 CURVE",
"344 -293 LINE",
"383 -153 OFFCURVE",
"403 0 OFFCURVE",
"403 176 CURVE SMOOTH",
"403 278 OFFCURVE",
"398 393 OFFCURVE",
"374 520 CURVE"
);
},
{
closed = 1;
nodes = (
"344 1069 LINE",
"310 790 OFFCURVE",
"245 495 OFFCURVE",
"-3 276 CURVE",
"55 219 LINE",
"312 461 OFFCURVE",
"384 768 OFFCURVE",
"429 1069 CURVE"
);
},
{
closed = 1;
nodes = (
"254 726 OFFCURVE",
"414 594 OFFCURVE",
"519 415 CURVE",
"586 464 LINE",
"475 653 OFFCURVE",
"279 806 OFFCURVE",
"65 872 CURVE",
"29 794 LINE"
);
}
);
width = 600;
}
);
unicode = 1B17A;
},
{
glyphname = u1B17B;
lastChange = "2020-01-16 13:53:14 +0000";
layers = (
{
layerId = "CFFEBDE4-599A-46B2-9328-D96E42CD9C81";
paths = (
{
closed = 1;
nodes = (
"344 1069 LINE",
"310 790 OFFCURVE",
"219 586 OFFCURVE",
"62 393 CURVE",
"132 351 LINE",
"298 567 OFFCURVE",
"384 768 OFFCURVE",
"429 1069 CURVE"
);
},
{
closed = 1;
nodes = (
"11 836 LINE",
"216 633 OFFCURVE",
"406 173 OFFCURVE",
"406 -293 CURVE",
"487 -283 LINE",
"487 222 OFFCURVE",
"275 685 OFFCURVE",
"68 892 CURVE"
);
},
{
closed = 1;
nodes = (
"305 357 LINE",
"273 177 OFFCURVE",
"194 34 OFFCURVE",
"64 -104 CURVE",
"132 -157 LINE",
"264 8 OFFCURVE",
"322 122 OFFCURVE",
"373 320 CURVE"
);
}
);
width = 600;
}
);
unicode = 1B17B;
},
{
glyphname = u1B17C;
lastChange = "2020-01-16 13:56:51 +0000";
layers = (
{
layerId = "CFFEBDE4-599A-46B2-9328-D96E42CD9C81";
paths = (
{
closed = 1;
nodes = (
"34 387 LINE",
"176 249 OFFCURVE",
"307 73 OFFCURVE",
"430 -151 CURVE",
"500 -114 LINE",
"373 135 OFFCURVE",
"240 294 OFFCURVE",
"91 449 CURVE",
"88 387 LINE",
"256 590 OFFCURVE",
"362 790 OFFCURVE",
"362 1069 CURVE",
"277 1069 LINE",
"277 816 OFFCURVE",
"193 638 OFFCURVE",
"34 458 CURVE"
);
},
{
closed = 1;
nodes = (
"313 604 OFFCURVE",
"339 523 OFFCURVE",
"339 387 CURVE SMOOTH",
"339 201 OFFCURVE",
"211 -63 OFFCURVE",
"41 -279 CURVE",
"106 -325 LINE",
"292 -78 OFFCURVE",
"425 175 OFFCURVE",
"425 398 CURVE SMOOTH",
"425 563 OFFCURVE",
"369 664 OFFCURVE",
"245 745 CURVE",
"207 667 LINE"
);
}
);
width = 600;
}
);
unicode = 1B17C;
},
{
glyphname = u1B17D;
lastChange = "2020-01-16 13:58:32 +0000";
layers = (
{
layerId = "CFFEBDE4-599A-46B2-9328-D96E42CD9C81";
paths = (
{
closed = 1;
nodes = (
"286 984 OFFCURVE",
"292 916 OFFCURVE",
"292 827 CURVE SMOOTH",
"292 642 OFFCURVE",
"221 423 OFFCURVE",
"24 244 CURVE",
"78 180 LINE",
"270 357 OFFCURVE",
"375 597 OFFCURVE",
"375 827 CURVE SMOOTH",
"375 915 OFFCURVE",
"370 984 OFFCURVE",
"359 1069 CURVE",
"273 1069 LINE"
);
},
{
closed = 1;
nodes = (
"252 542 LINE",
"282 479 OFFCURVE",
"295 411 OFFCURVE",
"295 313 CURVE SMOOTH",
"295 144 OFFCURVE",
"257 -60 OFFCURVE",
"110 -276 CURVE",
"180 -325 LINE",
"343 -78 OFFCURVE",
"381 118 OFFCURVE",
"381 324 CURVE SMOOTH",
"381 443 OFFCURVE",
"351 545 OFFCURVE",
"291 632 CURVE"
);
},
{
closed = 1;
nodes = (
"512 426 LINE",
"504 395 OFFCURVE",
"493 367 OFFCURVE",
"480 342 CURVE",
"548 310 LINE",
"565 335 OFFCURVE",
"577 364 OFFCURVE",
"579 402 CURVE"
);
}
);
width = 600;
}
);
unicode = 1B17D;
},
{
glyphname = u1B17E;
lastChange = "2020-01-16 14:03:08 +0000";
layers = (
{
layerId = "CFFEBDE4-599A-46B2-9328-D96E42CD9C81";
paths = (
{
closed = 1;
nodes = (
"142 360 OFFCURVE",
"154 285 OFFCURVE",
"154 202 CURVE SMOOTH",
"154 23 OFFCURVE",
"120 -110 OFFCURVE",
"1 -276 CURVE",
"71 -315 LINE",
"197 -136 OFFCURVE",
"240 34 OFFCURVE",
"240 202 CURVE SMOOTH",
"240 293 OFFCURVE",
"221 380 OFFCURVE",
"180 443 CURVE",
"175 397 LINE",
"290 517 OFFCURVE",
"345 627 OFFCURVE",
"345 860 CURVE SMOOTH",
"345 935 OFFCURVE",
"342 994 OFFCURVE",
"335 1069 CURVE",
"249 1069 LINE",
"258 994 OFFCURVE",
"262 936 OFFCURVE",
"262 860 CURVE SMOOTH",
"262 672 OFFCURVE",
"221 555 OFFCURVE",
"96 435 CURVE"
);
},
{
closed = 1;
nodes = (
"396 565 OFFCURVE",
"426 478 OFFCURVE",
"426 354 CURVE SMOOTH",
"426 246 OFFCURVE",
"413 143 OFFCURVE",
"383 34 CURVE",
"468 23 LINE",
"498 126 OFFCURVE",
"512 233 OFFCURVE",
"512 365 CURVE SMOOTH",
"512 514 OFFCURVE",
"453 626 OFFCURVE",
"325 722 CURVE",
"287 644 LINE"
);
}
);
width = 600;
}
);
unicode = 1B17E;
},
{
glyphname = u1B17F;
lastChange = "2020-01-15 16:53:01 +0000";
layers = (
{
layerId = "CFFEBDE4-599A-46B2-9328-D96E42CD9C81";
paths = (
{
closed = 1;
nodes = (
"318 968 OFFCURVE",
"327 863 OFFCURVE",
"327 710 CURVE SMOOTH",
"327 266 OFFCURVE",
"253 -24 OFFCURVE",
"7 -268 CURVE",
"67 -325 LINE",
"332 -67 OFFCURVE",
"413 250 OFFCURVE",
"413 719 CURVE SMOOTH",
"413 863 OFFCURVE",
"404 968 OFFCURVE",
"393 1069 CURVE",
"307 1069 LINE"
);
},
{
closed = 1;
nodes = (
"114 599 LINE",
"106 568 OFFCURVE",
"95 540 OFFCURVE",
"82 515 CURVE",
"150 483 LINE",
"167 508 OFFCURVE",
"179 537 OFFCURVE",
"181 575 CURVE"
);
},
{
closed = 1;
nodes = (
"553 330 LINE",
"545 299 OFFCURVE",
"534 271 OFFCURVE",
"521 246 CURVE",
"589 214 LINE",
"606 239 OFFCURVE",
"618 268 OFFCURVE",
"620 306 CURVE"
);
}
);
width = 650;
}
);
unicode = 1B17F;
},
{
glyphname = u1B180;
lastChange = "2020-01-16 14:05:36 +0000";
layers = (
{
layerId = "CFFEBDE4-599A-46B2-9328-D96E42CD9C81";
paths = (
{
closed = 1;
nodes = (
"355 958 OFFCURVE",
"354 907 OFFCURVE",
"354 791 CURVE SMOOTH",
"354 536 OFFCURVE",
"240 314 OFFCURVE",
"27 132 CURVE",
"87 75 LINE",
"319 271 OFFCURVE",
"440 520 OFFCURVE",
"440 800 CURVE SMOOTH",
"440 907 OFFCURVE",
"441 958 OFFCURVE",
"430 1069 CURVE",
"344 1069 LINE"
);
},
{
closed = 1;
nodes = (
"479 305 LINE",
"418 129 OFFCURVE",
"298 -81 OFFCURVE",
"118 -236 CURVE",
"176 -293 LINE",
"366 -120 OFFCURVE",
"485 73 OFFCURVE",
"556 275 CURVE"
);
},
{
closed = 1;
nodes = (
"387 -11 LINE",
"386 192 OFFCURVE",
"298 493 OFFCURVE",
"179 692 CURVE",
"102 651 LINE",
"230 446 OFFCURVE",
"306 143 OFFCURVE",
"319 -38 CURVE"
);
}
);
width = 600;
}
);
unicode = 1B180;
},
{
glyphname = u1B181;
lastChange = "2020-01-16 14:05:23 +0000";
layers = (
{
layerId = "CFFEBDE4-599A-46B2-9328-D96E42CD9C81";
paths = (
{
closed = 1;
nodes = (
"80 387 LINE",
"267 225 OFFCURVE",
"334 58 OFFCURVE",
"337 -293 CURVE",
"421 -293 LINE",
"413 56 OFFCURVE",
"337 266 OFFCURVE",
"141 449 CURVE",
"138 387 LINE",
"285 590 OFFCURVE",
"361 790 OFFCURVE",
"361 1069 CURVE",
"277 1069 LINE",
"277 816 OFFCURVE",
"218 638 OFFCURVE",
"80 458 CURVE"
);
},
{
closed = 1;
nodes = (
"277 714 OFFCURVE",
"349 563 OFFCURVE",
"349 427 CURVE SMOOTH",
"349 267 OFFCURVE",
"266 117 OFFCURVE",
"96 -22 CURVE",
"154 -77 LINE",
"340 93 OFFCURVE",
"435 241 OFFCURVE",
"435 438 CURVE SMOOTH",
"435 603 OFFCURVE",
"325 779 OFFCURVE",
"129 876 CURVE",
"91 798 LINE"
);
}
);
width = 600;
}
);
unicode = 1B181;
},
{
glyphname = u1B182;
lastChange = "2020-01-16 16:48:38 +0000";
layers = (
{
layerId = "CFFEBDE4-599A-46B2-9328-D96E42CD9C81";
paths = (
{
closed = 1;
nodes = (
"56 426 LINE",
"198 243 OFFCURVE",
"343 15 OFFCURVE",
"466 -303 CURVE",
"536 -266 LINE",
"409 77 OFFCURVE",
"262 288 OFFCURVE",
"113 488 CURVE",
"111 426 LINE",
"281 617 OFFCURVE",
"410 828 OFFCURVE",
"477 1069 CURVE",
"392 1069 LINE",
"325 854 OFFCURVE",
"217 654 OFFCURVE",
"56 496 CURVE"
);
},
{
closed = 1;
nodes = (
"328 723 OFFCURVE",
"327 673 OFFCURVE",
"327 593 CURVE SMOOTH",
"327 353 OFFCURVE",
"235 135 OFFCURVE",
"22 -81 CURVE",
"86 -132 LINE",
"315 115 OFFCURVE",
"413 353 OFFCURVE",
"413 604 CURVE SMOOTH",
"413 697 OFFCURVE",
"403 776 OFFCURVE",
"368 860 CURVE",
"306 823 LINE"
);
}
);
width = 600;
}
);
unicode = 1B182;
},
{
glyphname = u1B183;
lastChange = "2020-01-16 14:07:09 +0000";
layers = (
{
layerId = "CFFEBDE4-599A-46B2-9328-D96E42CD9C81";
paths = (
{
closed = 1;
nodes = (
"351 988 OFFCURVE",
"354 937 OFFCURVE",
"354 867 CURVE SMOOTH",
"354 654 OFFCURVE",
"249 407 OFFCURVE",
"-2 225 CURVE",
"58 163 LINE",
"328 359 OFFCURVE",
"440 638 OFFCURVE",
"440 876 CURVE SMOOTH",
"440 937 OFFCURVE",
"437 988 OFFCURVE",
"426 1069 CURVE",
"340 1069 LINE"
);
},
{
closed = 1;
nodes = (
"479 325 LINE",
"418 88 OFFCURVE",
"300 -116 OFFCURVE",
"120 -241 CURVE",
"176 -303 LINE",
"366 -160 OFFCURVE",
"492 37 OFFCURVE",
"563 300 CURVE"
);
},
{
closed = 1;
nodes = (
"367 -74 LINE",
"380 129 OFFCURVE",
"345 266 OFFCURVE",
"280 433 CURVE",
"205 388 LINE",
"279 215 OFFCURVE",
"296 69 OFFCURVE",
"295 -112 CURVE"
);
}
);
width = 600;
}
);
unicode = 1B183;
},
{
glyphname = u1B184;
lastChange = "2020-01-17 11:28:15 +0000";
layers = (
{
layerId = "CFFEBDE4-599A-46B2-9328-D96E42CD9C81";
paths = (
{
closed = 1;
nodes = (
"283 976 OFFCURVE",
"282 887 OFFCURVE",
"282 827 CURVE SMOOTH",
"282 703 OFFCURVE",
"221 503 OFFCURVE",
"24 324 CURVE",
"78 260 LINE",
"270 437 OFFCURVE",
"365 658 OFFCURVE",
"365 827 CURVE SMOOTH",
"365 886 OFFCURVE",
"367 976 OFFCURVE",
"349 1069 CURVE",
"263 1069 LINE"
);
},
{
closed = 1;
nodes = (
"262 552 LINE",
"336 513 OFFCURVE",
"405 415 OFFCURVE",
"405 263 CURVE SMOOTH",
"405 94 OFFCURVE",
"366 -71 OFFCURVE",
"240 -276 CURVE",
"310 -325 LINE",
"452 -89 OFFCURVE",
"491 68 OFFCURVE",
"491 274 CURVE SMOOTH",
"491 447 OFFCURVE",
"405 579 OFFCURVE",
"301 642 CURVE"
);
},
{
closed = 1;
nodes = (
"196 180 LINE",
"188 149 OFFCURVE",
"177 121 OFFCURVE",
"164 96 CURVE",
"232 64 LINE",
"249 89 OFFCURVE",
"261 118 OFFCURVE",
"263 156 CURVE"
);
}
);
width = 600;
}
);
unicode = 1B184;
},
{
glyphname = u1B185;
lastChange = "2020-01-16 14:13:03 +0000";
layers = (
{
layerId = "CFFEBDE4-599A-46B2-9328-D96E42CD9C81";
paths = (
{
closed = 1;
nodes = (
"334 1076 LINE",
"299 778 OFFCURVE",
"149 483 OFFCURVE",
"-3 288 CURVE",
"55 231 LINE",
"217 444 OFFCURVE",
"374 745 OFFCURVE",
"419 1069 CURVE"
);
},
{
closed = 1;
nodes = (
"286 819 LINE",
"386 717 OFFCURVE",
"530 539 OFFCURVE",
"616 375 CURVE",
"684 429 LINE",
"589 595 OFFCURVE",
"440 779 OFFCURVE",
"333 884 CURVE"
);
},
{
closed = 1;
nodes = (
"309 530 LINE",
"329 403 OFFCURVE",
"332 322 OFFCURVE",
"332 226 CURVE SMOOTH",
"332 78 OFFCURVE",
"316 -124 OFFCURVE",
"273 -281 CURVE",
"357 -293 LINE",
"396 -153 OFFCURVE",
"416 50 OFFCURVE",
"416 226 CURVE SMOOTH",
"416 328 OFFCURVE",
"411 425 OFFCURVE",
"387 552 CURVE"
);
}
);
width = 700;
}
);
unicode = 1B185;
},
{
glyphname = u1B186;
lastChange = "2020-01-16 14:16:14 +0000";
layers = (
{
layerId = "CFFEBDE4-599A-46B2-9328-D96E42CD9C81";
paths = (
{
closed = 1;
nodes = (
"157 558 OFFCURVE",
"173 469 OFFCURVE",
"173 365 CURVE SMOOTH",
"173 137 OFFCURVE",
"146 -65 OFFCURVE",
"-1 -244 CURVE",
"66 -292 LINE",
"208 -115 OFFCURVE",
"256 130 OFFCURVE",
"256 365 CURVE SMOOTH",
"256 468 OFFCURVE",
"238 589 OFFCURVE",
"197 675 CURVE",
"111 651 LINE"
);
},
{
closed = 1;
nodes = (
"462 688 OFFCURVE",
"359 520 OFFCURVE",
"202 429 CURVE",
"237 361 LINE",
"427 470 OFFCURVE",
"548 651 OFFCURVE",
"568 1069 CURVE",
"482 1069 LINE"
);
},
{
closed = 1;
nodes = (
"374 536 LINE",
"427 425 OFFCURVE",
"474 326 OFFCURVE",
"484 164 CURVE",
"571 190 LINE",
"551 370 OFFCURVE",
"504 470 OFFCURVE",
"442 593 CURVE"
);
}
);
width = 600;
}
);
unicode = 1B186;
},
{
glyphname = u1B187;
lastChange = "2020-01-16 14:29:05 +0000";
layers = (
{
layerId = "CFFEBDE4-599A-46B2-9328-D96E42CD9C81";
paths = (
{
closed = 1;
nodes = (
"249 -296 LINE",
"299 -127 OFFCURVE",
"321 49 OFFCURVE",
"321 206 CURVE SMOOTH",
"321 427 OFFCURVE",
"244 564 OFFCURVE",
"141 672 CURVE",
"74 612 LINE",
"182 502 OFFCURVE",
"235 382 OFFCURVE",
"235 206 CURVE SMOOTH",
"235 48 OFFCURVE",
"215 -109 OFFCURVE",
"163 -278 CURVE"
);
},
{
closed = 1;
nodes = (
"344 1069 LINE",
"310 790 OFFCURVE",
"245 495 OFFCURVE",
"-3 276 CURVE",
"55 219 LINE",
"312 461 OFFCURVE",
"389 768 OFFCURVE",
"434 1069 CURVE"
);
},
{
closed = 1;
nodes = (
"425 558 LINE",
"355 351 OFFCURVE",
"236 168 OFFCURVE",
"51 8 CURVE",
"109 -49 LINE",
"312 136 OFFCURVE",
"424 309 OFFCURVE",
"502 536 CURVE"
);
}
);
width = 600;
}
);
unicode = 1B187;
},
{
glyphname = u1B188;
lastChange = "2020-01-16 14:20:11 +0000";
layers = (
{
layerId = "CFFEBDE4-599A-46B2-9328-D96E42CD9C81";
paths = (
{
closed = 1;
nodes = (
"302 -264 LINE",
"287 -54 OFFCURVE",
"239 174 OFFCURVE",
"148 361 CURVE",
"66 327 LINE",
"156 140 OFFCURVE",
"204 -77 OFFCURVE",
"225 -293 CURVE",
"327 -293 LINE",
"493 -35 OFFCURVE",
"573 250 OFFCURVE",
"573 719 CURVE SMOOTH",
"573 863 OFFCURVE",
"564 968 OFFCURVE",
"553 1069 CURVE",
"467 1069 LINE",
"478 968 OFFCURVE",
"487 863 OFFCURVE",
"487 710 CURVE SMOOTH",
"487 266 OFFCURVE",
"396 -24 OFFCURVE",
"249 -268 CURVE"
);
},
{
closed = 1;
nodes = (
"40 55 LINE",
"32 24 OFFCURVE",
"21 -4 OFFCURVE",
"8 -29 CURVE",
"76 -61 LINE",
"93 -36 OFFCURVE",
"105 -7 OFFCURVE",
"107 31 CURVE"
);
}
);
width = 600;
}
);
unicode = 1B188;
},
{
glyphname = u1B189;
lastChange = "2020-01-16 14:20:55 +0000";
layers = (
{
layerId = "CFFEBDE4-599A-46B2-9328-D96E42CD9C81";
paths = (
{
closed = 1;
nodes = (
"322 -296 LINE",
"372 -127 OFFCURVE",
"394 49 OFFCURVE",
"394 206 CURVE SMOOTH",
"394 390 OFFCURVE",
"338 531 OFFCURVE",
"249 639 CURVE",
"182 579 LINE",
"276 469 OFFCURVE",
"308 345 OFFCURVE",
"308 206 CURVE SMOOTH",
"308 48 OFFCURVE",
"288 -109 OFFCURVE",
"236 -278 CURVE"
);
},
{
closed = 1;
nodes = (
"344 1069 LINE",
"310 790 OFFCURVE",
"194 605 OFFCURVE",
"-3 408 CURVE",
"55 351 LINE",
"261 571 OFFCURVE",
"389 768 OFFCURVE",
"434 1069 CURVE"
);
},
{
closed = 1;
nodes = (
"386 622 LINE",
"300 426 OFFCURVE",
"223 305 OFFCURVE",
"51 136 CURVE",
"109 79 LINE",
"299 270 OFFCURVE",
"369 380 OFFCURVE",
"463 600 CURVE"
);
}
);
width = 600;
}
);
unicode = 1B189;
},
{
glyphname = u1B18A;
lastChange = "2020-01-16 14:22:18 +0000";
layers = (
{
layerId = "CFFEBDE4-599A-46B2-9328-D96E42CD9C81";
paths = (
{
closed = 1;
nodes = (
"358 998 OFFCURVE",
"357 960 OFFCURVE",
"357 916 CURVE SMOOTH",
"357 730 OFFCURVE",
"273 467 OFFCURVE",
"27 257 CURVE",
"87 200 LINE",
"352 424 OFFCURVE",
"443 714 OFFCURVE",
"443 925 CURVE SMOOTH",
"443 960 OFFCURVE",
"444 998 OFFCURVE",
"433 1069 CURVE",
"347 1069 LINE"
);
},
{
closed = 1;
nodes = (
"431 485 LINE",
"370 309 OFFCURVE",
"280 163 OFFCURVE",
"118 30 CURVE",
"176 -27 LINE",
"348 124 OFFCURVE",
"437 253 OFFCURVE",
"508 455 CURVE"
);
},
{
closed = 1;
nodes = (
"477 171 LINE",
"415 25 OFFCURVE",
"310 -136 OFFCURVE",
"148 -259 CURVE",
"206 -316 LINE",
"378 -175 OFFCURVE",
"482 -31 OFFCURVE",
"554 141 CURVE"
);
}
);
width = 600;
}
);
unicode = 1B18A;
},
{
glyphname = u1B18B;
lastChange = "2020-01-16 14:25:03 +0000";
layers = (
{
layerId = "CFFEBDE4-599A-46B2-9328-D96E42CD9C81";
paths = (
{
closed = 1;
nodes = (
"119 303 OFFCURVE",
"154 201 OFFCURVE",
"154 46 CURVE SMOOTH",
"154 -49 OFFCURVE",
"140 -160 OFFCURVE",
"87 -280 CURVE",
"162 -315 LINE",
"218 -170 OFFCURVE",
"240 -49 OFFCURVE",
"240 68 CURVE SMOOTH",
"240 223 OFFCURVE",
"177 356 OFFCURVE",
"136 419 CURVE",
"131 369 LINE",
"246 489 OFFCURVE",
"314 679 OFFCURVE",
"314 851 CURVE SMOOTH",
"314 935 OFFCURVE",
"314 996 OFFCURVE",
"309 1069 CURVE",
"223 1069 LINE",
"230 996 OFFCURVE",
"231 936 OFFCURVE",
"231 851 CURVE SMOOTH",
"231 724 OFFCURVE",
"181 525 OFFCURVE",
"56 405 CURVE"
);
},
{
closed = 1;
nodes = (
"364 267 OFFCURVE",
"387 181 OFFCURVE",
"387 109 CURVE SMOOTH",
"387 14 OFFCURVE",
"383 -72 OFFCURVE",
"340 -187 CURVE",
"415 -222 LINE",
"461 -82 OFFCURVE",
"473 14 OFFCURVE",
"473 131 CURVE SMOOTH",
"473 203 OFFCURVE",
"434 300 OFFCURVE",
"369 374 CURVE",
"364 324 LINE",
"459 441 OFFCURVE",
"520 544 OFFCURVE",
"520 754 CURVE SMOOTH",
"520 798 OFFCURVE",
"522 854 OFFCURVE",
"522 882 CURVE",
"436 882 LINE",
"436 857 OFFCURVE",
"437 798 OFFCURVE",
"437 761 CURVE SMOOTH",
"437 589 OFFCURVE",
"394 477 OFFCURVE",
"289 360 CURVE"
);
}
);
width = 600;
}
);
unicode = 1B18B;
},
{
glyphname = u1B18C;
lastChange = "2020-01-16 14:27:25 +0000";
layers = (
{
layerId = "CFFEBDE4-599A-46B2-9328-D96E42CD9C81";
paths = (
{
closed = 1;
nodes = (
"193 512 OFFCURVE",
"240 318 OFFCURVE",
"240 173 CURVE SMOOTH",
"240 16 OFFCURVE",
"192 -124 OFFCURVE",
"47 -268 CURVE",
"107 -325 LINE",
"271 -167 OFFCURVE",
"326 0 OFFCURVE",
"326 182 CURVE SMOOTH",
"326 318 OFFCURVE",
"273 541 OFFCURVE",
"226 636 CURVE",
"145 610 LINE"
);
},
{
closed = 1;
nodes = (
"83 312 LINE",
"75 281 OFFCURVE",
"64 253 OFFCURVE",
"51 228 CURVE",
"119 196 LINE",
"136 221 OFFCURVE",
"148 250 OFFCURVE",
"150 288 CURVE"
);
},
{
closed = 1;
nodes = (
"536 239 OFFCURVE",
"438 426 OFFCURVE",
"438 615 CURVE SMOOTH",
"438 784 OFFCURVE",
"473 925 OFFCURVE",
"593 1069 CURVE",
"496 1069 LINE",
"382 911 OFFCURVE",
"352 800 OFFCURVE",
"352 606 CURVE SMOOTH",
"352 426 OFFCURVE",
"456 193 OFFCURVE",
"531 98 CURVE",
"612 141 LINE"
);
},
{
closed = 1;
nodes = (
"608 478 LINE",
"616 509 OFFCURVE",
"627 537 OFFCURVE",
"640 562 CURVE",
"572 594 LINE",
"555 569 OFFCURVE",
"543 540 OFFCURVE",
"541 502 CURVE"
);
}
);
width = 700;
}
);
unicode = 1B18C;
},
{
glyphname = u1B18D;
lastChange = "2020-01-16 14:28:51 +0000";
layers = (
{
layerId = "CFFEBDE4-599A-46B2-9328-D96E42CD9C81";
paths = (
{
closed = 1;
nodes = (
"119 340 OFFCURVE",
"131 254 OFFCURVE",
"131 162 CURVE SMOOTH",
"131 23 OFFCURVE",
"100 -110 OFFCURVE",
"1 -276 CURVE",
"71 -315 LINE",
"177 -136 OFFCURVE",
"217 34 OFFCURVE",
"217 162 CURVE SMOOTH",
"217 262 OFFCURVE",
"198 360 OFFCURVE",
"157 443 CURVE",
"152 397 LINE",
"267 517 OFFCURVE",
"345 627 OFFCURVE",
"345 860 CURVE SMOOTH",
"345 935 OFFCURVE",
"342 994 OFFCURVE",
"335 1069 CURVE",
"249 1069 LINE",
"258 994 OFFCURVE",
"262 936 OFFCURVE",
"262 860 CURVE SMOOTH",
"262 672 OFFCURVE",
"198 555 OFFCURVE",
"73 435 CURVE"
);
},
{
closed = 1;
nodes = (
"417 56 LINE",
"405 116 OFFCURVE",
"382 169 OFFCURVE",
"345 214 CURVE",
"277 170 LINE",
"316 119 OFFCURVE",
"351 65 OFFCURVE",
"371 0 CURVE",
"468 23 LINE",
"507 126 OFFCURVE",
"524 213 OFFCURVE",
"524 340 CURVE SMOOTH",
"524 514 OFFCURVE",
"453 637 OFFCURVE",
"325 722 CURVE",
"287 644 LINE",
"396 576 OFFCURVE",
"438 478 OFFCURVE",
"438 329 CURVE SMOOTH",
"438 226 OFFCURVE",
"430 147 OFFCURVE",
"403 47 CURVE"
);
}
);
width = 600;
}
);
unicode = 1B18D;
},
{
glyphname = u1B18E;
lastChange = "2020-01-16 14:31:16 +0000";
layers = (
{
layerId = "CFFEBDE4-599A-46B2-9328-D96E42CD9C81";
paths = (
{
closed = 1;
nodes = (
"344 1069 LINE",
"288 820 OFFCURVE",
"191 615 OFFCURVE",
"2 405 CURVE",
"62 353 LINE",
"260 586 OFFCURVE",
"362 798 OFFCURVE",
"429 1069 CURVE"
);
},
{
closed = 1;
nodes = (
"71 906 LINE",
"249 622 OFFCURVE",
"409 173 OFFCURVE",
"445 -293 CURVE",
"526 -283 LINE",
"490 222 OFFCURVE",
"308 674 OFFCURVE",
"128 962 CURVE"
);
},
{
closed = 1;
nodes = (
"299 518 LINE",
"240 357 OFFCURVE",
"159 234 OFFCURVE",
"32 93 CURVE",
"92 41 LINE",
"211 182 OFFCURVE",
"283 299 OFFCURVE",
"347 448 CURVE"
);
},
{
closed = 1;
nodes = (
"241 44 LINE",
"198 -51 OFFCURVE",
"159 -113 OFFCURVE",
"91 -198 CURVE",
"151 -250 LINE",
"215 -163 OFFCURVE",
"264 -89 OFFCURVE",
"308 7 CURVE"
);
}
);
width = 600;
}
);
unicode = 1B18E;
},
{
glyphname = u1B18F;
lastChange = "2020-01-16 14:34:44 +0000";
layers = (
{
layerId = "CFFEBDE4-599A-46B2-9328-D96E42CD9C81";
paths = (
{
closed = 1;
nodes = (
"337 576 OFFCURVE",
"224 122 OFFCURVE",
"-1 -252 CURVE",
"72 -292 LINE",
"311 95 OFFCURVE",
"420 552 OFFCURVE",
"440 1069 CURVE",
"354 1069 LINE"
);
},
{
closed = 1;
nodes = (
"547 -33 LINE",
"465 261 OFFCURVE",
"255 627 OFFCURVE",
"83 795 CURVE",
"22 737 LINE",
"212 536 OFFCURVE",
"380 210 OFFCURVE",
"465 -62 CURVE"
);
},
{
closed = 1;
nodes = (
"45 423 LINE",
"37 392 OFFCURVE",
"26 364 OFFCURVE",
"13 339 CURVE",
"81 307 LINE",
"98 332 OFFCURVE",
"110 361 OFFCURVE",
"112 399 CURVE"
);
},
{
closed = 1;
nodes = (
"528 581 LINE",
"520 550 OFFCURVE",
"509 522 OFFCURVE",
"496 497 CURVE",
"564 465 LINE",
"581 490 OFFCURVE",
"593 519 OFFCURVE",
"595 557 CURVE"
);
}
);
width = 600;
}
);
unicode = 1B18F;
},
{
glyphname = u1B190;
lastChange = "2020-01-16 14:37:05 +0000";
layers = (
{
layerId = "CFFEBDE4-599A-46B2-9328-D96E42CD9C81";
paths = (
{
closed = 1;
nodes = (
"133 691 OFFCURVE",
"166 538 OFFCURVE",
"166 393 CURVE SMOOTH",
"166 236 OFFCURVE",
"116 82 OFFCURVE",
"7 -89 CURVE",
"67 -146 LINE",
"195 39 OFFCURVE",
"252 220 OFFCURVE",
"252 402 CURVE SMOOTH",
"252 538 OFFCURVE",
"213 720 OFFCURVE",
"166 815 CURVE",
"85 789 LINE"
);
},
{
closed = 1;
nodes = (
"496 418 OFFCURVE",
"421 585 OFFCURVE",
"421 774 CURVE SMOOTH",
"421 877 OFFCURVE",
"434 971 OFFCURVE",
"493 1069 CURVE",
"396 1069 LINE",
"352 972 OFFCURVE",
"335 866 OFFCURVE",
"335 765 CURVE SMOOTH",
"335 585 OFFCURVE",
"416 372 OFFCURVE",
"491 277 CURVE",
"572 320 LINE"
);
},
{
closed = 1;
nodes = (
"248 -125 OFFCURVE",
"286 -196 OFFCURVE",
"351 -292 CURVE",
"426 -291 LINE",
"507 -146 OFFCURVE",
"522 -57 OFFCURVE",
"522 11 CURVE SMOOTH",
"522 60 OFFCURVE",
"481 127 OFFCURVE",
"406 191 CURVE",
"332 191 LINE",
"287 114 OFFCURVE",
"248 1 OFFCURVE",
"248 -67 CURVE SMOOTH"
);
},
{
closed = 1;
nodes = (
"357 134 LINE",
"411 76 OFFCURVE",
"442 23 OFFCURVE",
"442 -7 CURVE SMOOTH",
"442 -43 OFFCURVE",
"432 -104 OFFCURVE",
"372 -222 CURVE",
"390 -216 LINE",
"355 -146 OFFCURVE",
"328 -94 OFFCURVE",
"328 -57 CURVE SMOOTH",
"328 -9 OFFCURVE",
"356 70 OFFCURVE",
"391 136 CURVE"
);
}
);
width = 600;
}
);
unicode = 1B190;
},
{
glyphname = u1B191;
lastChange = "2020-01-16 14:39:25 +0000";
layers = (
{
layerId = "CFFEBDE4-599A-46B2-9328-D96E42CD9C81";
paths = (
{
closed = 1;
nodes = (
"316 996 OFFCURVE",
"322 957 OFFCURVE",
"322 897 CURVE SMOOTH",
"322 806 OFFCURVE",
"256 686 OFFCURVE",
"59 538 CURVE",
"113 474 LINE",
"305 620 OFFCURVE",
"405 761 OFFCURVE",
"405 897 CURVE SMOOTH",
"405 956 OFFCURVE",
"400 996 OFFCURVE",
"389 1069 CURVE",
"303 1069 LINE"
);
},
{
closed = 1;
nodes = (
"334 727 OFFCURVE",
"342 680 OFFCURVE",
"342 638 CURVE SMOOTH",
"342 559 OFFCURVE",
"288 462 OFFCURVE",
"59 285 CURVE",
"113 221 LINE",
"341 378 OFFCURVE",
"421 514 OFFCURVE",
"421 642 CURVE SMOOTH",
"421 706 OFFCURVE",
"406 748 OFFCURVE",
"371 811 CURVE",
"309 775 LINE"
);
},
{
closed = 1;
nodes = (
"261 406 LINE",
"282 310 OFFCURVE",
"290 234 OFFCURVE",
"290 155 CURVE SMOOTH",
"290 48 OFFCURVE",
"286 -115 OFFCURVE",
"255 -284 CURVE",
"341 -296 LINE",
"370 -127 OFFCURVE",
"376 49 OFFCURVE",
"376 155 CURVE SMOOTH",
"376 260 OFFCURVE",
"361 365 OFFCURVE",
"333 462 CURVE"
);
},
{
closed = 1;
nodes = (
"461 365 LINE",
"375 232 OFFCURVE",
"252 118 OFFCURVE",
"105 23 CURVE",
"145 -48 LINE",
"301 54 OFFCURVE",
"425 175 OFFCURVE",
"528 321 CURVE"
);
}
);
width = 600;
}
);
unicode = 1B191;
},
{
glyphname = u1B192;
lastChange = "2020-01-16 16:58:36 +0000";
layers = (
{
layerId = "CFFEBDE4-599A-46B2-9328-D96E42CD9C81";
paths = (
{
closed = 1;
nodes = (
"361 1068 LINE",
"361 813 OFFCURVE",
"272 648 OFFCURVE",
"147 528 CURVE",
"193 453 OFFCURVE",
"217 345 OFFCURVE",
"217 224 CURVE SMOOTH",
"217 47 OFFCURVE",
"161 -110 OFFCURVE",
"52 -276 CURVE",
"122 -315 LINE",
"253 -136 OFFCURVE",
"303 58 OFFCURVE",
"303 255 CURVE SMOOTH",
"303 353 OFFCURVE",
"280 458 OFFCURVE",
"227 529 CURVE",
"222 483 LINE",
"337 603 OFFCURVE",
"444 768 OFFCURVE",
"444 1068 CURVE"
);
},
{
closed = 1;
nodes = (
"563 297 LINE",
"543 490 OFFCURVE",
"459 637 OFFCURVE",
"353 755 CURVE",
"315 677 LINE",
"404 583 OFFCURVE",
"458 462 OFFCURVE",
"477 286 CURVE"
);
},
{
closed = 1;
nodes = (
"45 246 LINE",
"37 215 OFFCURVE",
"26 187 OFFCURVE",
"13 162 CURVE",
"81 130 LINE",
"98 155 OFFCURVE",
"110 184 OFFCURVE",
"112 222 CURVE"
);
},
{
closed = 1;
nodes = (
"45 246 LINE",
"37 215 OFFCURVE",
"26 187 OFFCURVE",
"13 162 CURVE",
"81 130 LINE",
"98 155 OFFCURVE",
"110 184 OFFCURVE",
"112 222 CURVE"
);
}
);
width = 600;
}
);
unicode = 1B192;
},
{
glyphname = u1B193;
lastChange = "2020-01-16 14:41:57 +0000";
layers = (
{
layerId = "CFFEBDE4-599A-46B2-9328-D96E42CD9C81";
paths = (
{
closed = 1;
nodes = (
"372 -264 LINE",
"300 -76 OFFCURVE",
"262 136 OFFCURVE",
"228 361 CURVE",
"143 327 LINE",
"173 108 OFFCURVE",
"218 -100 OFFCURVE",
"295 -293 CURVE",
"397 -293 LINE",
"523 -35 OFFCURVE",
"583 250 OFFCURVE",
"583 719 CURVE SMOOTH",
"583 863 OFFCURVE",
"574 968 OFFCURVE",
"563 1069 CURVE",
"477 1069 LINE",
"488 968 OFFCURVE",
"497 863 OFFCURVE",
"497 710 CURVE SMOOTH",
"497 266 OFFCURVE",
"426 -24 OFFCURVE",
"319 -268 CURVE"
);
},
{
closed = 1;
nodes = (
"20 78 LINE",
"12 47 OFFCURVE",
"1 19 OFFCURVE",
"-12 -6 CURVE",
"56 -38 LINE",
"73 -13 OFFCURVE",
"85 16 OFFCURVE",
"87 54 CURVE"
);
},
{
closed = 1;
nodes = (
"310 587 LINE",
"302 556 OFFCURVE",
"291 528 OFFCURVE",
"278 503 CURVE",
"346 471 LINE",
"363 496 OFFCURVE",
"375 525 OFFCURVE",
"377 563 CURVE"
);
}
);
width = 600;
}
);
unicode = 1B193;
},
{
glyphname = u1B194;
lastChange = "2020-01-16 14:44:05 +0000";
layers = (
{
layerId = "CFFEBDE4-599A-46B2-9328-D96E42CD9C81";
paths = (
{
closed = 1;
nodes = (
"344 1069 LINE",
"288 820 OFFCURVE",
"191 622 OFFCURVE",
"2 445 CURVE",
"59 387 LINE",
"257 587 OFFCURVE",
"362 798 OFFCURVE",
"429 1069 CURVE"
);
},
{
closed = 1;
nodes = (
"71 906 LINE",
"249 622 OFFCURVE",
"379 173 OFFCURVE",
"415 -293 CURVE",
"496 -283 LINE",
"460 222 OFFCURVE",
"308 674 OFFCURVE",
"128 962 CURVE"
);
},
{
closed = 1;
nodes = (
"440 747 LINE",
"377 550 OFFCURVE",
"273 383 OFFCURVE",
"122 226 CURVE",
"182 174 LINE",
"321 320 OFFCURVE",
"439 502 OFFCURVE",
"516 720 CURVE"
);
},
{
closed = 1;
nodes = (
"362 157 LINE",
"289 35 OFFCURVE",
"201 -67 OFFCURVE",
"89 -163 CURVE",
"146 -217 LINE",
"254 -119 OFFCURVE",
"346 -17 OFFCURVE",
"420 106 CURVE"
);
}
);
width = 600;
}
);
unicode = 1B194;
},
{
glyphname = u1B195;
lastChange = "2020-01-16 14:46:41 +0000";
layers = (
{
layerId = "CFFEBDE4-599A-46B2-9328-D96E42CD9C81";
paths = (
{
closed = 1;
nodes = (
"302 1028 OFFCURVE",
"302 996 OFFCURVE",
"302 909 CURVE SMOOTH",
"302 570 OFFCURVE",
"184 346 OFFCURVE",
"-1 150 CURVE",
"62 92 LINE",
"242 286 OFFCURVE",
"385 525 OFFCURVE",
"385 916 CURVE SMOOTH",
"385 977 OFFCURVE",
"385 1030 OFFCURVE",
"385 1069 CURVE",
"302 1069 LINE"
);
},
{
closed = 1;
nodes = (
"267 582 LINE",
"361 284 OFFCURVE",
"394 35 OFFCURVE",
"394 -293 CURVE",
"480 -293 LINE",
"480 73 OFFCURVE",
"438 327 OFFCURVE",
"324 636 CURVE"
);
},
{
closed = 1;
nodes = (
"50 683 LINE",
"42 652 OFFCURVE",
"31 624 OFFCURVE",
"18 599 CURVE",
"86 567 LINE",
"103 592 OFFCURVE",
"115 621 OFFCURVE",
"117 659 CURVE"
);
},
{
closed = 1;
nodes = (
"535 510 LINE",
"527 479 OFFCURVE",
"516 451 OFFCURVE",
"503 426 CURVE",
"571 394 LINE",
"588 419 OFFCURVE",
"600 448 OFFCURVE",
"602 486 CURVE"
);
}
);
width = 600;
}
);
unicode = 1B195;
},
{
glyphname = u1B196;
lastChange = "2020-01-16 14:49:24 +0000";
layers = (
{
layerId = "CFFEBDE4-599A-46B2-9328-D96E42CD9C81";
paths = (
{
closed = 1;
nodes = (
"328 751 OFFCURVE",
"188 472 OFFCURVE",
"-8 132 CURVE",
"65 92 LINE",
"266 445 OFFCURVE",
"386 689 OFFCURVE",
"501 1009 CURVE",
"444 1009 LINE",
"483 927 OFFCURVE",
"498 855 OFFCURVE",
"506 761 CURVE",
"595 777 LINE",
"583 877 OFFCURVE",
"560 975 OFFCURVE",
"513 1069 CURVE",
"436 1069 LINE"
);
},
{
closed = 1;
nodes = (
"304 689 OFFCURVE",
"425 198 OFFCURVE",
"462 -299 CURVE",
"547 -286 LINE",
"513 233 OFFCURVE",
"358 770 OFFCURVE",
"196 1069 CURVE",
"105 1069 LINE",
"85 878 OFFCURVE",
"59 753 OFFCURVE",
"8 600 CURVE",
"85 568 LINE",
"131 713 OFFCURVE",
"167 842 OFFCURVE",
"181 1024 CURVE",
"124 1021 LINE"
);
}
);
width = 600;
}
);
unicode = 1B196;
},
{
glyphname = u1B197;
lastChange = "2020-01-16 14:51:49 +0000";
layers = (
{
layerId = "CFFEBDE4-599A-46B2-9328-D96E42CD9C81";
paths = (
{
closed = 1;
nodes = (
"447 1034 LINE",
"362 788 OFFCURVE",
"210 547 OFFCURVE",
"-8 392 CURVE",
"47 329 LINE",
"279 500 OFFCURVE",
"443 762 OFFCURVE",
"529 1017 CURVE"
);
},
{
closed = 1;
nodes = (
"502 163 LINE",
"413 29 OFFCURVE",
"288 -119 OFFCURVE",
"130 -225 CURVE",
"176 -293 LINE",
"344 -169 OFFCURVE",
"476 -35 OFFCURVE",
"575 125 CURVE"
);
},
{
closed = 1;
nodes = (
"387 -65 LINE",
"366 304 OFFCURVE",
"288 713 OFFCURVE",
"179 1069 CURVE",
"89 1069 LINE",
"216 695 OFFCURVE",
"292 203 OFFCURVE",
"313 -119 CURVE"
);
},
{
closed = 1;
nodes = (
"481 561 LINE",
"392 427 OFFCURVE",
"212 209 OFFCURVE",
"54 103 CURVE",
"100 35 LINE",
"268 159 OFFCURVE",
"450 354 OFFCURVE",
"549 514 CURVE"
);
}
);
width = 600;
}
);
unicode = 1B197;
},
{
glyphname = u1B198;
lastChange = "2020-01-16 14:54:47 +0000";
layers = (
{
layerId = "CFFEBDE4-599A-46B2-9328-D96E42CD9C81";
paths = (
{
closed = 1;
nodes = (
"420 1069 LINE",
"356 909 OFFCURVE",
"256 760 OFFCURVE",
"84 631 CURVE",
"110 516 OFFCURVE",
"114 427 OFFCURVE",
"114 325 CURVE SMOOTH",
"114 158 OFFCURVE",
"80 -32 OFFCURVE",
"1 -276 CURVE",
"80 -303 LINE",
"166 -46 OFFCURVE",
"200 169 OFFCURVE",
"200 325 CURVE SMOOTH",
"200 435 OFFCURVE",
"189 536 OFFCURVE",
"168 639 CURVE",
"163 593 LINE",
"310 722 OFFCURVE",
"421 864 OFFCURVE",
"503 1069 CURVE"
);
},
{
closed = 1;
nodes = (
"330 436 OFFCURVE",
"339 391 OFFCURVE",
"428 288 CURVE",
"533 288 LINE",
"572 391 OFFCURVE",
"589 438 OFFCURVE",
"589 565 CURVE SMOOTH",
"589 739 OFFCURVE",
"478 832 OFFCURVE",
"390 917 CURVE",
"352 839 LINE",
"421 771 OFFCURVE",
"503 703 OFFCURVE",
"503 554 CURVE SMOOTH",
"503 451 OFFCURVE",
"487 412 OFFCURVE",
"460 312 CURVE",
"497 321 LINE",
"433 395 OFFCURVE",
"414 439 OFFCURVE",
"414 512 CURVE SMOOTH",
"414 589 OFFCURVE",
"433 649 OFFCURVE",
"485 730 CURVE",
"456 802 LINE",
"364 709 OFFCURVE",
"330 595 OFFCURVE",
"330 511 CURVE SMOOTH"
);
}
);
width = 600;
}
);
unicode = 1B198;
},
{
glyphname = u1B199;
lastChange = "2020-01-16 14:55:43 +0000";
layers = (
{
layerId = "CFFEBDE4-599A-46B2-9328-D96E42CD9C81";
paths = (
{
closed = 1;
nodes = (
"314 1076 LINE",
"279 778 OFFCURVE",
"198 575 OFFCURVE",
"46 380 CURVE",
"104 323 LINE",
"266 536 OFFCURVE",
"354 745 OFFCURVE",
"399 1069 CURVE"
);
},
{
closed = 1;
nodes = (
"286 799 LINE",
"386 697 OFFCURVE",
"510 539 OFFCURVE",
"596 375 CURVE",
"664 429 LINE",
"569 595 OFFCURVE",
"440 759 OFFCURVE",
"333 864 CURVE"
);
},
{
closed = 1;
nodes = (
"310 531 LINE",
"275 233 OFFCURVE",
"165 -21 OFFCURVE",
"13 -216 CURVE",
"71 -273 LINE",
"233 -60 OFFCURVE",
"350 200 OFFCURVE",
"395 524 CURVE"
);
},
{
closed = 1;
nodes = (
"286 284 LINE",
"386 182 OFFCURVE",
"462 89 OFFCURVE",
"548 -75 CURVE",
"616 -21 LINE",
"521 145 OFFCURVE",
"440 244 OFFCURVE",
"333 349 CURVE"
);
}
);
width = 700;
}
);
unicode = 1B199;
},
{
glyphname = u1B19A;
lastChange = "2020-01-16 15:59:50 +0000";
layers = (
{
layerId = "CFFEBDE4-599A-46B2-9328-D96E42CD9C81";
paths = (
{
closed = 1;
nodes = (
"365 1011 OFFCURVE",
"373 924 OFFCURVE",
"373 841 CURVE SMOOTH",
"373 691 OFFCURVE",
"310 586 OFFCURVE",
"163 461 CURVE",
"202 383 LINE",
"378 528 OFFCURVE",
"459 675 OFFCURVE",
"459 850 CURVE SMOOTH",
"459 924 OFFCURVE",
"451 1011 OFFCURVE",
"435 1069 CURVE",
"349 1069 LINE"
);
},
{
closed = 1;
nodes = (
"124 672 OFFCURVE",
"141 591 OFFCURVE",
"141 468 CURVE SMOOTH",
"141 371 OFFCURVE",
"103 242 OFFCURVE",
"41 111 CURVE",
"120 78 LINE",
"201 223 OFFCURVE",
"227 355 OFFCURVE",
"227 477 CURVE SMOOTH",
"227 591 OFFCURVE",
"210 688 OFFCURVE",
"159 788 CURVE",
"73 772 LINE"
);
},
{
closed = 1;
nodes = (
"352 -293 LINE",
"456 -194 OFFCURVE",
"543 -40 OFFCURVE",
"587 144 CURVE",
"504 165 LINE",
"468 8 OFFCURVE",
"405 -119 OFFCURVE",
"317 -231 CURVE",
"345 -246 LINE",
"382 -138 OFFCURVE",
"404 -51 OFFCURVE",
"404 76 CURVE SMOOTH",
"404 273 OFFCURVE",
"349 387 OFFCURVE",
"248 499 CURVE",
"189 437 LINE",
"276 343 OFFCURVE",
"318 218 OFFCURVE",
"318 92 CURVE SMOOTH",
"318 -22 OFFCURVE",
"302 -149 OFFCURVE",
"260 -293 CURVE"
);
}
);
width = 600;
}
);
unicode = 1B19A;
},
{
glyphname = u1B19B;
lastChange = "2020-01-16 16:01:25 +0000";
layers = (
{
layerId = "CFFEBDE4-599A-46B2-9328-D96E42CD9C81";
paths = (
{
closed = 1;
nodes = (
"370 717 OFFCURVE",
"205 315 OFFCURVE",
"-2 53 CURVE",
"71 13 LINE",
"292 288 OFFCURVE",
"453 693 OFFCURVE",
"510 1069 CURVE",
"424 1069 LINE"
);
},
{
closed = 1;
nodes = (
"541 -281 LINE",
"459 226 OFFCURVE",
"315 643 OFFCURVE",
"143 895 CURVE",
"72 847 LINE",
"262 562 OFFCURVE",
"374 175 OFFCURVE",
"459 -310 CURVE"
);
},
{
closed = 1;
nodes = (
"96 578 LINE",
"88 547 OFFCURVE",
"77 519 OFFCURVE",
"64 494 CURVE",
"132 462 LINE",
"149 487 OFFCURVE",
"161 516 OFFCURVE",
"163 554 CURVE"
);
},
{
closed = 1;
nodes = (
"36 401 LINE",
"28 370 OFFCURVE",
"17 342 OFFCURVE",
"4 317 CURVE",
"72 285 LINE",
"89 310 OFFCURVE",
"101 339 OFFCURVE",
"103 377 CURVE"
);
}
);
width = 600;
}
);
unicode = 1B19B;
},
{
glyphname = u1B19C;
lastChange = "2020-01-16 16:05:26 +0000";
layers = (
{
layerId = "CFFEBDE4-599A-46B2-9328-D96E42CD9C81";
paths = (
{
closed = 1;
nodes = (
"272 157 LINE",
"243 332 OFFCURVE",
"184 499 OFFCURVE",
"84 642 CURVE",
"6 608 LINE",
"105 465 OFFCURVE",
"160 309 OFFCURVE",
"195 128 CURVE",
"297 128 LINE",
"430 335 OFFCURVE",
"463 525 OFFCURVE",
"463 783 CURVE SMOOTH",
"463 903 OFFCURVE",
"453 987 OFFCURVE",
"440 1069 CURVE",
"354 1069 LINE",
"367 987 OFFCURVE",
"377 903 OFFCURVE",
"377 774 CURVE SMOOTH",
"377 514 OFFCURVE",
"339 346 OFFCURVE",
"225 153 CURVE"
);
},
{
closed = 1;
nodes = (
"462 245 LINE",
"407 163 OFFCURVE",
"378 87 OFFCURVE",
"378 25 CURVE SMOOTH",
"378 -82 OFFCURVE",
"424 -160 OFFCURVE",
"481 -199 CURVE",
"545 -143 LINE",
"494 -101 OFFCURVE",
"461 -37 OFFCURVE",
"461 25 CURVE SMOOTH",
"461 88 OFFCURVE",
"493 141 OFFCURVE",
"536 210 CURVE"
);
},
{
closed = 1;
nodes = (
"121 -308 LINE",
"159 -249 OFFCURVE",
"176 -152 OFFCURVE",
"176 -89 CURVE SMOOTH",
"176 13 OFFCURVE",
"116 91 OFFCURVE",
"55 150 CURVE",
"1 93 LINE",
"67 32 OFFCURVE",
"93 -32 OFFCURVE",
"93 -89 CURVE SMOOTH",
"93 -153 OFFCURVE",
"75 -231 OFFCURVE",
"35 -290 CURVE"
);
}
);
width = 600;
}
);
unicode = 1B19C;
},
{
glyphname = u1B19D;
lastChange = "2020-01-16 16:07:33 +0000";
layers = (
{
layerId = "CFFEBDE4-599A-46B2-9328-D96E42CD9C81";
paths = (
{
closed = 1;
nodes = (
"284 1076 LINE",
"236 839 OFFCURVE",
"146 624 OFFCURVE",
"5 409 CURVE",
"74 363 LINE",
"222 594 OFFCURVE",
"304 797 OFFCURVE",
"369 1069 CURVE"
);
},
{
closed = 1;
nodes = (
"284 922 LINE",
"384 758 OFFCURVE",
"487 576 OFFCURVE",
"556 385 CURVE",
"634 429 LINE",
"556 622 OFFCURVE",
"438 830 OFFCURVE",
"331 997 CURVE"
);
},
{
closed = 1;
nodes = (
"401 548 LINE",
"328 338 OFFCURVE",
"246 153 OFFCURVE",
"71 -34 CURVE",
"128 -92 LINE",
"313 131 OFFCURVE",
"392 262 OFFCURVE",
"472 510 CURVE"
);
},
{
closed = 1;
nodes = (
"171 449 LINE",
"300 213 OFFCURVE",
"379 -40 OFFCURVE",
"445 -293 CURVE",
"526 -283 LINE",
"450 3 OFFCURVE",
"360 247 OFFCURVE",
"236 491 CURVE"
);
}
);
width = 650;
}
);
unicode = 1B19D;
},
{
glyphname = u1B19E;
lastChange = "2020-01-16 16:10:26 +0000";
layers = (
{
layerId = "CFFEBDE4-599A-46B2-9328-D96E42CD9C81";
paths = (
{
closed = 1;
nodes = (
"438 1069 LINE",
"353 823 OFFCURVE",
"210 547 OFFCURVE",
"-8 392 CURVE",
"47 329 LINE",
"279 500 OFFCURVE",
"443 814 OFFCURVE",
"529 1069 CURVE"
);
},
{
closed = 1;
nodes = (
"266 -261 LINE",
"322 -89 OFFCURVE",
"347 75 OFFCURVE",
"347 223 CURVE SMOOTH",
"347 406 OFFCURVE",
"325 540 OFFCURVE",
"288 653 CURVE",
"214 605 LINE",
"248 495 OFFCURVE",
"266 361 OFFCURVE",
"266 231 CURVE SMOOTH",
"266 72 OFFCURVE",
"239 -104 OFFCURVE",
"184 -293 CURVE",
"292 -293 LINE",
"405 -190 OFFCURVE",
"513 -25 OFFCURVE",
"575 125 CURVE",
"507 159 LINE",
"438 17 OFFCURVE",
"347 -127 OFFCURVE",
"234 -245 CURVE"
);
},
{
closed = 1;
nodes = (
"461 546 LINE",
"372 412 OFFCURVE",
"192 194 OFFCURVE",
"34 88 CURVE",
"80 20 LINE",
"248 144 OFFCURVE",
"430 339 OFFCURVE",
"529 499 CURVE"
);
}
);
width = 600;
}
);
unicode = 1B19E;
},
{
glyphname = u1B19F;
lastChange = "2020-01-16 16:12:10 +0000";
layers = (
{
layerId = "CFFEBDE4-599A-46B2-9328-D96E42CD9C81";
paths = (
{
closed = 1;
nodes = (
"242 387 LINE",
"374 217 OFFCURVE",
"458 60 OFFCURVE",
"528 -151 CURVE",
"598 -114 LINE",
"524 122 OFFCURVE",
"438 262 OFFCURVE",
"299 449 CURVE",
"296 387 LINE",
"464 590 OFFCURVE",
"505 790 OFFCURVE",
"505 1069 CURVE",
"420 1069 LINE",
"420 816 OFFCURVE",
"401 638 OFFCURVE",
"242 458 CURVE"
);
},
{
closed = 1;
nodes = (
"460 604 OFFCURVE",
"482 523 OFFCURVE",
"482 435 CURVE SMOOTH",
"482 201 OFFCURVE",
"334 -63 OFFCURVE",
"164 -279 CURVE",
"229 -325 LINE",
"415 -78 OFFCURVE",
"568 175 OFFCURVE",
"568 446 CURVE SMOOTH",
"568 563 OFFCURVE",
"516 664 OFFCURVE",
"431 745 CURVE",
"393 667 LINE"
);
},
{
closed = 1;
nodes = (
"40 382 LINE",
"107 272 OFFCURVE",
"137 132 OFFCURVE",
"137 -23 CURVE",
"217 -33 LINE",
"215 135 OFFCURVE",
"181 308 OFFCURVE",
"111 424 CURVE"
);
}
);
width = 600;
}
);
unicode = 1B19F;
},
{
glyphname = u1B1A0;
lastChange = "2020-01-16 16:14:30 +0000";
layers = (
{
layerId = "CFFEBDE4-599A-46B2-9328-D96E42CD9C81";
paths = (
{
closed = 1;
nodes = (
"336 542 LINE",
"418 681 OFFCURVE",
"469 800 OFFCURVE",
"501 945 CURVE",
"444 945 LINE",
"483 863 OFFCURVE",
"508 743 OFFCURVE",
"516 609 CURVE",
"605 625 LINE",
"593 765 OFFCURVE",
"560 911 OFFCURVE",
"513 1005 CURVE",
"436 1005 LINE",
"403 868 OFFCURVE",
"357 743 OFFCURVE",
"287 621 CURVE"
);
},
{
closed = 1;
nodes = (
"386 603 OFFCURVE",
"328 845 OFFCURVE",
"196 1069 CURVE",
"105 1069 LINE",
"88 859 OFFCURVE",
"59 693 OFFCURVE",
"8 540 CURVE",
"85 508 LINE",
"131 653 OFFCURVE",
"170 823 OFFCURVE",
"181 1024 CURVE",
"124 1021 LINE",
"247 823 OFFCURVE",
"301 592 OFFCURVE",
"301 382 CURVE SMOOTH",
"301 105 OFFCURVE",
"257 -57 OFFCURVE",
"148 -267 CURVE",
"229 -298 LINE",
"340 -92 OFFCURVE",
"386 102 OFFCURVE",
"386 382 CURVE SMOOTH"
);
}
);
width = 600;
}
);
unicode = 1B1A0;
},
{
glyphname = u1B1A1;
lastChange = "2020-01-16 16:16:43 +0000";
layers = (
{
layerId = "CFFEBDE4-599A-46B2-9328-D96E42CD9C81";
paths = (
{
closed = 1;
nodes = (
"384 1069 LINE",
"349 704 OFFCURVE",
"233 409 OFFCURVE",
"-4 178 CURVE",
"54 121 LINE",
"303 366 OFFCURVE",
"422 671 OFFCURVE",
"464 1069 CURVE"
);
},
{
closed = 1;
nodes = (
"115 830 LINE",
"107 799 OFFCURVE",
"96 771 OFFCURVE",
"83 746 CURVE",
"151 714 LINE",
"168 739 OFFCURVE",
"180 768 OFFCURVE",
"182 806 CURVE"
);
},
{
closed = 1;
nodes = (
"326 -261 LINE",
"370 78 OFFCURVE",
"366 317 OFFCURVE",
"298 510 CURVE",
"224 462 LINE",
"289 275 OFFCURVE",
"282 11 OFFCURVE",
"234 -293 CURVE",
"352 -293 LINE",
"481 -139 OFFCURVE",
"577 48 OFFCURVE",
"600 242 CURVE",
"521 271 LINE",
"491 85 OFFCURVE",
"423 -76 OFFCURVE",
"294 -245 CURVE"
);
}
);
width = 600;
}
);
unicode = 1B1A1;
},
{
glyphname = u1B1A2;
lastChange = "2020-01-16 16:19:53 +0000";
layers = (
{
layerId = "CFFEBDE4-599A-46B2-9328-D96E42CD9C81";
paths = (
{
closed = 1;
nodes = (
"315 -252 LINE",
"248 10 OFFCURVE",
"178 205 OFFCURVE",
"64 425 CURVE",
"-5 379 LINE",
"102 175 OFFCURVE",
"194 -65 OFFCURVE",
"244 -292 CURVE",
"325 -292 LINE",
"439 -102 OFFCURVE",
"553 218 OFFCURVE",
"580 564 CURVE",
"499 584 LINE",
"475 235 OFFCURVE",
"377 -47 OFFCURVE",
"272 -252 CURVE"
);
},
{
closed = 1;
nodes = (
"408 1069 LINE",
"373 746 OFFCURVE",
"273 459 OFFCURVE",
"98 213 CURVE",
"155 155 LINE",
"340 437 OFFCURVE",
"450 714 OFFCURVE",
"491 1069 CURVE"
);
},
{
closed = 1;
nodes = (
"55 824 LINE",
"217 659 OFFCURVE",
"353 384 OFFCURVE",
"444 109 CURVE",
"499 178 LINE",
"398 486 OFFCURVE",
"277 693 OFFCURVE",
"120 866 CURVE"
);
}
);
width = 600;
}
);
unicode = 1B1A2;
},
{
glyphname = u1B1A3;
lastChange = "2020-01-16 16:22:07 +0000";
layers = (
{
layerId = "CFFEBDE4-599A-46B2-9328-D96E42CD9C81";
paths = (
{
closed = 1;
nodes = (
"117 -236 LINE",
"308 -115 OFFCURVE",
"394 109 OFFCURVE",
"394 266 CURVE SMOOTH",
"394 450 OFFCURVE",
"338 591 OFFCURVE",
"249 699 CURVE",
"182 639 LINE",
"276 529 OFFCURVE",
"318 405 OFFCURVE",
"318 266 CURVE SMOOTH",
"318 108 OFFCURVE",
"251 -48 OFFCURVE",
"67 -178 CURVE"
);
},
{
closed = 1;
nodes = (
"344 1069 LINE",
"313 807 OFFCURVE",
"219 661 OFFCURVE",
"9 517 CURVE",
"55 451 LINE",
"289 612 OFFCURVE",
"392 785 OFFCURVE",
"434 1069 CURVE"
);
},
{
closed = 1;
nodes = (
"459 734 LINE",
"373 574 OFFCURVE",
"242 428 OFFCURVE",
"107 331 CURVE",
"152 263 LINE",
"318 393 OFFCURVE",
"439 520 OFFCURVE",
"533 693 CURVE"
);
},
{
closed = 1;
nodes = (
"137 126 LINE",
"297 40 OFFCURVE",
"375 -108 OFFCURVE",
"420 -289 CURVE",
"498 -270 LINE",
"443 -55 OFFCURVE",
"351 106 OFFCURVE",
"178 200 CURVE"
);
}
);
width = 600;
}
);
unicode = 1B1A3;
},
{
glyphname = u1B1A4;
lastChange = "2020-01-16 16:25:55 +0000";
layers = (
{
layerId = "CFFEBDE4-599A-46B2-9328-D96E42CD9C81";
paths = (
{
closed = 1;
nodes = (
"324 232 OFFCURVE",
"354 162 OFFCURVE",
"354 131 CURVE SMOOTH",
"354 76 OFFCURVE",
"328 -9 OFFCURVE",
"128 -277 CURVE",
"204 -316 LINE",
"420 -20 OFFCURVE",
"440 61 OFFCURVE",
"440 131 CURVE SMOOTH",
"440 180 OFFCURVE",
"405 264 OFFCURVE",
"268 410 CURVE SMOOTH",
"154 531 OFFCURVE",
"127 585 OFFCURVE",
"127 641 CURVE SMOOTH",
"127 684 OFFCURVE",
"149 770 OFFCURVE",
"344 1069 CURVE",
"250 1069 LINE",
"76 783 OFFCURVE",
"44 698 OFFCURVE",
"44 630 CURVE SMOOTH",
"44 561 OFFCURVE",
"70 510 OFFCURVE",
"196 372 CURVE SMOOTH"
);
},
{
closed = 1;
nodes = (
"363 704 LINE",
"302 556 OFFCURVE",
"147 267 OFFCURVE",
"12 133 CURVE",
"71 75 LINE",
"212 229 OFFCURVE",
"373 495 OFFCURVE",
"439 671 CURVE"
);
}
);
width = 500;
}
);
unicode = 1B1A4;
},
{
glyphname = u1B1A5;
lastChange = "2020-01-16 16:33:46 +0000";
layers = (
{
layerId = "CFFEBDE4-599A-46B2-9328-D96E42CD9C81";
paths = (
{
closed = 1;
nodes = (
"258 1069 LINE",
"258 857 OFFCURVE",
"207 699 OFFCURVE",
"84 528 CURVE",
"110 413 OFFCURVE",
"114 342 OFFCURVE",
"114 233 CURVE SMOOTH",
"114 95 OFFCURVE",
"101 -16 OFFCURVE",
"60 -139 CURVE",
"139 -166 LINE",
"187 -30 OFFCURVE",
"200 106 OFFCURVE",
"200 233 CURVE SMOOTH",
"200 350 OFFCURVE",
"186 432 OFFCURVE",
"165 535 CURVE",
"160 489 LINE",
"282 660 OFFCURVE",
"341 847 OFFCURVE",
"341 1069 CURVE"
);
},
{
closed = 1;
nodes = (
"452 859 LINE",
"406 579 OFFCURVE",
"334 368 OFFCURVE",
"131 225 CURVE",
"178 168 LINE",
"365 301 OFFCURVE",
"483 536 OFFCURVE",
"528 846 CURVE"
);
},
{
closed = 1;
nodes = (
"380 -301 LINE",
"413 -149 OFFCURVE",
"429 -9 OFFCURVE",
"429 118 CURVE SMOOTH",
"429 397 OFFCURVE",
"366 602 OFFCURVE",
"268 753 CURVE",
"208 703 LINE",
"294 569 OFFCURVE",
"348 366 OFFCURVE",
"348 118 CURVE SMOOTH",
"348 -4 OFFCURVE",
"333 -138 OFFCURVE",
"302 -279 CURVE"
);
}
);
width = 600;
}
);
unicode = 1B1A5;
},
{
glyphname = u1B1A6;
lastChange = "2020-01-16 16:36:34 +0000";
layers = (
{
layerId = "CFFEBDE4-599A-46B2-9328-D96E42CD9C81";
paths = (
{
closed = 1;
nodes = (
"353 1069 LINE",
"281 816 OFFCURVE",
"179 570 OFFCURVE",
"1 336 CURVE",
"65 290 LINE",
"229 515 OFFCURVE",
"355 778 OFFCURVE",
"434 1069 CURVE"
);
},
{
closed = 1;
nodes = (
"82 927 LINE",
"235 710 OFFCURVE",
"360 400 OFFCURVE",
"455 106 CURVE",
"526 133 LINE",
"421 460 OFFCURVE",
"295 744 OFFCURVE",
"147 969 CURVE"
);
},
{
closed = 1;
nodes = (
"451 714 LINE",
"354 447 OFFCURVE",
"240 209 OFFCURVE",
"36 -28 CURVE",
"101 -73 LINE",
"302 176 OFFCURVE",
"426 404 OFFCURVE",
"530 691 CURVE"
);
},
{
closed = 1;
nodes = (
"4 629 LINE",
"182 344 OFFCURVE",
"302 -46 OFFCURVE",
"368 -299 CURVE",
"439 -272 LINE",
"363 14 OFFCURVE",
"242 378 OFFCURVE",
"69 671 CURVE"
);
}
);
width = 550;
}
);
unicode = 1B1A6;
},
{
glyphname = u1B1A7;
lastChange = "2020-01-16 16:37:06 +0000";
layers = (
{
layerId = "CFFEBDE4-599A-46B2-9328-D96E42CD9C81";
paths = (
{
closed = 1;
nodes = (
"438 1069 LINE",
"353 823 OFFCURVE",
"210 547 OFFCURVE",
"-8 392 CURVE",
"47 329 LINE",
"279 500 OFFCURVE",
"443 814 OFFCURVE",
"529 1069 CURVE"
);
},
{
closed = 1;
nodes = (
"461 546 LINE",
"372 412 OFFCURVE",
"192 194 OFFCURVE",
"34 88 CURVE",
"80 20 LINE",
"248 144 OFFCURVE",
"430 339 OFFCURVE",
"529 499 CURVE"
);
},
{
closed = 1;
nodes = (
"502 163 LINE",
"413 29 OFFCURVE",
"288 -119 OFFCURVE",
"130 -225 CURVE",
"176 -293 LINE",
"344 -169 OFFCURVE",
"476 -35 OFFCURVE",
"575 125 CURVE"
);
},
{
closed = 1;
nodes = (
"220 564 LINE",
"270 317 OFFCURVE",
"301 70 OFFCURVE",
"313 -119 CURVE",
"387 -65 LINE",
"374 161 OFFCURVE",
"340 403 OFFCURVE",
"290 637 CURVE"
);
}
);
width = 600;
}
);
unicode = 1B1A7;
},
{
glyphname = u1B1A8;
lastChange = "2020-01-16 16:38:07 +0000";
layers = (
{
layerId = "CFFEBDE4-599A-46B2-9328-D96E42CD9C81";
paths = (
{
closed = 1;
nodes = (
"322 -296 LINE",
"372 -127 OFFCURVE",
"394 49 OFFCURVE",
"394 206 CURVE SMOOTH",
"394 390 OFFCURVE",
"338 552 OFFCURVE",
"249 660 CURVE",
"182 600 LINE",
"276 490 OFFCURVE",
"308 345 OFFCURVE",
"308 206 CURVE SMOOTH",
"308 48 OFFCURVE",
"288 -109 OFFCURVE",
"236 -278 CURVE"
);
},
{
closed = 1;
nodes = (
"344 1069 LINE",
"300 830 OFFCURVE",
"194 612 OFFCURVE",
"-3 458 CURVE",
"55 401 LINE",
"261 578 OFFCURVE",
"375 808 OFFCURVE",
"430 1069 CURVE"
);
},
{
closed = 1;
nodes = (
"468 725 LINE",
"382 529 OFFCURVE",
"249 333 OFFCURVE",
"39 164 CURVE",
"97 107 LINE",
"325 298 OFFCURVE",
"443 477 OFFCURVE",
"537 697 CURVE"
);
},
{
closed = 1;
nodes = (
"104 -9 LINE",
"96 -40 OFFCURVE",
"85 -68 OFFCURVE",
"72 -93 CURVE",
"140 -125 LINE",
"157 -100 OFFCURVE",
"169 -71 OFFCURVE",
"171 -33 CURVE"
);
},
{
closed = 1;
nodes = (
"527 281 LINE",
"519 250 OFFCURVE",
"508 222 OFFCURVE",
"495 197 CURVE",
"563 165 LINE",
"580 190 OFFCURVE",
"592 219 OFFCURVE",
"594 257 CURVE"
);
}
);
width = 600;
}
);
unicode = 1B1A8;
},
{
glyphname = u1B1A9;
lastChange = "2020-01-16 16:39:27 +0000";
layers = (
{
layerId = "CFFEBDE4-599A-46B2-9328-D96E42CD9C81";
paths = (
{
closed = 1;
nodes = (
"316 996 OFFCURVE",
"322 957 OFFCURVE",
"322 897 CURVE SMOOTH",
"322 806 OFFCURVE",
"256 686 OFFCURVE",
"59 538 CURVE",
"113 474 LINE",
"305 620 OFFCURVE",
"405 761 OFFCURVE",
"405 897 CURVE SMOOTH",
"405 956 OFFCURVE",
"400 996 OFFCURVE",
"389 1069 CURVE",
"303 1069 LINE"
);
},
{
closed = 1;
nodes = (
"334 727 OFFCURVE",
"342 680 OFFCURVE",
"342 638 CURVE SMOOTH",
"342 539 OFFCURVE",
"288 442 OFFCURVE",
"59 265 CURVE",
"113 201 LINE",
"341 358 OFFCURVE",
"421 494 OFFCURVE",
"421 642 CURVE SMOOTH",
"421 706 OFFCURVE",
"406 748 OFFCURVE",
"371 811 CURVE",
"309 775 LINE"
);
},
{
closed = 1;
nodes = (
"376 157 LINE",
"376 230 OFFCURVE",
"361 345 OFFCURVE",
"333 442 CURVE",
"261 386 LINE",
"282 290 OFFCURVE",
"290 204 OFFCURVE",
"290 97 CURVE"
);
},
{
closed = 1;
nodes = (
"441 335 LINE",
"355 202 OFFCURVE",
"252 95 OFFCURVE",
"105 0 CURVE",
"145 -71 LINE",
"301 31 OFFCURVE",
"405 145 OFFCURVE",
"508 291 CURVE"
);
},
{
closed = 1;
nodes = (
"424 174 OFFCURVE",
"432 127 OFFCURVE",
"432 85 CURVE SMOOTH",
"432 14 OFFCURVE",
"362 -83 OFFCURVE",
"99 -245 CURVE",
"143 -312 LINE",
"405 -145 OFFCURVE",
"511 -12 OFFCURVE",
"511 89 CURVE SMOOTH",
"511 153 OFFCURVE",
"496 195 OFFCURVE",
"461 258 CURVE",
"399 222 LINE"
);
}
);
width = 600;
}
);
unicode = 1B1A9;
},
{
glyphname = u1B1AA;
lastChange = "2020-01-16 16:50:05 +0000";
layers = (
{
layerId = "CFFEBDE4-599A-46B2-9328-D96E42CD9C81";
paths = (
{
closed = 1;
nodes = (
"437 1013 OFFCURVE",
"445 987 OFFCURVE",
"445 927 CURVE SMOOTH",
"445 826 OFFCURVE",
"408 712 OFFCURVE",
"262 577 CURVE",
"316 513 LINE",
"457 646 OFFCURVE",
"528 781 OFFCURVE",
"528 927 CURVE SMOOTH",
"528 986 OFFCURVE",
"521 1013 OFFCURVE",
"505 1069 CURVE",
"419 1069 LINE"
);
},
{
closed = 1;
nodes = (
"495 717 OFFCURVE",
"504 657 OFFCURVE",
"504 596 CURVE SMOOTH",
"504 513 OFFCURVE",
"455 421 OFFCURVE",
"302 292 CURVE",
"356 228 LINE",
"504 355 OFFCURVE",
"587 468 OFFCURVE",
"587 596 CURVE SMOOTH",
"587 666 OFFCURVE",
"568 750 OFFCURVE",
"497 829 CURVE",
"435 793 LINE"
);
},
{
closed = 1;
nodes = (
"429 379 LINE",
"451 286 OFFCURVE",
"459 236 OFFCURVE",
"459 140 CURVE SMOOTH",
"459 8 OFFCURVE",
"447 -135 OFFCURVE",
"422 -283 CURVE",
"507 -293 LINE",
"531 -153 OFFCURVE",
"548 -20 OFFCURVE",
"548 140 CURVE SMOOTH",
"548 274 OFFCURVE",
"529 349 OFFCURVE",
"491 448 CURVE"
);
},
{
closed = 1;
nodes = (
"18 297 OFFCURVE",
"56 236 OFFCURVE",
"111 150 CURVE",
"186 151 LINE",
"247 296 OFFCURVE",
"262 365 OFFCURVE",
"262 433 CURVE SMOOTH",
"262 482 OFFCURVE",
"221 535 OFFCURVE",
"166 593 CURVE",
"92 593 LINE",
"39 498 OFFCURVE",
"18 423 OFFCURVE",
"18 355 CURVE SMOOTH"
);
},
{
closed = 1;
nodes = (
"117 536 LINE",
"151 489 OFFCURVE",
"182 445 OFFCURVE",
"182 415 CURVE SMOOTH",
"182 379 OFFCURVE",
"172 338 OFFCURVE",
"132 220 CURVE",
"150 226 LINE",
"114 288 OFFCURVE",
"98 328 OFFCURVE",
"98 365 CURVE SMOOTH",
"98 413 OFFCURVE",
"117 465 OFFCURVE",
"151 538 CURVE"
);
}
);
width = 600;
}
);
unicode = 1B1AA;
},
{
glyphname = u1B1AB;
lastChange = "2020-01-16 16:48:10 +0000";
layers = (
{
layerId = "CFFEBDE4-599A-46B2-9328-D96E42CD9C81";
paths = (
{
closed = 1;
nodes = (
"316 1069 LINE",
"316 685 OFFCURVE",
"300 446 OFFCURVE",
"187 121 CURVE",
"259 83 LINE",
"378 425 OFFCURVE",
"396 672 OFFCURVE",
"396 1069 CURVE"
);
},
{
closed = 1;
nodes = (
"334 616 LINE",
"389 535 OFFCURVE",
"420 450 OFFCURVE",
"471 301 CURVE",
"549 333 LINE",
"489 496 OFFCURVE",
"451 579 OFFCURVE",
"381 691 CURVE"
);
},
{
closed = 1;
nodes = (
"363 815 OFFCURVE",
"193 710 OFFCURVE",
"17 616 CURVE",
"55 478 OFFCURVE",
"62 383 OFFCURVE",
"62 232 CURVE SMOOTH",
"62 96 OFFCURVE",
"42 -99 OFFCURVE",
"-4 -280 CURVE",
"71 -303 LINE",
"130 -123 OFFCURVE",
"145 150 OFFCURVE",
"145 275 CURVE SMOOTH",
"145 373 OFFCURVE",
"132 508 OFFCURVE",
"99 635 CURVE",
"79 562 LINE",
"255 645 OFFCURVE",
"408 755 OFFCURVE",
"558 866 CURVE",
"521 884 LINE",
"582 777 OFFCURVE",
"610 631 OFFCURVE",
"610 505 CURVE SMOOTH",
"610 389 OFFCURVE",
"603 293 OFFCURVE",
"570 121 CURVE",
"658 114 LINE",
"681 251 OFFCURVE",
"697 373 OFFCURVE",
"697 530 CURVE SMOOTH",
"697 685 OFFCURVE",
"658 817 OFFCURVE",
"599 917 CURVE",
"512 942 LINE"
);
}
);
width = 700;
}
);
unicode = 1B1AB;
},
{
glyphname = u1B1AC;
lastChange = "2020-01-16 16:53:49 +0000";
layers = (
{
layerId = "CFFEBDE4-599A-46B2-9328-D96E42CD9C81";
paths = (
{
closed = 1;
nodes = (
"210 457 LINE",
"341 320 OFFCURVE",
"478 87 OFFCURVE",
"539 -141 CURVE",
"614 -114 LINE",
"548 125 OFFCURVE",
"405 365 OFFCURVE",
"267 519 CURVE",
"264 457 LINE",
"388 628 OFFCURVE",
"476 818 OFFCURVE",
"494 1069 CURVE",
"409 1069 LINE",
"391 844 OFFCURVE",
"325 676 OFFCURVE",
"210 528 CURVE"
);
},
{
closed = 1;
nodes = (
"448 666 OFFCURVE",
"475 583 OFFCURVE",
"475 469 CURVE SMOOTH",
"475 261 OFFCURVE",
"359 -17 OFFCURVE",
"63 -269 CURVE",
"127 -325 LINE",
"439 -42 OFFCURVE",
"557 235 OFFCURVE",
"557 480 CURVE SMOOTH",
"557 623 OFFCURVE",
"504 726 OFFCURVE",
"397 823 CURVE",
"359 745 LINE"
);
},
{
closed = 1;
nodes = (
"223 341 LINE",
"169 222 OFFCURVE",
"91 103 OFFCURVE",
"-4 -13 CURVE",
"51 -75 LINE",
"154 47 OFFCURVE",
"234 173 OFFCURVE",
"294 291 CURVE"
);
},
{
closed = 1;
nodes = (
"37 242 LINE",
"107 149 OFFCURVE",
"152 63 OFFCURVE",
"187 -29 CURVE",
"264 14 LINE",
"224 126 OFFCURVE",
"164 222 OFFCURVE",
"106 292 CURVE"
);
}
);
width = 600;
}
);
unicode = 1B1AC;
},
{
glyphname = u1B1AD;
lastChange = "2020-01-16 16:55:54 +0000";
layers = (
{
layerId = "CFFEBDE4-599A-46B2-9328-D96E42CD9C81";
paths = (
{
closed = 1;
nodes = (
"334 1076 LINE",
"260 803 OFFCURVE",
"159 614 OFFCURVE",
"-3 428 CURVE",
"55 371 LINE",
"227 575 OFFCURVE",
"335 770 OFFCURVE",
"419 1069 CURVE"
);
},
{
closed = 1;
nodes = (
"296 904 LINE",
"396 802 OFFCURVE",
"530 639 OFFCURVE",
"616 475 CURVE",
"684 529 LINE",
"589 695 OFFCURVE",
"450 864 OFFCURVE",
"343 969 CURVE"
);
},
{
closed = 1;
nodes = (
"351 644 LINE",
"292 504 OFFCURVE",
"214 353 OFFCURVE",
"84 208 CURVE",
"142 151 LINE",
"282 314 OFFCURVE",
"359 448 OFFCURVE",
"428 614 CURVE"
);
},
{
closed = 1;
nodes = (
"418 402 LINE",
"355 273 OFFCURVE",
"285 146 OFFCURVE",
"155 1 CURVE",
"213 -56 LINE",
"353 107 OFFCURVE",
"422 217 OFFCURVE",
"495 372 CURVE"
);
},
{
closed = 1;
nodes = (
"522 214 LINE",
"438 56 OFFCURVE",
"329 -112 OFFCURVE",
"189 -247 CURVE",
"247 -304 LINE",
"397 -151 OFFCURVE",
"505 0 OFFCURVE",
"599 184 CURVE"
);
}
);
width = 700;
}
);
unicode = 1B1AD;
},
{
glyphname = u1B1AE;
lastChange = "2020-01-16 16:58:19 +0000";
layers = (
{
layerId = "CFFEBDE4-599A-46B2-9328-D96E42CD9C81";
paths = (
{
closed = 1;
nodes = (
"223 430 LINE",
"181 535 OFFCURVE",
"119 641 OFFCURVE",
"63 708 CURVE",
"-3 666 LINE",
"58 589 OFFCURVE",
"119 493 OFFCURVE",
"166 371 CURVE",
"253 371 LINE",
"359 567 OFFCURVE",
"435 770 OFFCURVE",
"479 1069 CURVE",
"394 1076 LINE",
"360 803 OFFCURVE",
"291 606 OFFCURVE",
"195 428 CURVE"
);
},
{
closed = 1;
nodes = (
"375 884 LINE",
"473 772 OFFCURVE",
"550 639 OFFCURVE",
"608 490 CURVE",
"684 529 LINE",
"609 695 OFFCURVE",
"527 834 OFFCURVE",
"422 949 CURVE"
);
},
{
closed = 1;
nodes = (
"430 537 LINE",
"396 397 OFFCURVE",
"303 205 OFFCURVE",
"193 71 CURVE",
"251 14 LINE",
"371 166 OFFCURVE",
"463 341 OFFCURVE",
"507 507 CURVE"
);
},
{
closed = 1;
nodes = (
"532 296 LINE",
"470 102 OFFCURVE",
"375 -96 OFFCURVE",
"223 -251 CURVE",
"281 -308 LINE",
"443 -135 OFFCURVE",
"537 46 OFFCURVE",
"609 266 CURVE"
);
}
);
width = 700;
}
);
unicode = 1B1AE;
},
{
glyphname = u1B1AF;
lastChange = "2020-01-17 11:41:02 +0000";
layers = (
{
layerId = "CFFEBDE4-599A-46B2-9328-D96E42CD9C81";
paths = (
{
closed = 1;
nodes = (
"170 548 OFFCURVE",
"213 426 OFFCURVE",
"213 295 CURVE SMOOTH",
"213 137 OFFCURVE",
"176 -63 OFFCURVE",
"39 -244 CURVE",
"106 -292 LINE",
"238 -113 OFFCURVE",
"296 87 OFFCURVE",
"296 295 CURVE SMOOTH",
"296 425 OFFCURVE",
"251 579 OFFCURVE",
"186 677 CURVE",
"110 641 LINE"
);
},
{
closed = 1;
nodes = (
"462 688 OFFCURVE",
"359 520 OFFCURVE",
"227 456 CURVE",
"262 388 LINE",
"427 470 OFFCURVE",
"548 651 OFFCURVE",
"568 1069 CURVE",
"482 1069 LINE"
);
},
{
closed = 1;
nodes = (
"374 536 LINE",
"427 425 OFFCURVE",
"474 326 OFFCURVE",
"484 164 CURVE",
"571 190 LINE",
"551 370 OFFCURVE",
"504 470 OFFCURVE",
"442 593 CURVE"
);
},
{
closed = 1;
nodes = (
"31 379 LINE",
"23 348 OFFCURVE",
"12 320 OFFCURVE",
"-1 295 CURVE",
"67 263 LINE",
"84 288 OFFCURVE",
"96 317 OFFCURVE",
"98 355 CURVE"
);
},
{
closed = 1;
nodes = (
"270 898 LINE",
"262 867 OFFCURVE",
"251 839 OFFCURVE",
"238 814 CURVE",
"306 782 LINE",
"323 807 OFFCURVE",
"335 836 OFFCURVE",
"337 874 CURVE"
);
}
);
width = 600;
}
);
unicode = 1B1AF;
},
{
glyphname = u1B1B0;
lastChange = "2020-01-16 17:00:19 +0000";
layers = (
{
layerId = "CFFEBDE4-599A-46B2-9328-D96E42CD9C81";
paths = (
{
closed = 1;
nodes = (
"273 436 LINE",
"293 309 OFFCURVE",
"296 210 OFFCURVE",
"296 114 CURVE SMOOTH",
"296 -34 OFFCURVE",
"280 -124 OFFCURVE",
"237 -281 CURVE",
"321 -293 LINE",
"360 -153 OFFCURVE",
"380 -62 OFFCURVE",
"380 114 CURVE SMOOTH",
"380 216 OFFCURVE",
"375 331 OFFCURVE",
"351 458 CURVE"
);
},
{
closed = 1;
nodes = (
"314 1069 LINE",
"313 803 OFFCURVE",
"196 455 OFFCURVE",
"-3 214 CURVE",
"55 157 LINE",
"263 421 OFFCURVE",
"387 781 OFFCURVE",
"399 1069 CURVE"
);
},
{
closed = 1;
nodes = (
"254 690 OFFCURVE",
"414 532 OFFCURVE",
"519 353 CURVE",
"586 402 LINE",
"475 591 OFFCURVE",
"279 770 OFFCURVE",
"65 892 CURVE",
"29 814 LINE"
);
},
{
closed = 1;
nodes = (
"41 639 LINE",
"33 608 OFFCURVE",
"22 580 OFFCURVE",
"9 555 CURVE",
"77 523 LINE",
"94 548 OFFCURVE",
"106 577 OFFCURVE",
"108 615 CURVE"
);
},
{
closed = 1;
nodes = (
"490 822 LINE",
"482 791 OFFCURVE",
"471 763 OFFCURVE",
"458 738 CURVE",
"526 706 LINE",
"543 731 OFFCURVE",
"555 760 OFFCURVE",
"557 798 CURVE"
);
}
);
width = 600;
}
);
unicode = 1B1B0;
},
{
glyphname = u1B1B1;
lastChange = "2020-01-16 17:08:05 +0000";
layers = (
{
layerId = "CFFEBDE4-599A-46B2-9328-D96E42CD9C81";
paths = (
{
closed = 1;
nodes = (
"500 651 LINE",
"465 453 OFFCURVE",
"398 253 OFFCURVE",
"287 43 CURVE",
"330 47 LINE",
"281 382 OFFCURVE",
"204 673 OFFCURVE",
"113 918 CURVE",
"37 886 LINE",
"127 649 OFFCURVE",
"202 375 OFFCURVE",
"257 18 CURVE",
"359 18 LINE",
"489 252 OFFCURVE",
"537 439 OFFCURVE",
"586 635 CURVE"
);
},
{
closed = 1;
nodes = (
"333 501 LINE",
"421 347 OFFCURVE",
"475 188 OFFCURVE",
"525 24 CURVE",
"601 50 LINE",
"547 239 OFFCURVE",
"485 398 OFFCURVE",
"401 544 CURVE"
);
},
{
closed = 1;
nodes = (
"364 1069 LINE",
"275 830 OFFCURVE",
"166 602 OFFCURVE",
"-3 382 CURVE",
"55 325 LINE",
"230 580 OFFCURVE",
"343 787 OFFCURVE",
"449 1069 CURVE"
);
},
{
closed = 1;
nodes = (
"61 154 LINE",
"96 0 OFFCURVE",
"101 -129 OFFCURVE",
"67 -293 CURVE",
"146 -293 LINE",
"175 -128 OFFCURVE",
"175 7 OFFCURVE",
"136 171 CURVE"
);
}
);
width = 600;
}
);
unicode = 1B1B1;
},
{
glyphname = u1B1B2;
lastChange = "2020-01-16 17:10:48 +0000";
layers = (
{
layerId = "CFFEBDE4-599A-46B2-9328-D96E42CD9C81";
paths = (
{
closed = 1;
nodes = (
"419 341 LINE",
"439 242 OFFCURVE",
"442 155 OFFCURVE",
"442 63 CURVE SMOOTH",
"442 -19 OFFCURVE",
"432 -154 OFFCURVE",
"409 -281 CURVE",
"493 -293 LINE",
"512 -183 OFFCURVE",
"526 -47 OFFCURVE",
"526 63 CURVE SMOOTH",
"526 161 OFFCURVE",
"521 264 OFFCURVE",
"497 363 CURVE"
);
},
{
closed = 1;
nodes = (
"391 1069 LINE",
"391 728 OFFCURVE",
"366 461 OFFCURVE",
"232 172 CURVE",
"309 140 LINE",
"447 454 OFFCURVE",
"476 717 OFFCURVE",
"476 1069 CURVE"
);
},
{
closed = 1;
nodes = (
"391 695 OFFCURVE",
"469 555 OFFCURVE",
"524 388 CURVE",
"600 416 LINE",
"545 605 OFFCURVE",
"423 778 OFFCURVE",
"251 872 CURVE",
"214 802 LINE"
);
},
{
closed = 1;
nodes = (
"-2 267 OFFCURVE",
"36 206 OFFCURVE",
"91 120 CURVE",
"166 121 LINE",
"227 266 OFFCURVE",
"242 335 OFFCURVE",
"242 403 CURVE SMOOTH",
"242 452 OFFCURVE",
"201 505 OFFCURVE",
"146 563 CURVE",
"72 563 LINE",
"19 468 OFFCURVE",
"-2 393 OFFCURVE",
"-2 325 CURVE SMOOTH"
);
},
{
closed = 1;
nodes = (
"97 506 LINE",
"131 459 OFFCURVE",
"162 415 OFFCURVE",
"162 385 CURVE SMOOTH",
"162 349 OFFCURVE",
"152 308 OFFCURVE",
"112 190 CURVE",
"130 196 LINE",
"94 258 OFFCURVE",
"78 298 OFFCURVE",
"78 335 CURVE SMOOTH",
"78 383 OFFCURVE",
"97 435 OFFCURVE",
"131 508 CURVE"
);
}
);
width = 600;
}
);
unicode = 1B1B2;
},
{
glyphname = u1B1B3;
lastChange = "2020-01-16 17:02:49 +0000";
layers = (
{
layerId = "CFFEBDE4-599A-46B2-9328-D96E42CD9C81";
paths = (
{
closed = 1;
nodes = (
"286 996 OFFCURVE",
"292 957 OFFCURVE",
"292 897 CURVE SMOOTH",
"292 755 OFFCURVE",
"187 602 OFFCURVE",
"-10 423 CURVE",
"44 359 LINE",
"236 536 OFFCURVE",
"375 710 OFFCURVE",
"375 897 CURVE SMOOTH",
"375 956 OFFCURVE",
"370 996 OFFCURVE",
"359 1069 CURVE",
"273 1069 LINE"
);
},
{
closed = 1;
nodes = (
"342 687 OFFCURVE",
"351 627 OFFCURVE",
"351 566 CURVE SMOOTH",
"351 463 OFFCURVE",
"244 320 OFFCURVE",
"29 154 CURVE",
"83 90 LINE",
"293 254 OFFCURVE",
"434 418 OFFCURVE",
"434 566 CURVE SMOOTH",
"434 636 OFFCURVE",
"415 720 OFFCURVE",
"344 799 CURVE",
"282 763 LINE"
);
},
{
closed = 1;
nodes = (
"256 329 LINE",
"278 236 OFFCURVE",
"286 186 OFFCURVE",
"286 90 CURVE SMOOTH",
"286 0 OFFCURVE",
"276 -113 OFFCURVE",
"230 -270 CURVE",
"314 -293 LINE",
"359 -144 OFFCURVE",
"375 -28 OFFCURVE",
"375 90 CURVE SMOOTH",
"375 224 OFFCURVE",
"356 299 OFFCURVE",
"318 398 CURVE"
);
},
{
closed = 1;
nodes = (
"108 15 LINE",
"100 -16 OFFCURVE",
"89 -44 OFFCURVE",
"76 -69 CURVE",
"144 -101 LINE",
"161 -76 OFFCURVE",
"173 -47 OFFCURVE",
"175 -9 CURVE"
);
},
{
closed = 1;
nodes = (
"499 284 LINE",
"491 253 OFFCURVE",
"480 225 OFFCURVE",
"467 200 CURVE",
"535 168 LINE",
"552 193 OFFCURVE",
"564 222 OFFCURVE",
"566 260 CURVE"
);
}
);
width = 600;
}
);
unicode = 1B1B3;
},
{
glyphname = u1B1B4;
lastChange = "2020-01-17 10:06:43 +0000";
layers = (
{
layerId = "CFFEBDE4-599A-46B2-9328-D96E42CD9C81";
paths = (
{
closed = 1;
nodes = (
"383 381 OFFCURVE",
"232 197 OFFCURVE",
"89 73 CURVE",
"135 5 LINE",
"288 147 OFFCURVE",
"415 299 OFFCURVE",
"514 459 CURVE",
"485 464 LINE",
"498 350 OFFCURVE",
"497 237 OFFCURVE",
"489 95 CURVE",
"520 187 LINE",
"414 28 OFFCURVE",
"300 -113 OFFCURVE",
"172 -224 CURVE",
"201 -236 LINE",
"185 -32 OFFCURVE",
"156 192 OFFCURVE",
"114 392 CURVE",
"92 322 LINE",
"249 483 OFFCURVE",
"428 778 OFFCURVE",
"479 1069 CURVE",
"388 1069 LINE",
"338 787 OFFCURVE",
"180 530 OFFCURVE",
"26 381 CURVE",
"76 134 OFFCURVE",
"115 -101 OFFCURVE",
"127 -290 CURVE",
"206 -293 LINE",
"354 -162 OFFCURVE",
"476 -36 OFFCURVE",
"575 125 CURVE",
"582 284 OFFCURVE",
"577 405 OFFCURVE",
"563 528 CURVE",
"472 554 LINE"
);
}
);
width = 600;
}
);
unicode = 1B1B4;
},
{
glyphname = u1B1B5;
lastChange = "2020-01-17 10:09:45 +0000";
layers = (
{
layerId = "CFFEBDE4-599A-46B2-9328-D96E42CD9C81";
paths = (
{
closed = 1;
nodes = (
"224 689 OFFCURVE",
"290 576 OFFCURVE",
"290 426 CURVE SMOOTH",
"290 297 OFFCURVE",
"251 128 OFFCURVE",
"65 -71 CURVE",
"120 -134 LINE",
"322 96 OFFCURVE",
"376 271 OFFCURVE",
"376 437 CURVE SMOOTH",
"376 590 OFFCURVE",
"293 761 OFFCURVE",
"52 932 CURVE",
"14 862 LINE"
);
},
{
closed = 1;
nodes = (
"244 1076 LINE",
"202 901 OFFCURVE",
"126 748 OFFCURVE",
"32 606 CURVE",
"90 549 LINE",
"194 709 OFFCURVE",
"277 868 OFFCURVE",
"329 1069 CURVE"
);
},
{
closed = 1;
nodes = (
"277 -86 OFFCURVE",
"205 57 OFFCURVE",
"90 233 CURVE",
"32 176 LINE",
"137 18 OFFCURVE",
"202 -119 OFFCURVE",
"244 -294 CURVE",
"329 -287 LINE"
);
},
{
closed = 1;
nodes = (
"492 679 LINE",
"484 648 OFFCURVE",
"473 620 OFFCURVE",
"460 595 CURVE",
"528 563 LINE",
"545 588 OFFCURVE",
"557 617 OFFCURVE",
"559 655 CURVE"
);
},
{
closed = 1;
nodes = (
"492 346 LINE",
"484 315 OFFCURVE",
"473 287 OFFCURVE",
"460 262 CURVE",
"528 230 LINE",
"545 255 OFFCURVE",
"557 284 OFFCURVE",
"559 322 CURVE"
);
}
);
width = 600;
}
);
unicode = 1B1B5;
},
{
glyphname = u1B1B6;
lastChange = "2020-01-17 10:18:09 +0000";
layers = (
{
layerId = "CFFEBDE4-599A-46B2-9328-D96E42CD9C81";
paths = (
{
closed = 1;
nodes = (
"510 354 OFFCURVE",
"553 533 OFFCURVE",
"602 754 CURVE",
"521 774 LINE",
"475 576 OFFCURVE",
"431 386 OFFCURVE",
"391 235 CURVE SMOOTH",
"316 -45 OFFCURVE",
"246 -113 OFFCURVE",
"173 -113 CURVE SMOOTH",
"110 -113 OFFCURVE",
"83 -82 OFFCURVE",
"83 -24 CURVE SMOOTH",
"83 25 OFFCURVE",
"102 83 OFFCURVE",
"133 125 CURVE",
"60 170 LINE",
"19 122 OFFCURVE",
"-10 50 OFFCURVE",
"-10 -30 CURVE SMOOTH",
"-10 -128 OFFCURVE",
"56 -197 OFFCURVE",
"165 -197 CURVE SMOOTH",
"287 -197 OFFCURVE",
"383 -102 OFFCURVE",
"450 138 CURVE SMOOTH"
);
},
{
closed = 1;
nodes = (
"344 1069 LINE",
"312 875 OFFCURVE",
"253 648 OFFCURVE",
"173 491 CURVE",
"230 433 LINE",
"319 627 OFFCURVE",
"390 843 OFFCURVE",
"427 1069 CURVE"
);
},
{
closed = 1;
nodes = (
"106 923 LINE",
"246 746 OFFCURVE",
"356 580 OFFCURVE",
"451 391 CURVE",
"506 460 LINE",
"401 652 OFFCURVE",
"305 798 OFFCURVE",
"171 965 CURVE"
);
},
{
closed = 1;
nodes = (
"415 161 LINE",
"315 368 OFFCURVE",
"186 573 OFFCURVE",
"64 745 CURVE",
"-5 699 LINE",
"110 543 OFFCURVE",
"261 293 OFFCURVE",
"359 92 CURVE"
);
}
);
width = 600;
}
);
unicode = 1B1B6;
},
{
glyphname = u1B1B8;
lastChange = "2020-01-17 15:37:37 +0000";
layers = (
{
layerId = "CFFEBDE4-599A-46B2-9328-D96E42CD9C81";
paths = (
{
closed = 1;
nodes = (
"476 965 LINE",
"371 795 OFFCURVE",
"265 652 OFFCURVE",
"163 549 CURVE",
"221 492 LINE",
"338 626 OFFCURVE",
"440 742 OFFCURVE",
"552 935 CURVE"
);
},
{
closed = 1;
nodes = (
"522 615 LINE",
"441 501 OFFCURVE",
"312 348 OFFCURVE",
"186 226 CURVE",
"242 173 LINE",
"386 317 OFFCURVE",
"500 437 OFFCURVE",
"589 575 CURVE"
);
},
{
closed = 1;
nodes = (
"43 218 LINE",
"35 187 OFFCURVE",
"24 159 OFFCURVE",
"11 134 CURVE",
"79 102 LINE",
"96 127 OFFCURVE",
"108 156 OFFCURVE",
"110 194 CURVE"
);
},
{
closed = 1;
nodes = (
"29 499 LINE",
"21 468 OFFCURVE",
"10 440 OFFCURVE",
"-3 415 CURVE",
"65 383 LINE",
"82 408 OFFCURVE",
"94 437 OFFCURVE",
"96 475 CURVE"
);
},
{
closed = 1;
nodes = (
"312 -296 LINE",
"402 -98 OFFCURVE",
"444 157 OFFCURVE",
"444 382 CURVE SMOOTH",
"444 648 OFFCURVE",
"325 887 OFFCURVE",
"156 1069 CURVE",
"43 1069 LINE",
"251 867 OFFCURVE",
"358 635 OFFCURVE",
"358 382 CURVE SMOOTH",
"358 156 OFFCURVE",
"318 -80 OFFCURVE",
"226 -278 CURVE"
);
}
);
width = 600;
}
);
unicode = 1B1B8;
},
{
glyphname = u1B1B9;
lastChange = "2020-01-17 10:57:42 +0000";
layers = (
{
layerId = "CFFEBDE4-599A-46B2-9328-D96E42CD9C81";
paths = (
{
closed = 1;
nodes = (
"400 1018 OFFCURVE",
"402 982 OFFCURVE",
"402 931 CURVE SMOOTH",
"402 722 OFFCURVE",
"326 546 OFFCURVE",
"123 378 CURVE",
"178 318 LINE",
"400 500 OFFCURVE",
"488 706 OFFCURVE",
"488 940 CURVE SMOOTH",
"488 982 OFFCURVE",
"486 1018 OFFCURVE",
"478 1069 CURVE",
"392 1069 LINE"
);
},
{
closed = 1;
nodes = (
"517 521 LINE",
"456 378 OFFCURVE",
"372 255 OFFCURVE",
"245 133 CURVE",
"303 76 LINE",
"440 216 OFFCURVE",
"523 322 OFFCURVE",
"594 491 CURVE"
);
},
{
closed = 1;
nodes = (
"426 243 LINE",
"425 422 OFFCURVE",
"346 679 OFFCURVE",
"227 878 CURVE",
"150 837 LINE",
"278 632 OFFCURVE",
"345 373 OFFCURVE",
"358 216 CURVE"
);
},
{
closed = 1;
nodes = (
"159 0 OFFCURVE",
"199 -93 OFFCURVE",
"235 -192 CURVE",
"316 -178 LINE",
"278 -67 OFFCURVE",
"224 39 OFFCURVE",
"150 135 CURVE",
"59 135 LINE",
"48 -10 OFFCURVE",
"31 -149 OFFCURVE",
"-4 -280 CURVE",
"73 -309 LINE",
"109 -176 OFFCURVE",
"125 -49 OFFCURVE",
"125 95 CURVE",
"90 95 LINE"
);
}
);
width = 600;
}
);
unicode = 1B1B9;
},
{
glyphname = u1B1BA;
lastChange = "2020-01-17 11:01:38 +0000";
layers = (
{
layerId = "CFFEBDE4-599A-46B2-9328-D96E42CD9C81";
paths = (
{
closed = 1;
nodes = (
"135 729 OFFCURVE",
"213 893 OFFCURVE",
"304 1069 CURVE",
"210 1069 LINE",
"141 919 OFFCURVE",
"65 762 OFFCURVE",
"4 600 CURVE",
"4 513 LINE",
"45 420 OFFCURVE",
"100 327 OFFCURVE",
"147 271 CURVE",
"204 271 LINE",
"242 375 OFFCURVE",
"298 478 OFFCURVE",
"346 563 CURVE",
"309 563 LINE",
"363 480 OFFCURVE",
"405 398 OFFCURVE",
"442 309 CURVE",
"440 373 LINE",
"359 163 OFFCURVE",
"240 -72 OFFCURVE",
"85 -263 CURVE",
"146 -309 LINE",
"279 -129 OFFCURVE",
"396 57 OFFCURVE",
"494 290 CURVE",
"494 405 LINE",
"460 480 OFFCURVE",
"423 545 OFFCURVE",
"364 640 CURVE",
"296 640 LINE",
"238 537 OFFCURVE",
"197 456 OFFCURVE",
"149 329 CURVE",
"193 328 LINE",
"149 389 OFFCURVE",
"96 490 OFFCURVE",
"60 592 CURVE",
"60 500 LINE"
);
}
);
width = 500;
}
);
unicode = 1B1BA;
},
{
glyphname = u1B1BB;
lastChange = "2020-01-17 11:05:11 +0000";
layers = (
{
layerId = "CFFEBDE4-599A-46B2-9328-D96E42CD9C81";
paths = (
{
closed = 1;
nodes = (
"240 384 OFFCURVE",
"208 518 OFFCURVE",
"154 622 CURVE",
"132 552 LINE",
"289 713 OFFCURVE",
"365 978 OFFCURVE",
"379 1069 CURVE",
"288 1069 LINE",
"275 987 OFFCURVE",
"220 760 OFFCURVE",
"66 611 CURVE",
"132 484 OFFCURVE",
"155 369 OFFCURVE",
"155 227 CURVE SMOOTH",
"155 68 OFFCURVE",
"121 -87 OFFCURVE",
"0 -277 CURVE",
"76 -318 LINE",
"199 -124 OFFCURVE",
"240 46 OFFCURVE",
"240 243 CURVE SMOOTH"
);
},
{
closed = 1;
nodes = (
"272 881 LINE",
"358 767 OFFCURVE",
"405 573 OFFCURVE",
"397 431 CURVE",
"428 528 LINE",
"360 398 OFFCURVE",
"283 297 OFFCURVE",
"185 227 CURVE",
"219 153 LINE",
"325 238 OFFCURVE",
"401 321 OFFCURVE",
"479 458 CURVE",
"471 640 OFFCURVE",
"434 779 OFFCURVE",
"340 925 CURVE"
);
},
{
closed = 1;
nodes = (
"377 754 LINE",
"307 610 OFFCURVE",
"238 527 OFFCURVE",
"151 443 CURVE",
"197 375 LINE",
"289 461 OFFCURVE",
"353 548 OFFCURVE",
"409 659 CURVE"
);
}
);
width = 500;
}
);
unicode = 1B1BB;
},
{
glyphname = u1B1BC;
lastChange = "2020-01-17 11:09:44 +0000";
layers = (
{
layerId = "CFFEBDE4-599A-46B2-9328-D96E42CD9C81";
paths = (
{
closed = 1;
nodes = (
"261 1028 OFFCURVE",
"264 1006 OFFCURVE",
"264 961 CURVE SMOOTH",
"264 826 OFFCURVE",
"190 614 OFFCURVE",
"-23 432 CURVE",
"25 363 LINE",
"257 559 OFFCURVE",
"350 810 OFFCURVE",
"350 970 CURVE SMOOTH",
"350 1006 OFFCURVE",
"347 1028 OFFCURVE",
"340 1069 CURVE",
"254 1069 LINE"
);
},
{
closed = 1;
nodes = (
"359 605 LINE",
"275 432 OFFCURVE",
"155 272 OFFCURVE",
"-2 154 CURVE",
"56 97 LINE",
"214 234 OFFCURVE",
"335 377 OFFCURVE",
"436 575 CURVE"
);
},
{
closed = 1;
nodes = (
"258 334 LINE",
"257 537 OFFCURVE",
"191 783 OFFCURVE",
"72 982 CURVE",
"-5 941 LINE",
"123 736 OFFCURVE",
"177 488 OFFCURVE",
"190 307 CURVE"
);
},
{
closed = 1;
nodes = (
"198 -293 LINE",
"305 -228 OFFCURVE",
"406 -124 OFFCURVE",
"483 -21 CURVE",
"469 71 OFFCURVE",
"446 177 OFFCURVE",
"414 255 CURVE",
"336 255 LINE",
"250 125 OFFCURVE",
"156 27 OFFCURVE",
"51 -61 CURVE",
"74 -160 OFFCURVE",
"96 -228 OFFCURVE",
"128 -293 CURVE"
);
},
{
closed = 1;
nodes = (
"192 -250 LINE",
"163 -195 OFFCURVE",
"135 -112 OFFCURVE",
"124 -35 CURVE",
"102 -128 LINE",
"195 -35 OFFCURVE",
"300 71 OFFCURVE",
"391 202 CURVE",
"345 202 LINE",
"372 121 OFFCURVE",
"392 44 OFFCURVE",
"401 -48 CURVE",
"432 49 LINE",
"349 -75 OFFCURVE",
"256 -161 OFFCURVE",
"164 -228 CURVE"
);
}
);
width = 500;
}
);
unicode = 1B1BC;
},
{
glyphname = u1B1BD;
lastChange = "2020-01-17 11:14:37 +0000";
layers = (
{
layerId = "CFFEBDE4-599A-46B2-9328-D96E42CD9C81";
paths = (
{
closed = 1;
nodes = (
"159 558 OFFCURVE",
"250 466 OFFCURVE",
"250 316 CURVE SMOOTH",
"250 187 OFFCURVE",
"173 58 OFFCURVE",
"65 -71 CURVE",
"120 -134 LINE",
"244 26 OFFCURVE",
"336 161 OFFCURVE",
"336 327 CURVE SMOOTH",
"336 480 OFFCURVE",
"228 630 OFFCURVE",
"52 732 CURVE",
"14 662 LINE"
);
},
{
closed = 1;
nodes = (
"324 1076 LINE",
"261 775 OFFCURVE",
"176 562 OFFCURVE",
"32 376 CURVE",
"104 337 LINE",
"244 523 OFFCURVE",
"336 742 OFFCURVE",
"409 1069 CURVE"
);
},
{
closed = 1;
nodes = (
"277 -86 OFFCURVE",
"205 57 OFFCURVE",
"104 219 CURVE",
"32 176 LINE",
"137 18 OFFCURVE",
"202 -119 OFFCURVE",
"244 -294 CURVE",
"329 -287 LINE"
);
},
{
closed = 1;
nodes = (
"290 841 LINE",
"332 723 OFFCURVE",
"433 562 OFFCURVE",
"549 413 CURVE",
"617 467 LINE",
"495 615 OFFCURVE",
"406 754 OFFCURVE",
"349 878 CURVE"
);
},
{
closed = 1;
nodes = (
"456 615 OFFCURVE",
"520 742 OFFCURVE",
"597 851 CURVE",
"530 886 LINE",
"437 754 OFFCURVE",
"383 614 OFFCURVE",
"383 483 CURVE SMOOTH",
"383 347 OFFCURVE",
"425 245 OFFCURVE",
"481 148 CURVE",
"559 173 LINE",
"498 265 OFFCURVE",
"456 357 OFFCURVE",
"456 483 CURVE SMOOTH"
);
}
);
width = 600;
}
);
unicode = 1B1BD;
},
{
glyphname = u1B1BE;
lastChange = "2020-01-17 11:17:33 +0000";
layers = (
{
layerId = "CFFEBDE4-599A-46B2-9328-D96E42CD9C81";
paths = (
{
closed = 1;
nodes = (
"508 998 OFFCURVE",
"512 937 OFFCURVE",
"512 841 CURVE SMOOTH",
"512 591 OFFCURVE",
"408 362 OFFCURVE",
"214 212 CURVE",
"265 145 LINE",
"487 319 OFFCURVE",
"598 575 OFFCURVE",
"598 850 CURVE SMOOTH",
"598 937 OFFCURVE",
"594 998 OFFCURVE",
"587 1069 CURVE",
"501 1069 LINE"
);
},
{
closed = 1;
nodes = (
"340 732 LINE",
"308 589 OFFCURVE",
"242 490 OFFCURVE",
"124 383 CURVE",
"182 326 LINE",
"293 427 OFFCURVE",
"372 528 OFFCURVE",
"417 702 CURVE"
);
},
{
closed = 1;
nodes = (
"365 50 OFFCURVE",
"405 152 OFFCURVE",
"526 282 CURVE",
"583 231 LINE",
"478 113 OFFCURVE",
"443 31 OFFCURVE",
"443 -46 CURVE SMOOTH",
"443 -101 OFFCURVE",
"463 -140 OFFCURVE",
"501 -173 CURVE",
"444 -221 LINE",
"384 -174 OFFCURVE",
"365 -121 OFFCURVE",
"365 -53 CURVE SMOOTH"
);
},
{
closed = 1;
nodes = (
"159 0 OFFCURVE",
"199 -93 OFFCURVE",
"235 -192 CURVE",
"316 -178 LINE",
"278 -67 OFFCURVE",
"224 39 OFFCURVE",
"150 135 CURVE",
"59 135 LINE",
"48 -10 OFFCURVE",
"31 -149 OFFCURVE",
"-4 -280 CURVE",
"73 -309 LINE",
"109 -176 OFFCURVE",
"125 -49 OFFCURVE",
"125 95 CURVE",
"90 95 LINE"
);
}
);
width = 600;
}
);
unicode = 1B1BE;
},
{
glyphname = u1B1BF;
lastChange = "2020-01-17 11:19:01 +0000";
layers = (
{
layerId = "CFFEBDE4-599A-46B2-9328-D96E42CD9C81";
paths = (
{
closed = 1;
nodes = (
"272 136 LINE",
"219 324 OFFCURVE",
"190 509 OFFCURVE",
"168 711 CURVE",
"83 698 LINE",
"101 502 OFFCURVE",
"137 300 OFFCURVE",
"195 107 CURVE",
"297 107 LINE",
"459 365 OFFCURVE",
"523 600 OFFCURVE",
"523 869 CURVE SMOOTH",
"523 953 OFFCURVE",
"513 1018 OFFCURVE",
"503 1069 CURVE",
"417 1069 LINE",
"427 1018 OFFCURVE",
"437 953 OFFCURVE",
"437 860 CURVE SMOOTH",
"437 616 OFFCURVE",
"362 376 OFFCURVE",
"219 132 CURVE"
);
},
{
closed = 1;
nodes = (
"10 428 LINE",
"2 397 OFFCURVE",
"-9 369 OFFCURVE",
"-22 344 CURVE",
"46 312 LINE",
"63 337 OFFCURVE",
"75 366 OFFCURVE",
"77 404 CURVE"
);
},
{
closed = 1;
nodes = (
"240 867 LINE",
"232 836 OFFCURVE",
"221 808 OFFCURVE",
"208 783 CURVE",
"276 751 LINE",
"293 776 OFFCURVE",
"305 805 OFFCURVE",
"307 843 CURVE"
);
},
{
closed = 1;
nodes = (
"509 255 LINE",
"417 58 OFFCURVE",
"252 -123 OFFCURVE",
"90 -226 CURVE",
"136 -293 LINE",
"308 -172 OFFCURVE",
"484 2 OFFCURVE",
"586 225 CURVE"
);
}
);
width = 600;
}
);
unicode = 1B1BF;
},
{
glyphname = u1B1C0;
lastChange = "2020-01-17 11:27:49 +0000";
layers = (
{
layerId = "CFFEBDE4-599A-46B2-9328-D96E42CD9C81";
paths = (
{
closed = 1;
nodes = (
"252 -296 LINE",
"307 -50 OFFCURVE",
"331 178 OFFCURVE",
"331 441 CURVE SMOOTH",
"331 727 OFFCURVE",
"278 911 OFFCURVE",
"190 1069 CURVE",
"102 1069 LINE",
"208 864 OFFCURVE",
"245 679 OFFCURVE",
"245 425 CURVE SMOOTH",
"245 195 OFFCURVE",
"215 -63 OFFCURVE",
"166 -278 CURVE"
);
},
{
closed = 1;
nodes = (
"35 417 OFFCURVE",
"43 308 OFFCURVE",
"43 201 CURVE",
"105 158 LINE",
"263 251 OFFCURVE",
"404 363 OFFCURVE",
"528 499 CURVE",
"528 667 OFFCURVE",
"507 802 OFFCURVE",
"471 931 CURVE",
"401 871 LINE",
"430 756 OFFCURVE",
"447 640 OFFCURVE",
"447 511 CURVE",
"486 582 LINE",
"374 447 OFFCURVE",
"248 331 OFFCURVE",
"106 254 CURVE",
"130 231 LINE",
"130 331 OFFCURVE",
"121 442 OFFCURVE",
"100 542 CURVE",
"70 489 LINE",
"263 616 OFFCURVE",
"391 765 OFFCURVE",
"527 969 CURVE",
"461 1022 LINE",
"342 834 OFFCURVE",
"208 679 OFFCURVE",
"13 556 CURVE"
);
}
);
width = 550;
}
);
unicode = 1B1C0;
},
{
glyphname = u1B1C1;
lastChange = "2020-01-17 11:29:48 +0000";
layers = (
{
layerId = "CFFEBDE4-599A-46B2-9328-D96E42CD9C81";
paths = (
{
closed = 1;
nodes = (
"36 512 LINE",
"110 473 OFFCURVE",
"179 355 OFFCURVE",
"179 203 CURVE SMOOTH",
"179 34 OFFCURVE",
"163 -71 OFFCURVE",
"37 -276 CURVE",
"107 -325 LINE",
"249 -89 OFFCURVE",
"265 8 OFFCURVE",
"265 214 CURVE SMOOTH",
"265 387 OFFCURVE",
"179 519 OFFCURVE",
"75 582 CURVE"
);
},
{
closed = 1;
nodes = (
"31 265 LINE",
"23 234 OFFCURVE",
"12 206 OFFCURVE",
"-1 181 CURVE",
"67 149 LINE",
"84 174 OFFCURVE",
"96 203 OFFCURVE",
"98 241 CURVE"
);
},
{
closed = 1;
nodes = (
"407 1005 OFFCURVE",
"414 928 OFFCURVE",
"414 852 CURVE SMOOTH",
"414 703 OFFCURVE",
"335 553 OFFCURVE",
"151 452 CURVE",
"205 388 LINE",
"384 487 OFFCURVE",
"497 658 OFFCURVE",
"497 852 CURVE SMOOTH",
"497 927 OFFCURVE",
"491 1005 OFFCURVE",
"471 1069 CURVE",
"385 1069 LINE"
);
},
{
closed = 1;
nodes = (
"531 618 LINE",
"523 587 OFFCURVE",
"512 559 OFFCURVE",
"499 534 CURVE",
"567 502 LINE",
"584 527 OFFCURVE",
"596 556 OFFCURVE",
"598 594 CURVE"
);
},
{
closed = 1;
nodes = (
"323 494 LINE",
"378 413 OFFCURVE",
"409 328 OFFCURVE",
"460 179 CURVE",
"538 211 LINE",
"478 374 OFFCURVE",
"440 457 OFFCURVE",
"370 569 CURVE"
);
}
);
width = 600;
}
);
unicode = 1B1C1;
},
{
glyphname = u1B1C2;
lastChange = "2020-01-17 11:34:18 +0000";
layers = (
{
layerId = "CFFEBDE4-599A-46B2-9328-D96E42CD9C81";
paths = (
{
closed = 1;
nodes = (
"340 998 OFFCURVE",
"344 937 OFFCURVE",
"344 858 CURVE SMOOTH",
"344 647 OFFCURVE",
"210 500 OFFCURVE",
"11 357 CURVE",
"57 288 LINE",
"289 457 OFFCURVE",
"430 631 OFFCURVE",
"430 867 CURVE SMOOTH",
"430 937 OFFCURVE",
"425 998 OFFCURVE",
"402 1069 CURVE",
"316 1069 LINE"
);
},
{
closed = 1;
nodes = (
"442 533 LINE",
"324 312 OFFCURVE",
"201 175 OFFCURVE",
"23 39 CURVE",
"69 -28 LINE",
"269 136 OFFCURVE",
"391 256 OFFCURVE",
"519 503 CURVE"
);
},
{
closed = 1;
nodes = (
"325 -252 LINE",
"315 -46 OFFCURVE",
"265 225 OFFCURVE",
"194 475 CURVE",
"125 429 LINE",
"189 195 OFFCURVE",
"240 -65 OFFCURVE",
"254 -292 CURVE",
"335 -292 LINE",
"444 -126 OFFCURVE",
"531 56 OFFCURVE",
"599 229 CURVE",
"518 249 LINE",
"453 73 OFFCURVE",
"382 -71 OFFCURVE",
"282 -252 CURVE"
);
},
{
closed = 1;
nodes = (
"351 126 LINE",
"421 46 OFFCURVE",
"482 -47 OFFCURVE",
"542 -160 CURVE",
"613 -115 LINE",
"542 10 OFFCURVE",
"480 99 OFFCURVE",
"413 180 CURVE"
);
}
);
width = 600;
}
);
unicode = 1B1C2;
},
{
glyphname = u1B1C3;
lastChange = "2020-01-17 11:38:03 +0000";
layers = (
{
layerId = "CFFEBDE4-599A-46B2-9328-D96E42CD9C81";
paths = (
{
closed = 1;
nodes = (
"458 1069 LINE",
"421 896 OFFCURVE",
"303 760 OFFCURVE",
"79 608 CURVE",
"91 501 OFFCURVE",
"94 433 OFFCURVE",
"94 344 CURVE SMOOTH",
"94 83 OFFCURVE",
"66 -93 OFFCURVE",
"4 -265 CURVE",
"77 -292 LINE",
"146 -107 OFFCURVE",
"174 95 OFFCURVE",
"174 302 CURVE SMOOTH",
"174 419 OFFCURVE",
"168 510 OFFCURVE",
"159 615 CURVE",
"137 551 LINE",
"367 714 OFFCURVE",
"496 867 OFFCURVE",
"541 1069 CURVE"
);
},
{
closed = 1;
nodes = (
"545 3 LINE",
"580 143 OFFCURVE",
"597 263 OFFCURVE",
"597 420 CURVE SMOOTH",
"597 618 OFFCURVE",
"555 772 OFFCURVE",
"457 901 CURVE",
"407 844 LINE",
"484 722 OFFCURVE",
"513 587 OFFCURVE",
"513 420 CURVE SMOOTH",
"513 282 OFFCURVE",
"503 161 OFFCURVE",
"466 21 CURVE"
);
},
{
closed = 1;
nodes = (
"201 505 LINE",
"271 425 OFFCURVE",
"348 304 OFFCURVE",
"408 191 CURVE",
"479 236 LINE",
"408 361 OFFCURVE",
"330 478 OFFCURVE",
"263 559 CURVE"
);
},
{
closed = 1;
nodes = (
"380 666 LINE",
"348 480 OFFCURVE",
"277 263 OFFCURVE",
"194 80 CURVE",
"267 44 LINE",
"348 209 OFFCURVE",
"413 419 OFFCURVE",
"457 636 CURVE"
);
}
);
width = 600;
}
);
unicode = 1B1C3;
},
{
glyphname = u1B1C4;
lastChange = "2020-01-17 13:14:34 +0000";
layers = (
{
layerId = "CFFEBDE4-599A-46B2-9328-D96E42CD9C81";
paths = (
{
closed = 1;
nodes = (
"0 387 LINE",
"187 225 OFFCURVE",
"214 58 OFFCURVE",
"217 -293 CURVE",
"301 -293 LINE",
"293 56 OFFCURVE",
"257 266 OFFCURVE",
"61 449 CURVE",
"58 387 LINE",
"205 590 OFFCURVE",
"241 790 OFFCURVE",
"241 1069 CURVE",
"157 1069 LINE",
"157 816 OFFCURVE",
"138 638 OFFCURVE",
"0 458 CURVE"
);
},
{
closed = 1;
nodes = (
"170 694 OFFCURVE",
"219 613 OFFCURVE",
"219 477 CURVE SMOOTH",
"219 317 OFFCURVE",
"148 118 OFFCURVE",
"16 -98 CURVE",
"84 -140 LINE",
"222 94 OFFCURVE",
"305 291 OFFCURVE",
"305 488 CURVE SMOOTH",
"305 653 OFFCURVE",
"218 759 OFFCURVE",
"58 867 CURVE",
"11 798 LINE"
);
},
{
closed = 1;
nodes = (
"339 323 OFFCURVE",
"387 244 OFFCURVE",
"452 174 CURVE",
"533 175 LINE",
"586 349 OFFCURVE",
"593 439 OFFCURVE",
"593 529 CURVE SMOOTH",
"593 598 OFFCURVE",
"558 662 OFFCURVE",
"477 729 CURVE",
"393 729 LINE",
"360 607 OFFCURVE",
"339 476 OFFCURVE",
"339 409 CURVE SMOOTH"
);
},
{
closed = 1;
nodes = (
"428 672 LINE",
"491 616 OFFCURVE",
"513 561 OFFCURVE",
"513 511 CURVE SMOOTH",
"513 453 OFFCURVE",
"503 366 OFFCURVE",
"473 244 CURVE",
"491 250 LINE",
"447 300 OFFCURVE",
"419 354 OFFCURVE",
"419 409 CURVE SMOOTH",
"419 476 OFFCURVE",
"431 557 OFFCURVE",
"457 674 CURVE"
);
}
);
width = 600;
}
);
unicode = 1B1C4;
},
{
glyphname = u1B1C5;
lastChange = "2020-01-17 11:41:54 +0000";
layers = (
{
layerId = "CFFEBDE4-599A-46B2-9328-D96E42CD9C81";
paths = (
{
closed = 1;
nodes = (
"352 1008 OFFCURVE",
"354 973 OFFCURVE",
"354 921 CURVE SMOOTH",
"354 666 OFFCURVE",
"240 494 OFFCURVE",
"27 312 CURVE",
"87 255 LINE",
"319 451 OFFCURVE",
"440 650 OFFCURVE",
"440 930 CURVE SMOOTH",
"440 973 OFFCURVE",
"438 1008 OFFCURVE",
"430 1069 CURVE",
"344 1069 LINE"
);
},
{
closed = 1;
nodes = (
"509 265 LINE",
"415 89 OFFCURVE",
"298 -81 OFFCURVE",
"118 -236 CURVE",
"176 -293 LINE",
"366 -120 OFFCURVE",
"482 33 OFFCURVE",
"586 235 CURVE"
);
},
{
closed = 1;
nodes = (
"74 923 LINE",
"220 603 OFFCURVE",
"283 235 OFFCURVE",
"309 -68 CURVE",
"377 -41 LINE",
"356 303 OFFCURVE",
"278 661 OFFCURVE",
"148 951 CURVE"
);
},
{
closed = 1;
nodes = (
"119 134 LINE",
"111 103 OFFCURVE",
"100 75 OFFCURVE",
"87 50 CURVE",
"155 18 LINE",
"172 43 OFFCURVE",
"184 72 OFFCURVE",
"186 110 CURVE"
);
},
{
closed = 1;
nodes = (
"450 523 LINE",
"442 492 OFFCURVE",
"431 464 OFFCURVE",
"418 439 CURVE",
"486 407 LINE",
"503 432 OFFCURVE",
"515 461 OFFCURVE",
"517 499 CURVE"
);
}
);
width = 600;
}
);
unicode = 1B1C5;
},
{
glyphname = u1B1C6;
lastChange = "2020-01-17 11:41:24 +0000";
layers = (
{
layerId = "CFFEBDE4-599A-46B2-9328-D96E42CD9C81";
paths = (
{
closed = 1;
nodes = (
"352 1008 OFFCURVE",
"354 973 OFFCURVE",
"354 921 CURVE SMOOTH",
"354 666 OFFCURVE",
"240 494 OFFCURVE",
"27 312 CURVE",
"87 255 LINE",
"319 451 OFFCURVE",
"440 650 OFFCURVE",
"440 930 CURVE SMOOTH",
"440 973 OFFCURVE",
"438 1008 OFFCURVE",
"430 1069 CURVE",
"344 1069 LINE"
);
},
{
closed = 1;
nodes = (
"509 265 LINE",
"415 89 OFFCURVE",
"298 -81 OFFCURVE",
"118 -236 CURVE",
"176 -293 LINE",
"366 -120 OFFCURVE",
"482 33 OFFCURVE",
"586 235 CURVE"
);
},
{
closed = 1;
nodes = (
"221 449 LINE",
"277 292 OFFCURVE",
"311 77 OFFCURVE",
"319 -38 CURVE",
"387 -11 LINE",
"386 128 OFFCURVE",
"345 363 OFFCURVE",
"280 530 CURVE"
);
},
{
closed = 1;
nodes = (
"119 134 LINE",
"111 103 OFFCURVE",
"100 75 OFFCURVE",
"87 50 CURVE",
"155 18 LINE",
"172 43 OFFCURVE",
"184 72 OFFCURVE",
"186 110 CURVE"
);
},
{
closed = 1;
nodes = (
"470 523 LINE",
"462 492 OFFCURVE",
"451 464 OFFCURVE",
"438 439 CURVE",
"506 407 LINE",
"523 432 OFFCURVE",
"535 461 OFFCURVE",
"537 499 CURVE"
);
}
);
width = 600;
}
);
unicode = 1B1C6;
},
{
glyphname = u1B1C7;
lastChange = "2020-01-17 11:46:53 +0000";
layers = (
{
layerId = "CFFEBDE4-599A-46B2-9328-D96E42CD9C81";
paths = (
{
closed = 1;
nodes = (
"385 1026 OFFCURVE",
"392 987 OFFCURVE",
"392 927 CURVE SMOOTH",
"392 791 OFFCURVE",
"265 685 OFFCURVE",
"4 548 CURVE",
"44 472 LINE",
"314 619 OFFCURVE",
"475 746 OFFCURVE",
"475 927 CURVE SMOOTH",
"475 986 OFFCURVE",
"469 1026 OFFCURVE",
"459 1069 CURVE",
"373 1069 LINE"
);
},
{
closed = 1;
nodes = (
"413 720 OFFCURVE",
"451 677 OFFCURVE",
"451 616 CURVE SMOOTH",
"451 513 OFFCURVE",
"307 407 OFFCURVE",
"44 296 CURVE",
"83 220 LINE",
"356 341 OFFCURVE",
"534 468 OFFCURVE",
"534 616 CURVE SMOOTH",
"534 686 OFFCURVE",
"486 753 OFFCURVE",
"444 799 CURVE",
"382 763 LINE"
);
},
{
closed = 1;
nodes = (
"96 983 LINE",
"249 644 OFFCURVE",
"295 379 OFFCURVE",
"295 163 CURVE SMOOTH",
"295 28 OFFCURVE",
"276 -109 OFFCURVE",
"215 -270 CURVE",
"294 -293 LINE",
"358 -126 OFFCURVE",
"375 0 OFFCURVE",
"375 163 CURVE SMOOTH",
"375 390 OFFCURVE",
"325 669 OFFCURVE",
"174 1015 CURVE"
);
},
{
closed = 1;
nodes = (
"104 78 LINE",
"96 47 OFFCURVE",
"85 19 OFFCURVE",
"72 -6 CURVE",
"140 -38 LINE",
"157 -13 OFFCURVE",
"169 16 OFFCURVE",
"171 54 CURVE"
);
},
{
closed = 1;
nodes = (
"498 318 LINE",
"490 287 OFFCURVE",
"479 259 OFFCURVE",
"466 234 CURVE",
"534 202 LINE",
"551 227 OFFCURVE",
"563 256 OFFCURVE",
"565 294 CURVE"
);
}
);
width = 550;
}
);
unicode = 1B1C7;
},
{
glyphname = u1B1C8;
lastChange = "2020-01-17 11:44:22 +0000";
layers = (
{
layerId = "CFFEBDE4-599A-46B2-9328-D96E42CD9C81";
paths = (
{
closed = 1;
nodes = (
"441 502 LINE",
"362 329 OFFCURVE",
"247 156 OFFCURVE",
"130 40 CURVE",
"176 -28 LINE",
"303 106 OFFCURVE",
"394 247 OFFCURVE",
"483 407 CURVE"
);
},
{
closed = 1;
nodes = (
"324 701 LINE",
"404 522 OFFCURVE",
"459 349 OFFCURVE",
"489 135 CURVE",
"520 242 LINE",
"440 66 OFFCURVE",
"324 -113 OFFCURVE",
"222 -224 CURVE",
"251 -236 LINE",
"222 -83 OFFCURVE",
"177 125 OFFCURVE",
"120 312 CURVE",
"98 242 LINE",
"311 459 OFFCURVE",
"452 732 OFFCURVE",
"489 1069 CURVE",
"398 1069 LINE",
"362 741 OFFCURVE",
"222 484 OFFCURVE",
"32 301 CURVE",
"98 87 OFFCURVE",
"144 -104 OFFCURVE",
"177 -293 CURVE",
"256 -293 LINE",
"393 -162 OFFCURVE",
"489 -26 OFFCURVE",
"575 165 CURVE",
"562 337 OFFCURVE",
"492 562 OFFCURVE",
"400 748 CURVE"
);
}
);
width = 600;
}
);
unicode = 1B1C8;
},
{
glyphname = u1B1C9;
lastChange = "2020-01-17 11:48:26 +0000";
layers = (
{
layerId = "CFFEBDE4-599A-46B2-9328-D96E42CD9C81";
paths = (
{
closed = 1;
nodes = (
"456 996 OFFCURVE",
"462 957 OFFCURVE",
"462 897 CURVE SMOOTH",
"462 755 OFFCURVE",
"357 602 OFFCURVE",
"160 423 CURVE",
"214 359 LINE",
"406 536 OFFCURVE",
"545 710 OFFCURVE",
"545 897 CURVE SMOOTH",
"545 956 OFFCURVE",
"540 996 OFFCURVE",
"529 1069 CURVE",
"443 1069 LINE"
);
},
{
closed = 1;
nodes = (
"512 687 OFFCURVE",
"521 627 OFFCURVE",
"521 566 CURVE SMOOTH",
"521 463 OFFCURVE",
"414 320 OFFCURVE",
"272 226 CURVE",
"315 154 LINE",
"463 254 OFFCURVE",
"604 418 OFFCURVE",
"604 566 CURVE SMOOTH",
"604 636 OFFCURVE",
"585 720 OFFCURVE",
"514 799 CURVE",
"452 763 LINE"
);
},
{
closed = 1;
nodes = (
"446 329 LINE",
"468 236 OFFCURVE",
"476 186 OFFCURVE",
"476 90 CURVE SMOOTH",
"476 0 OFFCURVE",
"466 -113 OFFCURVE",
"420 -270 CURVE",
"504 -293 LINE",
"549 -144 OFFCURVE",
"565 -28 OFFCURVE",
"565 90 CURVE SMOOTH",
"565 224 OFFCURVE",
"546 299 OFFCURVE",
"508 398 CURVE"
);
},
{
closed = 1;
nodes = (
"5 16 LINE",
"95 -40 OFFCURVE",
"204 -133 OFFCURVE",
"295 -223 CURVE",
"350 -159 LINE",
"245 -61 OFFCURVE",
"136 28 OFFCURVE",
"48 86 CURVE"
);
},
{
closed = 1;
nodes = (
"202 153 LINE",
"170 -24 OFFCURVE",
"136 -124 OFFCURVE",
"59 -278 CURVE",
"129 -310 LINE",
"210 -145 OFFCURVE",
"245 -36 OFFCURVE",
"279 132 CURVE"
);
}
);
width = 600;
}
);
unicode = 1B1C9;
},
{
glyphname = u1B1CA;
lastChange = "2020-01-17 11:51:52 +0000";
layers = (
{
layerId = "CFFEBDE4-599A-46B2-9328-D96E42CD9C81";
paths = (
{
closed = 1;
nodes = (
"302 -296 LINE",
"352 -127 OFFCURVE",
"374 41 OFFCURVE",
"374 187 CURVE SMOOTH",
"374 371 OFFCURVE",
"327 535 OFFCURVE",
"238 672 CURVE",
"171 612 LINE",
"265 473 OFFCURVE",
"288 326 OFFCURVE",
"288 187 CURVE SMOOTH",
"288 40 OFFCURVE",
"268 -109 OFFCURVE",
"216 -278 CURVE"
);
},
{
closed = 1;
nodes = (
"344 1069 LINE",
"294 835 OFFCURVE",
"194 645 OFFCURVE",
"-3 488 CURVE",
"55 431 LINE",
"261 611 OFFCURVE",
"373 813 OFFCURVE",
"434 1069 CURVE"
);
},
{
closed = 1;
nodes = (
"447 743 LINE",
"342 534 OFFCURVE",
"223 343 OFFCURVE",
"51 198 CURVE",
"109 141 LINE",
"299 308 OFFCURVE",
"411 479 OFFCURVE",
"524 712 CURVE"
);
},
{
closed = 1;
nodes = (
"351 60 LINE",
"447 173 OFFCURVE",
"508 269 OFFCURVE",
"552 386 CURVE",
"524 384 LINE",
"549 306 OFFCURVE",
"560 217 OFFCURVE",
"564 108 CURVE",
"650 108 LINE",
"646 236 OFFCURVE",
"626 321 OFFCURVE",
"581 443 CURVE",
"500 453 LINE",
"449 336 OFFCURVE",
"393 222 OFFCURVE",
"299 94 CURVE"
);
}
);
width = 600;
}
);
unicode = 1B1CA;
},
{
glyphname = u1B1CB;
lastChange = "2020-01-17 11:56:15 +0000";
layers = (
{
layerId = "CFFEBDE4-599A-46B2-9328-D96E42CD9C81";
paths = (
{
closed = 1;
nodes = (
"186 457 LINE",
"323 292 OFFCURVE",
"438 90 OFFCURVE",
"542 -151 CURVE",
"612 -114 LINE",
"504 152 OFFCURVE",
"387 337 OFFCURVE",
"243 519 CURVE",
"240 457 LINE",
"362 616 OFFCURVE",
"474 790 OFFCURVE",
"474 1069 CURVE",
"389 1069 LINE",
"369 848 OFFCURVE",
"299 664 OFFCURVE",
"186 528 CURVE"
);
},
{
closed = 1;
nodes = (
"430 633 OFFCURVE",
"461 551 OFFCURVE",
"461 447 CURVE SMOOTH",
"461 261 OFFCURVE",
"316 -38 OFFCURVE",
"93 -279 CURVE",
"158 -325 LINE",
"397 -53 OFFCURVE",
"547 235 OFFCURVE",
"547 458 CURVE SMOOTH",
"547 591 OFFCURVE",
"504 686 OFFCURVE",
"395 780 CURVE",
"357 702 LINE"
);
},
{
closed = 1;
nodes = (
"170 279 LINE",
"162 248 OFFCURVE",
"151 220 OFFCURVE",
"138 195 CURVE",
"206 163 LINE",
"223 188 OFFCURVE",
"235 217 OFFCURVE",
"237 255 CURVE"
);
},
{
closed = 1;
nodes = (
"90 90 LINE",
"82 59 OFFCURVE",
"71 31 OFFCURVE",
"58 6 CURVE",
"126 -26 LINE",
"143 -1 OFFCURVE",
"155 28 OFFCURVE",
"157 66 CURVE"
);
}
);
width = 600;
}
);
unicode = 1B1CB;
},
{
glyphname = u1B1CC;
lastChange = "2020-01-17 13:15:32 +0000";
layers = (
{
layerId = "CFFEBDE4-599A-46B2-9328-D96E42CD9C81";
paths = (
{
closed = 1;
nodes = (
"458 1069 LINE",
"374 887 OFFCURVE",
"257 751 OFFCURVE",
"79 608 CURVE",
"91 501 OFFCURVE",
"94 433 OFFCURVE",
"94 344 CURVE SMOOTH",
"94 83 OFFCURVE",
"66 -93 OFFCURVE",
"4 -265 CURVE",
"77 -292 LINE",
"146 -107 OFFCURVE",
"174 95 OFFCURVE",
"174 302 CURVE SMOOTH",
"174 419 OFFCURVE",
"168 510 OFFCURVE",
"159 615 CURVE",
"137 551 LINE",
"312 699 OFFCURVE",
"454 854 OFFCURVE",
"549 1069 CURVE"
);
},
{
closed = 1;
nodes = (
"519 744 LINE",
"415 591 OFFCURVE",
"281 473 OFFCURVE",
"118 359 CURVE",
"164 292 LINE",
"331 419 OFFCURVE",
"466 533 OFFCURVE",
"587 703 CURVE"
);
},
{
closed = 1;
nodes = (
"248 -54 OFFCURVE",
"318 -138 OFFCURVE",
"417 -207 CURVE",
"498 -206 LINE",
"567 -42 OFFCURVE",
"586 47 OFFCURVE",
"586 137 CURVE SMOOTH",
"586 206 OFFCURVE",
"532 291 OFFCURVE",
"422 348 CURVE",
"338 348 LINE",
"287 211 OFFCURVE",
"248 66 OFFCURVE",
"248 -1 CURVE SMOOTH"
);
},
{
closed = 1;
nodes = (
"373 291 LINE",
"460 235 OFFCURVE",
"506 169 OFFCURVE",
"506 119 CURVE SMOOTH",
"506 61 OFFCURVE",
"482 -15 OFFCURVE",
"438 -137 CURVE",
"456 -131 LINE",
"394 -89 OFFCURVE",
"331 -33 OFFCURVE",
"331 10 CURVE SMOOTH",
"331 77 OFFCURVE",
"358 176 OFFCURVE",
"402 293 CURVE"
);
}
);
width = 600;
}
);
unicode = 1B1CC;
},
{
glyphname = u1B1CD;
lastChange = "2020-01-17 13:22:56 +0000";
layers = (
{
layerId = "CFFEBDE4-599A-46B2-9328-D96E42CD9C81";
paths = (
{
closed = 1;
nodes = (
"478 1048 OFFCURVE",
"479 1033 OFFCURVE",
"479 1016 CURVE SMOOTH",
"479 871 OFFCURVE",
"374 733 OFFCURVE",
"161 551 CURVE",
"221 494 LINE",
"453 690 OFFCURVE",
"565 855 OFFCURVE",
"565 1016 CURVE SMOOTH",
"565 1033 OFFCURVE",
"564 1050 OFFCURVE",
"564 1069 CURVE",
"478 1069 LINE"
);
},
{
closed = 1;
nodes = (
"566 430 LINE",
"511 305 OFFCURVE",
"442 219 OFFCURVE",
"321 115 CURVE",
"379 58 LINE",
"510 180 OFFCURVE",
"578 249 OFFCURVE",
"643 400 CURVE"
);
},
{
closed = 1;
nodes = (
"355 678 LINE",
"399 521 OFFCURVE",
"425 306 OFFCURVE",
"433 191 CURVE",
"503 219 LINE",
"502 358 OFFCURVE",
"467 592 OFFCURVE",
"414 759 CURVE"
);
},
{
closed = 1;
nodes = (
"222 317 LINE",
"167 192 OFFCURVE",
"92 70 OFFCURVE",
"0 -18 CURVE",
"58 -75 LINE",
"178 40 OFFCURVE",
"226 140 OFFCURVE",
"299 287 CURVE"
);
},
{
closed = 1;
nodes = (
"355 678 LINE",
"399 521 OFFCURVE",
"425 306 OFFCURVE",
"433 191 CURVE",
"503 219 LINE",
"502 358 OFFCURVE",
"467 592 OFFCURVE",
"414 759 CURVE"
);
},
{
closed = 1;
nodes = (
"5 322 LINE",
"142 125 OFFCURVE",
"181 -14 OFFCURVE",
"209 -293 CURVE",
"290 -293 LINE",
"263 1 OFFCURVE",
"213 181 OFFCURVE",
"64 382 CURVE"
);
}
);
width = 600;
}
);
unicode = 1B1CD;
},
{
glyphname = u1B1CE;
lastChange = "2020-01-21 16:39:34 +0000";
layers = (
{
layerId = "CFFEBDE4-599A-46B2-9328-D96E42CD9C81";
paths = (
{
closed = 1;
nodes = (
"391 341 OFFCURVE",
"304 399 OFFCURVE",
"190 439 CURVE",
"200 399 LINE",
"313 620 OFFCURVE",
"375 836 OFFCURVE",
"404 1069 CURVE",
"318 1069 LINE",
"290 875 OFFCURVE",
"219 638 OFFCURVE",
"130 456 CURVE",
"130 368 LINE",
"253 322 OFFCURVE",
"345 267 OFFCURVE",
"422 209 CURVE",
"502 204 LINE",
"570 322 OFFCURVE",
"616 460 OFFCURVE",
"645 613 CURVE",
"560 637 LINE",
"537 499 OFFCURVE",
"495 371 OFFCURVE",
"446 278 CURVE",
"482 282 LINE"
);
},
{
closed = 1;
nodes = (
"255 0 LINE",
"295 98 OFFCURVE",
"330 218 OFFCURVE",
"347 308 CURVE",
"267 332 LINE",
"256 257 OFFCURVE",
"213 122 OFFCURVE",
"176 29 CURVE"
);
},
{
closed = 1;
nodes = (
"404 -293 LINE",
"373 -56 OFFCURVE",
"229 73 OFFCURVE",
"32 170 CURVE",
"1 88 LINE",
"180 0 OFFCURVE",
"281 -112 OFFCURVE",
"312 -295 CURVE"
);
}
);
width = 600;
}
);
unicode = 1B1CE;
},
{
glyphname = u1B1CF;
lastChange = "2020-01-17 13:38:33 +0000";
layers = (
{
layerId = "CFFEBDE4-599A-46B2-9328-D96E42CD9C81";
paths = (
{
closed = 1;
nodes = (
"193 480 LINE",
"161 585 OFFCURVE",
"119 672 OFFCURVE",
"63 758 CURVE",
"-3 716 LINE",
"58 620 OFFCURVE",
"99 543 OFFCURVE",
"136 421 CURVE",
"223 421 LINE",
"388 617 OFFCURVE",
"487 821 OFFCURVE",
"549 1069 CURVE",
"464 1076 LINE",
"412 854 OFFCURVE",
"320 656 OFFCURVE",
"165 478 CURVE"
);
},
{
closed = 1;
nodes = (
"242 -296 LINE",
"363 -62 OFFCURVE",
"406 166 OFFCURVE",
"406 417 CURVE SMOOTH",
"406 625 OFFCURVE",
"353 829 OFFCURVE",
"220 980 CURVE",
"148 936 LINE",
"295 765 OFFCURVE",
"320 617 OFFCURVE",
"320 401 CURVE SMOOTH",
"320 173 OFFCURVE",
"282 -26 OFFCURVE",
"156 -278 CURVE"
);
},
{
closed = 1;
nodes = (
"532 579 LINE",
"524 548 OFFCURVE",
"513 520 OFFCURVE",
"500 495 CURVE",
"568 463 LINE",
"585 488 OFFCURVE",
"597 517 OFFCURVE",
"599 555 CURVE"
);
},
{
closed = 1;
nodes = (
"532 246 LINE",
"524 215 OFFCURVE",
"513 187 OFFCURVE",
"500 162 CURVE",
"568 130 LINE",
"585 155 OFFCURVE",
"597 184 OFFCURVE",
"599 222 CURVE"
);
}
);
width = 600;
}
);
unicode = 1B1CF;
},
{
glyphname = u1B1D0;
lastChange = "2020-01-17 13:34:58 +0000";
layers = (
{
layerId = "CFFEBDE4-599A-46B2-9328-D96E42CD9C81";
paths = (
{
closed = 1;
nodes = (
"448 1048 OFFCURVE",
"449 1033 OFFCURVE",
"449 1016 CURVE SMOOTH",
"449 876 OFFCURVE",
"391 743 OFFCURVE",
"186 603 CURVE",
"234 536 LINE",
"470 700 OFFCURVE",
"535 887 OFFCURVE",
"535 1016 CURVE SMOOTH",
"535 1033 OFFCURVE",
"534 1050 OFFCURVE",
"534 1069 CURVE",
"448 1069 LINE"
);
},
{
closed = 1;
nodes = (
"536 430 LINE",
"481 305 OFFCURVE",
"374 135 OFFCURVE",
"253 57 CURVE",
"297 -14 LINE",
"428 82 OFFCURVE",
"548 249 OFFCURVE",
"613 400 CURVE"
);
},
{
closed = 1;
nodes = (
"335 678 LINE",
"379 521 OFFCURVE",
"399 353 OFFCURVE",
"403 171 CURVE",
"478 199 LINE",
"481 405 OFFCURVE",
"452 592 OFFCURVE",
"399 759 CURVE"
);
},
{
closed = 1;
nodes = (
"77 316 OFFCURVE",
"36 219 OFFCURVE",
"36 105 CURVE SMOOTH",
"36 -26 OFFCURVE",
"114 -181 OFFCURVE",
"280 -325 CURVE",
"340 -266 LINE",
"189 -142 OFFCURVE",
"122 0 OFFCURVE",
"122 113 CURVE SMOOTH",
"122 203 OFFCURVE",
"147 264 OFFCURVE",
"233 323 CURVE",
"233 411 LINE",
"170 453 OFFCURVE",
"119 521 OFFCURVE",
"119 628 CURVE SMOOTH",
"119 705 OFFCURVE",
"147 793 OFFCURVE",
"258 887 CURVE",
"186 934 LINE",
"79 830 OFFCURVE",
"31 733 OFFCURVE",
"31 628 CURVE SMOOTH",
"31 509 OFFCURVE",
"93 411 OFFCURVE",
"173 338 CURVE",
"181 379 LINE"
);
}
);
width = 600;
}
);
unicode = 1B1D0;
},
{
glyphname = u1B1D1;
lastChange = "2020-01-17 13:41:12 +0000";
layers = (
{
layerId = "CFFEBDE4-599A-46B2-9328-D96E42CD9C81";
paths = (
{
closed = 1;
nodes = (
"458 1069 LINE",
"374 887 OFFCURVE",
"257 751 OFFCURVE",
"79 608 CURVE",
"91 501 OFFCURVE",
"94 433 OFFCURVE",
"94 344 CURVE SMOOTH",
"94 83 OFFCURVE",
"66 -93 OFFCURVE",
"4 -265 CURVE",
"77 -292 LINE",
"146 -107 OFFCURVE",
"174 95 OFFCURVE",
"174 302 CURVE SMOOTH",
"174 419 OFFCURVE",
"168 510 OFFCURVE",
"159 615 CURVE",
"137 551 LINE",
"312 699 OFFCURVE",
"454 854 OFFCURVE",
"549 1069 CURVE"
);
},
{
closed = 1;
nodes = (
"236 333 LINE",
"352 241 OFFCURVE",
"440 78 OFFCURVE",
"531 -65 CURVE",
"601 -28 LINE",
"506 140 OFFCURVE",
"416 286 OFFCURVE",
"293 395 CURVE",
"290 333 LINE",
"405 473 OFFCURVE",
"499 600 OFFCURVE",
"573 757 CURVE",
"499 789 LINE",
"424 652 OFFCURVE",
"349 532 OFFCURVE",
"236 404 CURVE"
);
},
{
closed = 1;
nodes = (
"439 465 OFFCURVE",
"451 411 OFFCURVE",
"451 357 CURVE SMOOTH",
"451 241 OFFCURVE",
"380 38 OFFCURVE",
"211 -142 CURVE",
"264 -199 LINE",
"474 30 OFFCURVE",
"532 216 OFFCURVE",
"532 378 CURVE SMOOTH",
"532 453 OFFCURVE",
"510 526 OFFCURVE",
"449 601 CURVE",
"411 523 LINE"
);
}
);
width = 600;
}
);
unicode = 1B1D1;
},
{
glyphname = u1B1D2;
lastChange = "2020-01-17 13:43:12 +0000";
layers = (
{
layerId = "CFFEBDE4-599A-46B2-9328-D96E42CD9C81";
paths = (
{
closed = 1;
nodes = (
"385 1026 OFFCURVE",
"392 987 OFFCURVE",
"392 927 CURVE SMOOTH",
"392 791 OFFCURVE",
"265 685 OFFCURVE",
"4 548 CURVE",
"44 472 LINE",
"314 619 OFFCURVE",
"475 746 OFFCURVE",
"475 927 CURVE SMOOTH",
"475 986 OFFCURVE",
"469 1026 OFFCURVE",
"459 1069 CURVE",
"373 1069 LINE"
);
},
{
closed = 1;
nodes = (
"413 720 OFFCURVE",
"451 677 OFFCURVE",
"451 616 CURVE SMOOTH",
"451 513 OFFCURVE",
"267 377 OFFCURVE",
"4 266 CURVE",
"43 190 LINE",
"316 311 OFFCURVE",
"534 468 OFFCURVE",
"534 616 CURVE SMOOTH",
"534 686 OFFCURVE",
"486 753 OFFCURVE",
"444 799 CURVE",
"382 763 LINE"
);
},
{
closed = 1;
nodes = (
"66 983 LINE",
"207 619 OFFCURVE",
"235 379 OFFCURVE",
"235 117 CURVE SMOOTH",
"235 -71 OFFCURVE",
"182 -168 OFFCURVE",
"55 -246 CURVE",
"104 -306 LINE",
"247 -204 OFFCURVE",
"315 -84 OFFCURVE",
"315 163 CURVE SMOOTH",
"315 390 OFFCURVE",
"283 644 OFFCURVE",
"144 1015 CURVE"
);
},
{
closed = 1;
nodes = (
"365 141 OFFCURVE",
"405 273 OFFCURVE",
"526 403 CURVE",
"583 352 LINE",
"478 234 OFFCURVE",
"443 122 OFFCURVE",
"443 45 CURVE SMOOTH",
"443 -34 OFFCURVE",
"473 -89 OFFCURVE",
"511 -132 CURVE",
"454 -180 LINE",
"394 -123 OFFCURVE",
"365 -52 OFFCURVE",
"365 38 CURVE SMOOTH"
);
},
{
closed = 1;
nodes = (
"536 131 LINE",
"528 100 OFFCURVE",
"517 72 OFFCURVE",
"504 47 CURVE",
"572 15 LINE",
"589 40 OFFCURVE",
"601 69 OFFCURVE",
"603 107 CURVE"
);
}
);
width = 600;
}
);
unicode = 1B1D2;
},
{
glyphname = u1B1D3;
lastChange = "2020-01-17 13:45:54 +0000";
layers = (
{
layerId = "CFFEBDE4-599A-46B2-9328-D96E42CD9C81";
paths = (
{
closed = 1;
nodes = (
"441 287 OFFCURVE",
"321 368 OFFCURVE",
"190 439 CURVE",
"200 399 LINE",
"283 620 OFFCURVE",
"335 836 OFFCURVE",
"364 1069 CURVE",
"278 1069 LINE",
"250 875 OFFCURVE",
"205 638 OFFCURVE",
"130 456 CURVE",
"130 368 LINE",
"264 306 OFFCURVE",
"395 225 OFFCURVE",
"472 129 CURVE",
"552 124 LINE",
"620 242 OFFCURVE",
"666 430 OFFCURVE",
"695 583 CURVE",
"610 607 LINE",
"587 469 OFFCURVE",
"545 291 OFFCURVE",
"496 198 CURVE",
"532 202 LINE"
);
},
{
closed = 1;
nodes = (
"291 -30 LINE",
"381 152 OFFCURVE",
"446 403 OFFCURVE",
"491 651 CURVE",
"408 667 LINE",
"369 434 OFFCURVE",
"304 194 OFFCURVE",
"222 13 CURVE"
);
},
{
closed = 1;
nodes = (
"389 -79 OFFCURVE",
"247 67 OFFCURVE",
"73 173 CURVE",
"20 108 LINE",
"195 16 OFFCURVE",
"341 -145 OFFCURVE",
"421 -312 CURVE",
"486 -260 LINE"
);
}
);
width = 750;
}
);
unicode = 1B1D3;
},
{
glyphname = u1B1D4;
lastChange = "2020-01-17 13:48:05 +0000";
layers = (
{
layerId = "CFFEBDE4-599A-46B2-9328-D96E42CD9C81";
paths = (
{
closed = 1;
nodes = (
"433 -296 LINE",
"483 -127 OFFCURVE",
"525 9 OFFCURVE",
"525 248 CURVE SMOOTH",
"525 496 OFFCURVE",
"399 727 OFFCURVE",
"218 896 CURVE",
"151 836 LINE",
"358 641 OFFCURVE",
"439 470 OFFCURVE",
"439 210 CURVE SMOOTH",
"439 8 OFFCURVE",
"399 -109 OFFCURVE",
"347 -278 CURVE"
);
},
{
closed = 1;
nodes = (
"448 1069 LINE",
"444 826 OFFCURVE",
"402 721 OFFCURVE",
"184 532 CURVE",
"242 475 LINE",
"455 659 OFFCURVE",
"525 802 OFFCURVE",
"538 1069 CURVE"
);
},
{
closed = 1;
nodes = (
"529 628 LINE",
"459 485 OFFCURVE",
"402 407 OFFCURVE",
"273 293 CURVE",
"331 236 LINE",
"444 330 OFFCURVE",
"528 443 OFFCURVE",
"606 606 CURVE"
);
},
{
closed = 1;
nodes = (
"-6 168 OFFCURVE",
"32 107 OFFCURVE",
"87 21 CURVE",
"162 22 LINE",
"223 167 OFFCURVE",
"238 236 OFFCURVE",
"238 304 CURVE SMOOTH",
"238 353 OFFCURVE",
"197 406 OFFCURVE",
"142 464 CURVE",
"68 464 LINE",
"15 369 OFFCURVE",
"-6 294 OFFCURVE",
"-6 226 CURVE SMOOTH"
);
},
{
closed = 1;
nodes = (
"93 407 LINE",
"127 360 OFFCURVE",
"158 316 OFFCURVE",
"158 286 CURVE SMOOTH",
"158 250 OFFCURVE",
"148 209 OFFCURVE",
"108 91 CURVE",
"126 97 LINE",
"90 159 OFFCURVE",
"74 199 OFFCURVE",
"74 236 CURVE SMOOTH",
"74 284 OFFCURVE",
"93 336 OFFCURVE",
"127 409 CURVE"
);
}
);
width = 600;
}
);
unicode = 1B1D4;
},
{
glyphname = u1B1D5;
lastChange = "2020-01-17 13:49:22 +0000";
layers = (
{
layerId = "CFFEBDE4-599A-46B2-9328-D96E42CD9C81";
paths = (
{
closed = 1;
nodes = (
"370 822 OFFCURVE",
"223 573 OFFCURVE",
"16 325 CURVE",
"83 275 LINE",
"304 550 OFFCURVE",
"433 764 OFFCURVE",
"510 1069 CURVE",
"424 1069 LINE"
);
},
{
closed = 1;
nodes = (
"541 -281 LINE",
"459 226 OFFCURVE",
"315 643 OFFCURVE",
"143 895 CURVE",
"72 847 LINE",
"262 562 OFFCURVE",
"374 175 OFFCURVE",
"459 -310 CURVE"
);
},
{
closed = 1;
nodes = (
"260 1008 LINE",
"252 977 OFFCURVE",
"241 949 OFFCURVE",
"228 924 CURVE",
"296 892 LINE",
"313 917 OFFCURVE",
"325 946 OFFCURVE",
"327 984 CURVE"
);
},
{
closed = 1;
nodes = (
"36 664 LINE",
"28 633 OFFCURVE",
"17 605 OFFCURVE",
"4 580 CURVE",
"72 548 LINE",
"89 573 OFFCURVE",
"101 602 OFFCURVE",
"103 640 CURVE"
);
},
{
closed = 1;
nodes = (
"334 335 LINE",
"262 186 OFFCURVE",
"155 42 OFFCURVE",
"9 -103 CURVE",
"72 -159 LINE",
"223 0 OFFCURVE",
"315 128 OFFCURVE",
"402 288 CURVE"
);
}
);
width = 600;
}
);
unicode = 1B1D5;
},
{
glyphname = u1B1D6;
lastChange = "2020-01-17 13:50:25 +0000";
layers = (
{
layerId = "CFFEBDE4-599A-46B2-9328-D96E42CD9C81";
paths = (
{
closed = 1;
nodes = (
"343 869 OFFCURVE",
"233 682 OFFCURVE",
"26 497 CURVE",
"83 431 LINE",
"304 643 OFFCURVE",
"406 811 OFFCURVE",
"510 1069 CURVE",
"424 1069 LINE"
);
},
{
closed = 1;
nodes = (
"581 -281 LINE",
"499 226 OFFCURVE",
"335 743 OFFCURVE",
"163 995 CURVE",
"92 947 LINE",
"282 662 OFFCURVE",
"414 175 OFFCURVE",
"499 -310 CURVE"
);
},
{
closed = 1;
nodes = (
"316 514 LINE",
"236 376 OFFCURVE",
"138 256 OFFCURVE",
"9 124 CURVE",
"72 68 LINE",
"205 209 OFFCURVE",
"290 311 OFFCURVE",
"384 467 CURVE"
);
},
{
closed = 1;
nodes = (
"120 -209 OFFCURVE",
"158 -270 OFFCURVE",
"213 -356 CURVE",
"288 -355 LINE",
"349 -210 OFFCURVE",
"364 -141 OFFCURVE",
"364 -73 CURVE SMOOTH",
"364 -24 OFFCURVE",
"323 29 OFFCURVE",
"268 87 CURVE",
"194 87 LINE",
"141 -8 OFFCURVE",
"120 -83 OFFCURVE",
"120 -151 CURVE SMOOTH"
);
},
{
closed = 1;
nodes = (
"219 30 LINE",
"253 -17 OFFCURVE",
"284 -61 OFFCURVE",
"284 -91 CURVE SMOOTH",
"284 -127 OFFCURVE",
"274 -168 OFFCURVE",
"234 -286 CURVE",
"252 -280 LINE",
"216 -218 OFFCURVE",
"200 -178 OFFCURVE",
"200 -141 CURVE SMOOTH",
"200 -93 OFFCURVE",
"219 -41 OFFCURVE",
"253 32 CURVE"
);
}
);
width = 600;
}
);
unicode = 1B1D6;
},
{
glyphname = u1B1D7;
lastChange = "2020-01-21 15:11:40 +0000";
layers = (
{
layerId = "CFFEBDE4-599A-46B2-9328-D96E42CD9C81";
paths = (
{
closed = 1;
nodes = (
"478 1048 OFFCURVE",
"479 1033 OFFCURVE",
"479 1016 CURVE SMOOTH",
"479 871 OFFCURVE",
"374 733 OFFCURVE",
"161 551 CURVE",
"221 494 LINE",
"453 690 OFFCURVE",
"565 855 OFFCURVE",
"565 1016 CURVE SMOOTH",
"565 1033 OFFCURVE",
"564 1050 OFFCURVE",
"564 1069 CURVE",
"478 1069 LINE"
);
},
{
closed = 1;
nodes = (
"566 430 LINE",
"511 305 OFFCURVE",
"442 219 OFFCURVE",
"341 131 CURVE",
"399 74 LINE",
"510 180 OFFCURVE",
"578 249 OFFCURVE",
"643 400 CURVE"
);
},
{
closed = 0;
nodes = (
"503 219 LINE",
"502 358 OFFCURVE",
"467 592 OFFCURVE",
"414 759 CURVE"
);
},
{
closed = 1;
nodes = (
"355 678 LINE",
"399 521 OFFCURVE",
"425 306 OFFCURVE",
"433 191 CURVE",
"503 219 LINE",
"502 358 OFFCURVE",
"467 592 OFFCURVE",
"414 759 CURVE"
);
},
{
closed = 1;
nodes = (
"225 -270 LINE",
"276 -191 OFFCURVE",
"315 -78 OFFCURVE",
"315 12 CURVE SMOOTH",
"315 139 OFFCURVE",
"262 246 OFFCURVE",
"135 343 CURVE",
"81 286 LINE",
"202 204 OFFCURVE",
"232 118 OFFCURVE",
"232 12 CURVE SMOOTH",
"232 -78 OFFCURVE",
"202 -159 OFFCURVE",
"149 -237 CURVE"
);
},
{
closed = 1;
nodes = (
"94 80 LINE",
"86 49 OFFCURVE",
"75 21 OFFCURVE",
"62 -4 CURVE",
"130 -36 LINE",
"147 -11 OFFCURVE",
"159 18 OFFCURVE",
"161 56 CURVE"
);
}
);
width = 600;
}
);
unicode = 1B1D7;
},
{
glyphname = u1B1D8;
lastChange = "2020-01-17 13:52:18 +0000";
layers = (
{
layerId = "CFFEBDE4-599A-46B2-9328-D96E42CD9C81";
paths = (
{
closed = 1;
nodes = (
"7 387 LINE",
"194 225 OFFCURVE",
"261 58 OFFCURVE",
"264 -293 CURVE",
"348 -293 LINE",
"340 56 OFFCURVE",
"264 266 OFFCURVE",
"68 449 CURVE",
"65 387 LINE",
"212 590 OFFCURVE",
"288 790 OFFCURVE",
"288 1069 CURVE",
"204 1069 LINE",
"204 816 OFFCURVE",
"145 638 OFFCURVE",
"7 458 CURVE"
);
},
{
closed = 1;
nodes = (
"204 714 OFFCURVE",
"276 563 OFFCURVE",
"276 427 CURVE SMOOTH",
"276 267 OFFCURVE",
"193 117 OFFCURVE",
"23 -22 CURVE",
"81 -77 LINE",
"267 93 OFFCURVE",
"362 241 OFFCURVE",
"362 438 CURVE SMOOTH",
"362 603 OFFCURVE",
"252 779 OFFCURVE",
"56 876 CURVE",
"18 798 LINE"
);
},
{
closed = 1;
nodes = (
"492 679 LINE",
"484 648 OFFCURVE",
"473 620 OFFCURVE",
"460 595 CURVE",
"528 563 LINE",
"545 588 OFFCURVE",
"557 617 OFFCURVE",
"559 655 CURVE"
);
},
{
closed = 1;
nodes = (
"492 346 LINE",
"484 315 OFFCURVE",
"473 287 OFFCURVE",
"460 262 CURVE",
"528 230 LINE",
"545 255 OFFCURVE",
"557 284 OFFCURVE",
"559 322 CURVE"
);
}
);
width = 600;
}
);
unicode = 1B1D8;
},
{
glyphname = u1B1D9;
lastChange = "2020-01-17 13:59:26 +0000";
layers = (
{
layerId = "CFFEBDE4-599A-46B2-9328-D96E42CD9C81";
paths = (
{
closed = 1;
nodes = (
"262 277 OFFCURVE",
"283 195 OFFCURVE",
"283 138 CURVE SMOOTH",
"283 22 OFFCURVE",
"235 -81 OFFCURVE",
"128 -277 CURVE",
"204 -316 LINE",
"327 -92 OFFCURVE",
"369 7 OFFCURVE",
"369 138 CURVE SMOOTH",
"369 222 OFFCURVE",
"346 294 OFFCURVE",
"258 440 CURVE SMOOTH",
"194 547 OFFCURVE",
"157 637 OFFCURVE",
"157 715 CURVE SMOOTH",
"157 784 OFFCURVE",
"174 878 OFFCURVE",
"281 1069 CURVE",
"187 1069 LINE",
"101 909 OFFCURVE",
"71 798 OFFCURVE",
"71 704 CURVE SMOOTH",
"71 622 OFFCURVE",
"118 514 OFFCURVE",
"186 402 CURVE SMOOTH"
);
},
{
closed = 1;
nodes = (
"456 355 LINE",
"494 433 OFFCURVE",
"512 499 OFFCURVE",
"512 590 CURVE SMOOTH",
"512 688 OFFCURVE",
"479 813 OFFCURVE",
"422 937 CURVE",
"340 932 LINE",
"324 798 OFFCURVE",
"290 704 OFFCURVE",
"190 590 CURVE SMOOTH",
"51 431 OFFCURVE",
"9 345 OFFCURVE",
"9 267 CURVE SMOOTH",
"9 212 OFFCURVE",
"35 143 OFFCURVE",
"100 85 CURVE",
"167 120 LINE",
"120 172 OFFCURVE",
"91 227 OFFCURVE",
"91 273 CURVE",
"91 338 OFFCURVE",
"119 397 OFFCURVE",
"242 535 CURVE SMOOTH",
"349 655 OFFCURVE",
"388 747 OFFCURVE",
"394 847 CURVE",
"363 882 LINE",
"415 754 OFFCURVE",
"436 669 OFFCURVE",
"436 582 CURVE SMOOTH",
"436 495 OFFCURVE",
"416 445 OFFCURVE",
"382 388 CURVE"
);
}
);
width = 550;
}
);
unicode = 1B1D9;
},
{
glyphname = u1B1DA;
lastChange = "2020-01-17 14:01:55 +0000";
layers = (
{
layerId = "CFFEBDE4-599A-46B2-9328-D96E42CD9C81";
paths = (
{
closed = 1;
nodes = (
"360 1069 LINE",
"295 889 OFFCURVE",
"216 754 OFFCURVE",
"84 601 CURVE",
"110 486 OFFCURVE",
"114 408 OFFCURVE",
"114 309 CURVE SMOOTH",
"114 95 OFFCURVE",
"84 -111 OFFCURVE",
"9 -293 CURVE",
"88 -320 LINE",
"170 -111 OFFCURVE",
"196 120 OFFCURVE",
"196 309 CURVE SMOOTH",
"196 416 OFFCURVE",
"183 510 OFFCURVE",
"162 613 CURVE",
"160 562 LINE",
"282 714 OFFCURVE",
"370 859 OFFCURVE",
"443 1069 CURVE"
);
},
{
closed = 1;
nodes = (
"482 782 LINE",
"403 613 OFFCURVE",
"282 440 OFFCURVE",
"131 300 CURVE",
"178 243 LINE",
"333 392 OFFCURVE",
"460 562 OFFCURVE",
"554 754 CURVE"
);
},
{
closed = 1;
nodes = (
"234 763 LINE",
"335 582 OFFCURVE",
"409 394 OFFCURVE",
"460 179 CURVE",
"538 211 LINE",
"478 440 OFFCURVE",
"418 593 OFFCURVE",
"302 805 CURVE"
);
},
{
closed = 1;
nodes = (
"303 162 LINE",
"295 131 OFFCURVE",
"284 103 OFFCURVE",
"271 78 CURVE",
"339 46 LINE",
"356 71 OFFCURVE",
"368 100 OFFCURVE",
"370 138 CURVE"
);
}
);
width = 600;
}
);
unicode = 1B1DA;
},
{
glyphname = u1B1DB;
lastChange = "2020-01-17 14:02:43 +0000";
layers = (
{
layerId = "CFFEBDE4-599A-46B2-9328-D96E42CD9C81";
paths = (
{
closed = 1;
nodes = (
"322 -296 LINE",
"372 -127 OFFCURVE",
"394 49 OFFCURVE",
"394 206 CURVE SMOOTH",
"394 390 OFFCURVE",
"350 566 OFFCURVE",
"275 693 CURVE",
"208 633 LINE",
"288 504 OFFCURVE",
"308 345 OFFCURVE",
"308 206 CURVE SMOOTH",
"308 48 OFFCURVE",
"288 -109 OFFCURVE",
"236 -278 CURVE"
);
},
{
closed = 1;
nodes = (
"344 1069 LINE",
"300 830 OFFCURVE",
"194 612 OFFCURVE",
"-3 458 CURVE",
"55 401 LINE",
"261 578 OFFCURVE",
"375 808 OFFCURVE",
"430 1069 CURVE"
);
},
{
closed = 1;
nodes = (
"522 583 LINE",
"413 401 OFFCURVE",
"259 222 OFFCURVE",
"49 53 CURVE",
"97 -13 LINE",
"325 178 OFFCURVE",
"474 349 OFFCURVE",
"591 555 CURVE"
);
},
{
closed = 1;
nodes = (
"104 366 LINE",
"96 335 OFFCURVE",
"85 307 OFFCURVE",
"72 282 CURVE",
"140 250 LINE",
"157 275 OFFCURVE",
"169 304 OFFCURVE",
"171 342 CURVE"
);
},
{
closed = 1;
nodes = (
"413 745 LINE",
"405 714 OFFCURVE",
"394 686 OFFCURVE",
"381 661 CURVE",
"449 629 LINE",
"466 654 OFFCURVE",
"478 683 OFFCURVE",
"480 721 CURVE"
);
}
);
width = 600;
}
);
unicode = 1B1DB;
},
{
glyphname = u1B1DC;
lastChange = "2020-01-17 14:05:37 +0000";
layers = (
{
layerId = "CFFEBDE4-599A-46B2-9328-D96E42CD9C81";
paths = (
{
closed = 1;
nodes = (
"247 484 OFFCURVE",
"278 423 OFFCURVE",
"278 253 CURVE SMOOTH",
"278 81 OFFCURVE",
"227 -108 OFFCURVE",
"108 -274 CURVE",
"178 -313 LINE",
"304 -134 OFFCURVE",
"364 70 OFFCURVE",
"364 253 CURVE SMOOTH",
"364 429 OFFCURVE",
"315 536 OFFCURVE",
"240 614 CURVE",
"235 558 LINE",
"350 678 OFFCURVE",
"418 819 OFFCURVE",
"418 995 CURVE SMOOTH",
"418 1021 OFFCURVE",
"418 1044 OFFCURVE",
"418 1069 CURVE",
"335 1069 LINE",
"335 1044 OFFCURVE",
"335 1020 OFFCURVE",
"335 995 CURVE SMOOTH",
"335 864 OFFCURVE",
"270 701 OFFCURVE",
"145 581 CURVE"
);
},
{
closed = 1;
nodes = (
"438 661 OFFCURVE",
"479 561 OFFCURVE",
"479 474 CURVE SMOOTH",
"479 409 OFFCURVE",
"475 353 OFFCURVE",
"456 269 CURVE",
"541 258 LINE",
"560 340 OFFCURVE",
"565 396 OFFCURVE",
"565 466 CURVE SMOOTH",
"565 597 OFFCURVE",
"504 714 OFFCURVE",
"367 850 CURVE",
"329 772 LINE"
);
},
{
closed = 1;
nodes = (
"-39 142 OFFCURVE",
"-1 81 OFFCURVE",
"54 -5 CURVE",
"129 -4 LINE",
"190 141 OFFCURVE",
"205 210 OFFCURVE",
"205 278 CURVE SMOOTH",
"205 327 OFFCURVE",
"164 380 OFFCURVE",
"109 438 CURVE",
"35 438 LINE",
"-18 343 OFFCURVE",
"-39 268 OFFCURVE",
"-39 200 CURVE SMOOTH"
);
},
{
closed = 1;
nodes = (
"60 381 LINE",
"94 334 OFFCURVE",
"125 290 OFFCURVE",
"125 260 CURVE SMOOTH",
"125 224 OFFCURVE",
"115 183 OFFCURVE",
"75 65 CURVE",
"93 71 LINE",
"57 133 OFFCURVE",
"41 173 OFFCURVE",
"41 210 CURVE SMOOTH",
"41 258 OFFCURVE",
"60 310 OFFCURVE",
"94 383 CURVE"
);
}
);
width = 600;
}
);
unicode = 1B1DC;
},
{
glyphname = u1B1DD;
lastChange = "2020-01-17 14:09:04 +0000";
layers = (
{
layerId = "CFFEBDE4-599A-46B2-9328-D96E42CD9C81";
paths = (
{
closed = 1;
nodes = (
"560 14 LINE",
"438 205 OFFCURVE",
"285 403 OFFCURVE",
"104 566 CURVE",
"104 481 LINE",
"224 689 OFFCURVE",
"303 873 OFFCURVE",
"354 1069 CURVE",
"268 1069 LINE",
"223 901 OFFCURVE",
"126 664 OFFCURVE",
"27 515 CURVE",
"234 333 OFFCURVE",
"369 136 OFFCURVE",
"486 -34 CURVE"
);
},
{
closed = 1;
nodes = (
"256 966 LINE",
"366 851 OFFCURVE",
"475 716 OFFCURVE",
"518 573 CURVE",
"518 683 LINE",
"411 411 OFFCURVE",
"173 -35 OFFCURVE",
"4 -258 CURVE",
"66 -308 LINE",
"234 -84 OFFCURVE",
"455 307 OFFCURVE",
"579 626 CURVE",
"520 782 OFFCURVE",
"430 901 OFFCURVE",
"324 1010 CURVE"
);
},
{
closed = 1;
nodes = (
"394 843 LINE",
"340 691 OFFCURVE",
"263 547 OFFCURVE",
"190 439 CURVE",
"241 371 LINE",
"319 492 OFFCURVE",
"415 661 OFFCURVE",
"455 780 CURVE"
);
}
);
width = 600;
}
);
unicode = 1B1DD;
},
{
glyphname = u1B1DE;
lastChange = "2020-01-17 14:22:11 +0000";
layers = (
{
layerId = "CFFEBDE4-599A-46B2-9328-D96E42CD9C81";
paths = (
{
closed = 1;
nodes = (
"433 1010 OFFCURVE",
"437 968 OFFCURVE",
"437 907 CURVE SMOOTH",
"437 688 OFFCURVE",
"211 486 OFFCURVE",
"-2 304 CURVE",
"58 247 LINE",
"290 443 OFFCURVE",
"523 672 OFFCURVE",
"523 916 CURVE SMOOTH",
"523 968 OFFCURVE",
"519 1010 OFFCURVE",
"510 1069 CURVE",
"424 1069 LINE"
);
},
{
closed = 1;
nodes = (
"520 197 LINE",
"430 34 OFFCURVE",
"293 -125 OFFCURVE",
"159 -256 CURVE",
"217 -313 LINE",
"361 -164 OFFCURVE",
"485 -36 OFFCURVE",
"585 153 CURVE"
);
},
{
closed = 1;
nodes = (
"406 -81 LINE",
"382 253 OFFCURVE",
"302 606 OFFCURVE",
"181 893 CURVE",
"104 852 LINE",
"234 559 OFFCURVE",
"302 204 OFFCURVE",
"338 -108 CURVE"
);
},
{
closed = 1;
nodes = (
"459 467 LINE",
"369 338 OFFCURVE",
"240 171 OFFCURVE",
"98 44 CURVE",
"156 -13 LINE",
"288 105 OFFCURVE",
"424 268 OFFCURVE",
"524 423 CURVE"
);
},
{
closed = 1;
nodes = (
"294 1013 LINE",
"286 982 OFFCURVE",
"275 954 OFFCURVE",
"262 929 CURVE",
"330 897 LINE",
"347 922 OFFCURVE",
"359 951 OFFCURVE",
"361 989 CURVE"
);
},
{
closed = 1;
nodes = (
"31 662 LINE",
"23 631 OFFCURVE",
"12 603 OFFCURVE",
"-1 578 CURVE",
"67 546 LINE",
"84 571 OFFCURVE",
"96 600 OFFCURVE",
"98 638 CURVE"
);
}
);
width = 600;
}
);
unicode = 1B1DE;
},
{
glyphname = u1B1DF;
lastChange = "2020-01-21 14:05:45 +0000";
layers = (
{
layerId = "CFFEBDE4-599A-46B2-9328-D96E42CD9C81";
paths = (
{
closed = 1;
nodes = (
"460 1069 LINE",
"441 901 OFFCURVE",
"351 626 OFFCURVE",
"138 444 CURVE",
"198 387 LINE",
"429 583 OFFCURVE",
"524 878 OFFCURVE",
"546 1069 CURVE"
);
},
{
closed = 1;
nodes = (
"543 445 LINE",
"473 316 OFFCURVE",
"388 218 OFFCURVE",
"274 116 CURVE",
"332 59 LINE",
"449 160 OFFCURVE",
"534 262 OFFCURVE",
"608 401 CURVE"
);
},
{
closed = 1;
nodes = (
"419 549 LINE",
"411 518 OFFCURVE",
"400 490 OFFCURVE",
"387 465 CURVE",
"455 433 LINE",
"472 458 OFFCURVE",
"484 487 OFFCURVE",
"486 525 CURVE"
);
},
{
closed = 1;
nodes = (
"277 372 LINE",
"269 341 OFFCURVE",
"258 313 OFFCURVE",
"245 288 CURVE",
"313 256 LINE",
"330 281 OFFCURVE",
"342 310 OFFCURVE",
"344 348 CURVE"
);
},
{
closed = 1;
nodes = (
"159 53 OFFCURVE",
"202 -65 OFFCURVE",
"235 -192 CURVE",
"316 -178 LINE",
"281 -39 OFFCURVE",
"224 92 OFFCURVE",
"150 228 CURVE",
"59 228 LINE",
"48 83 OFFCURVE",
"29 -124 OFFCURVE",
"-4 -280 CURVE",
"73 -309 LINE",
"107 -151 OFFCURVE",
"125 44 OFFCURVE",
"125 188 CURVE",
"90 188 LINE"
);
}
);
width = 600;
}
);
unicode = 1B1DF;
},
{
glyphname = u1B1E0;
lastChange = "2020-01-17 14:26:42 +0000";
layers = (
{
layerId = "CFFEBDE4-599A-46B2-9328-D96E42CD9C81";
paths = (
{
closed = 1;
nodes = (
"85 800 LINE",
"194 575 OFFCURVE",
"239 399 OFFCURVE",
"239 235 CURVE SMOOTH",
"239 48 OFFCURVE",
"210 -109 OFFCURVE",
"139 -270 CURVE",
"218 -293 LINE",
"292 -116 OFFCURVE",
"319 20 OFFCURVE",
"319 235 CURVE SMOOTH",
"319 410 OFFCURVE",
"270 600 OFFCURVE",
"163 832 CURVE"
);
},
{
closed = 1;
nodes = (
"68 323 LINE",
"60 292 OFFCURVE",
"49 264 OFFCURVE",
"36 239 CURVE",
"104 207 LINE",
"121 232 OFFCURVE",
"133 261 OFFCURVE",
"135 299 CURVE"
);
},
{
closed = 1;
nodes = (
"440 1069 LINE",
"427 841 OFFCURVE",
"353 667 OFFCURVE",
"209 534 CURVE",
"269 477 LINE",
"424 629 OFFCURVE",
"513 817 OFFCURVE",
"526 1069 CURVE"
);
},
{
closed = 1;
nodes = (
"543 667 LINE",
"473 538 OFFCURVE",
"388 440 OFFCURVE",
"274 338 CURVE",
"308 267 LINE",
"425 368 OFFCURVE",
"534 484 OFFCURVE",
"608 623 CURVE"
);
},
{
closed = 1;
nodes = (
"465 251 LINE",
"457 220 OFFCURVE",
"446 192 OFFCURVE",
"433 167 CURVE",
"501 135 LINE",
"518 160 OFFCURVE",
"530 189 OFFCURVE",
"532 227 CURVE"
);
},
{
closed = 1;
nodes = (
"428 -1 LINE",
"420 -32 OFFCURVE",
"409 -60 OFFCURVE",
"396 -85 CURVE",
"464 -117 LINE",
"481 -92 OFFCURVE",
"493 -63 OFFCURVE",
"495 -25 CURVE"
);
}
);
width = 600;
}
);
unicode = 1B1E0;
},
{
glyphname = u1B1E1;
lastChange = "2020-01-17 15:09:25 +0000";
layers = (
{
layerId = "CFFEBDE4-599A-46B2-9328-D96E42CD9C81";
paths = (
{
closed = 1;
nodes = (
"261 1069 LINE",
"214 762 OFFCURVE",
"125 508 OFFCURVE",
"-3 268 CURVE",
"64 223 LINE",
"193 469 OFFCURVE",
"282 736 OFFCURVE",
"339 1069 CURVE"
);
},
{
closed = 1;
nodes = (
"230 814 LINE",
"344 660 OFFCURVE",
"464 460 OFFCURVE",
"546 257 CURVE",
"614 311 LINE",
"523 516 OFFCURVE",
"407 722 OFFCURVE",
"285 879 CURVE"
);
},
{
closed = 1;
nodes = (
"409 585 LINE",
"292 320 OFFCURVE",
"171 121 OFFCURVE",
"-3 -66 CURVE",
"64 -111 LINE",
"250 100 OFFCURVE",
"351 253 OFFCURVE",
"478 544 CURVE"
);
},
{
closed = 1;
nodes = (
"143 496 LINE",
"254 284 OFFCURVE",
"361 48 OFFCURVE",
"383 -293 CURVE",
"464 -280 LINE",
"436 84 OFFCURVE",
"320 346 OFFCURVE",
"198 561 CURVE"
);
},
{
closed = 1;
nodes = (
"49 852 LINE",
"41 821 OFFCURVE",
"30 793 OFFCURVE",
"17 768 CURVE",
"85 736 LINE",
"102 761 OFFCURVE",
"114 790 OFFCURVE",
"116 828 CURVE"
);
},
{
closed = 1;
nodes = (
"477 972 LINE",
"469 941 OFFCURVE",
"458 913 OFFCURVE",
"445 888 CURVE",
"513 856 LINE",
"530 881 OFFCURVE",
"542 910 OFFCURVE",
"544 948 CURVE"
);
}
);
width = 600;
}
);
unicode = 1B1E1;
},
{
glyphname = u1B1E2;
lastChange = "2020-01-17 15:12:59 +0000";
layers = (
{
layerId = "CFFEBDE4-599A-46B2-9328-D96E42CD9C81";
paths = (
{
closed = 1;
nodes = (
"261 1069 LINE",
"214 832 OFFCURVE",
"125 578 OFFCURVE",
"-3 338 CURVE",
"64 293 LINE",
"193 539 OFFCURVE",
"282 806 OFFCURVE",
"339 1069 CURVE"
);
},
{
closed = 1;
nodes = (
"230 884 LINE",
"339 729 OFFCURVE",
"401 613 OFFCURVE",
"483 410 CURVE",
"556 456 LINE",
"465 661 OFFCURVE",
"402 791 OFFCURVE",
"285 949 CURVE"
);
},
{
closed = 1;
nodes = (
"305 -114 LINE",
"305 76 OFFCURVE",
"290 274 OFFCURVE",
"245 456 CURVE",
"172 429 LINE",
"218 239 OFFCURVE",
"234 61 OFFCURVE",
"234 -154 CURVE",
"315 -154 LINE",
"419 -24 OFFCURVE",
"510 159 OFFCURVE",
"556 293 CURVE",
"477 315 LINE",
"434 178 OFFCURVE",
"356 17 OFFCURVE",
"262 -114 CURVE"
);
},
{
closed = 1;
nodes = (
"328 245 LINE",
"383 154 OFFCURVE",
"438 10 OFFCURVE",
"478 -112 CURVE",
"556 -80 LINE",
"507 56 OFFCURVE",
"450 196 OFFCURVE",
"398 287 CURVE"
);
},
{
closed = 1;
nodes = (
"68 114 LINE",
"68 -40 OFFCURVE",
"42 -167 OFFCURVE",
"-19 -290 CURVE",
"67 -308 LINE",
"121 -186 OFFCURVE",
"151 -28 OFFCURVE",
"151 114 CURVE"
);
}
);
width = 600;
}
);
unicode = 1B1E2;
},
{
glyphname = u1B1E3;
lastChange = "2020-01-17 15:15:09 +0000";
layers = (
{
layerId = "CFFEBDE4-599A-46B2-9328-D96E42CD9C81";
paths = (
{
closed = 1;
nodes = (
"435 1069 LINE",
"370 889 OFFCURVE",
"291 754 OFFCURVE",
"159 601 CURVE",
"185 486 OFFCURVE",
"189 408 OFFCURVE",
"189 309 CURVE SMOOTH",
"189 95 OFFCURVE",
"149 -94 OFFCURVE",
"49 -293 CURVE",
"128 -320 LINE",
"235 -94 OFFCURVE",
"271 120 OFFCURVE",
"271 309 CURVE SMOOTH",
"271 416 OFFCURVE",
"258 510 OFFCURVE",
"237 613 CURVE",
"235 562 LINE",
"357 714 OFFCURVE",
"445 859 OFFCURVE",
"518 1069 CURVE"
);
},
{
closed = 1;
nodes = (
"526 645 LINE",
"447 484 OFFCURVE",
"336 348 OFFCURVE",
"206 243 CURVE",
"253 186 LINE",
"387 300 OFFCURVE",
"504 433 OFFCURVE",
"598 617 CURVE"
);
},
{
closed = 1;
nodes = (
"329 630 LINE",
"394 436 OFFCURVE",
"424 339 OFFCURVE",
"453 140 CURVE",
"531 172 LINE",
"493 385 OFFCURVE",
"469 497 OFFCURVE",
"397 672 CURVE"
);
},
{
closed = 1;
nodes = (
"41 401 LINE",
"33 370 OFFCURVE",
"22 342 OFFCURVE",
"9 317 CURVE",
"77 285 LINE",
"94 310 OFFCURVE",
"106 339 OFFCURVE",
"108 377 CURVE"
);
},
{
closed = 1;
nodes = (
"41 174 LINE",
"33 143 OFFCURVE",
"22 115 OFFCURVE",
"9 90 CURVE",
"77 58 LINE",
"94 83 OFFCURVE",
"106 112 OFFCURVE",
"108 150 CURVE"
);
}
);
width = 600;
}
);
unicode = 1B1E3;
},
{
glyphname = u1B1E4;
lastChange = "2020-01-22 10:07:57 +0000";
layers = (
{
layerId = "CFFEBDE4-599A-46B2-9328-D96E42CD9C81";
paths = (
{
closed = 1;
nodes = (
"332 -296 LINE",
"354 -178 OFFCURVE",
"374 9 OFFCURVE",
"374 166 CURVE SMOOTH",
"374 350 OFFCURVE",
"340 555 OFFCURVE",
"268 687 CURVE",
"201 627 LINE",
"260 510 OFFCURVE",
"288 305 OFFCURVE",
"288 166 CURVE SMOOTH",
"288 8 OFFCURVE",
"270 -160 OFFCURVE",
"246 -278 CURVE"
);
},
{
closed = 1;
nodes = (
"391 1069 LINE",
"366 833 OFFCURVE",
"236 678 OFFCURVE",
"-3 518 CURVE",
"44 450 LINE",
"288 620 OFFCURVE",
"441 811 OFFCURVE",
"477 1069 CURVE"
);
},
{
closed = 1;
nodes = (
"447 696 LINE",
"334 514 OFFCURVE",
"197 380 OFFCURVE",
"36 284 CURVE",
"86 219 LINE",
"268 335 OFFCURVE",
"387 454 OFFCURVE",
"511 658 CURVE"
);
},
{
closed = 1;
nodes = (
"91 -55 LINE",
"83 -86 OFFCURVE",
"72 -114 OFFCURVE",
"59 -139 CURVE",
"127 -171 LINE",
"144 -146 OFFCURVE",
"156 -117 OFFCURVE",
"158 -79 CURVE"
);
},
{
closed = 1;
nodes = (
"507 176 LINE",
"499 145 OFFCURVE",
"488 117 OFFCURVE",
"475 92 CURVE",
"543 60 LINE",
"560 85 OFFCURVE",
"572 114 OFFCURVE",
"574 152 CURVE"
);
},
{
closed = 1;
nodes = (
"534 477 LINE",
"399 307 OFFCURVE",
"226 164 OFFCURVE",
"64 84 CURVE",
"112 18 LINE",
"295 116 OFFCURVE",
"450 246 OFFCURVE",
"598 438 CURVE"
);
}
);
width = 600;
}
);
unicode = 1B1E4;
},
{
glyphname = u1B1E5;
lastChange = "2020-01-21 14:43:46 +0000";
layers = (
{
layerId = "CFFEBDE4-599A-46B2-9328-D96E42CD9C81";
paths = (
{
closed = 1;
nodes = (
"518 1069 LINE",
"447 752 OFFCURVE",
"328 583 OFFCURVE",
"151 469 CURVE",
"206 406 LINE",
"397 536 OFFCURVE",
"537 743 OFFCURVE",
"609 1069 CURVE"
);
},
{
closed = 1;
nodes = (
"567 602 LINE",
"485 458 OFFCURVE",
"352 310 OFFCURVE",
"201 211 CURVE",
"247 143 LINE",
"421 260 OFFCURVE",
"536 395 OFFCURVE",
"635 555 CURVE"
);
},
{
closed = 1;
nodes = (
"550 193 LINE",
"467 79 OFFCURVE",
"390 7 OFFCURVE",
"289 -63 CURVE",
"335 -131 LINE",
"442 -60 OFFCURVE",
"508 6 OFFCURVE",
"607 139 CURVE"
);
},
{
closed = 1;
nodes = (
"363 629 LINE",
"391 406 OFFCURVE",
"400 206 OFFCURVE",
"381 -62 CURVE",
"455 -8 LINE",
"482 247 OFFCURVE",
"467 468 OFFCURVE",
"433 702 CURVE"
);
},
{
closed = 1;
nodes = (
"137 0 OFFCURVE",
"167 -90 OFFCURVE",
"190 -192 CURVE",
"271 -178 LINE",
"246 -64 OFFCURVE",
"202 39 OFFCURVE",
"136 135 CURVE",
"45 135 LINE",
"34 -10 OFFCURVE",
"19 -149 OFFCURVE",
"-4 -280 CURVE",
"73 -309 LINE",
"97 -176 OFFCURVE",
"111 -49 OFFCURVE",
"111 95 CURVE",
"76 95 LINE"
);
}
);
width = 600;
}
);
unicode = 1B1E5;
},
{
glyphname = u1B1E6;
lastChange = "2020-01-22 14:22:35 +0000";
layers = (
{
layerId = "CFFEBDE4-599A-46B2-9328-D96E42CD9C81";
paths = (
{
closed = 1;
nodes = (
"316 396 LINE",
"358 191 OFFCURVE",
"339 -27 OFFCURVE",
"201 -268 CURVE",
"254 -264 LINE",
"212 -134 OFFCURVE",
"176 23 OFFCURVE",
"160 130 CURVE",
"75 96 LINE",
"87 -5 OFFCURVE",
"130 -158 OFFCURVE",
"177 -293 CURVE",
"279 -293 LINE",
"447 -11 OFFCURVE",
"446 219 OFFCURVE",
"402 421 CURVE"
);
},
{
closed = 1;
nodes = (
"20 -116 LINE",
"12 -147 OFFCURVE",
"1 -175 OFFCURVE",
"-12 -200 CURVE",
"56 -232 LINE",
"73 -207 OFFCURVE",
"85 -178 OFFCURVE",
"87 -140 CURVE"
);
},
{
closed = 1;
nodes = (
"208 316 LINE",
"200 285 OFFCURVE",
"189 257 OFFCURVE",
"176 232 CURVE",
"244 200 LINE",
"261 225 OFFCURVE",
"273 254 OFFCURVE",
"275 292 CURVE"
);
},
{
closed = 1;
nodes = (
"271 1069 LINE",
"234 767 OFFCURVE",
"157 522 OFFCURVE",
"2 273 CURVE",
"71 226 LINE",
"230 484 OFFCURVE",
"314 746 OFFCURVE",
"354 1069 CURVE"
);
},
{
closed = 1;
nodes = (
"36 867 LINE",
"198 773 OFFCURVE",
"311 672 OFFCURVE",
"418 512 CURVE",
"481 568 LINE",
"361 738 OFFCURVE",
"241 845 OFFCURVE",
"86 929 CURVE"
);
}
);
width = 500;
}
);
unicode = 1B1E6;
},
{
glyphname = u1B1E7;
lastChange = "2020-01-17 15:25:26 +0000";
layers = (
{
layerId = "CFFEBDE4-599A-46B2-9328-D96E42CD9C81";
paths = (
{
closed = 1;
nodes = (
"518 1069 LINE",
"447 752 OFFCURVE",
"328 583 OFFCURVE",
"151 469 CURVE",
"206 406 LINE",
"397 536 OFFCURVE",
"537 743 OFFCURVE",
"609 1069 CURVE"
);
},
{
closed = 1;
nodes = (
"567 602 LINE",
"485 458 OFFCURVE",
"340 302 OFFCURVE",
"216 203 CURVE",
"262 135 LINE",
"409 252 OFFCURVE",
"536 395 OFFCURVE",
"635 555 CURVE"
);
},
{
closed = 1;
nodes = (
"550 193 LINE",
"467 79 OFFCURVE",
"390 7 OFFCURVE",
"289 -63 CURVE",
"335 -131 LINE",
"442 -60 OFFCURVE",
"508 6 OFFCURVE",
"607 139 CURVE"
);
},
{
closed = 1;
nodes = (
"363 629 LINE",
"391 406 OFFCURVE",
"400 206 OFFCURVE",
"381 -62 CURVE",
"455 -8 LINE",
"482 247 OFFCURVE",
"467 468 OFFCURVE",
"433 702 CURVE"
);
},
{
closed = 1;
nodes = (
"183 126 LINE",
"137 38 OFFCURVE",
"54 -50 OFFCURVE",
"-17 -111 CURVE",
"31 -177 LINE",
"134 -92 OFFCURVE",
"187 -22 OFFCURVE",
"254 85 CURVE"
);
},
{
closed = 1;
nodes = (
"-13 166 LINE",
"79 13 OFFCURVE",
"128 -142 OFFCURVE",
"160 -293 CURVE",
"241 -293 LINE",
"211 -127 OFFCURVE",
"159 57 OFFCURVE",
"54 214 CURVE"
);
}
);
width = 600;
}
);
unicode = 1B1E7;
},
{
glyphname = u1B1E8;
lastChange = "2020-01-17 15:28:26 +0000";
layers = (
{
layerId = "CFFEBDE4-599A-46B2-9328-D96E42CD9C81";
paths = (
{
closed = 1;
nodes = (
"463 1069 LINE",
"392 812 OFFCURVE",
"273 643 OFFCURVE",
"96 529 CURVE",
"151 466 LINE",
"342 596 OFFCURVE",
"482 803 OFFCURVE",
"554 1069 CURVE"
);
},
{
closed = 1;
nodes = (
"512 662 LINE",
"430 518 OFFCURVE",
"297 370 OFFCURVE",
"146 271 CURVE",
"192 203 LINE",
"366 320 OFFCURVE",
"481 455 OFFCURVE",
"580 615 CURVE"
);
},
{
closed = 1;
nodes = (
"308 689 LINE",
"353 484 OFFCURVE",
"354 354 OFFCURVE",
"354 263 CURVE SMOOTH",
"354 34 OFFCURVE",
"326 -139 OFFCURVE",
"276 -284 CURVE",
"352 -315 LINE",
"402 -182 OFFCURVE",
"435 23 OFFCURVE",
"435 263 CURVE SMOOTH",
"435 386 OFFCURVE",
"425 567 OFFCURVE",
"378 762 CURVE"
);
},
{
closed = 1;
nodes = (
"529 170 LINE",
"521 139 OFFCURVE",
"510 111 OFFCURVE",
"497 86 CURVE",
"565 54 LINE",
"582 79 OFFCURVE",
"594 108 OFFCURVE",
"596 146 CURVE"
);
},
{
closed = 1;
nodes = (
"173 137 LINE",
"182 9 OFFCURVE",
"159 -119 OFFCURVE",
"106 -197 CURVE",
"182 -230 LINE",
"233 -151 OFFCURVE",
"267 -4 OFFCURVE",
"256 137 CURVE"
);
},
{
closed = 1;
nodes = (
"38 46 LINE",
"30 15 OFFCURVE",
"19 -13 OFFCURVE",
"6 -38 CURVE",
"74 -70 LINE",
"91 -45 OFFCURVE",
"103 -16 OFFCURVE",
"105 22 CURVE"
);
}
);
width = 600;
}
);
unicode = 1B1E8;
},
